<?xml version="1.0" encoding="utf-8"?>
<!-- Generator: Adobe Illustrator 22.0.1, SVG Export Plug-In . SVG Version: 6.00 Build 0)  -->
<svg version="1.1" id="Layer_1" xmlns="http://www.w3.org/2000/svg" xmlns:xlink="http://www.w3.org/1999/xlink" x="0px" y="0px"
	 viewBox="0 0 322 210.5" style="enable-background:new 0 0 322 210.5;" xml:space="preserve">
<style type="text/css">
	.st0{filter:url(#Adobe_OpacityMaskFilter);}
	.st1{fill:url(#SVGID_2_);}
	.st2{opacity:0.55;mask:url(#SVGID_1_);fill:#231F20;}
	.st3{filter:url(#Adobe_OpacityMaskFilter_1_);}
	.st4{fill:url(#SVGID_4_);}
	.st5{opacity:0.55;mask:url(#SVGID_3_);fill:#231F20;}
	.st6{filter:url(#Adobe_OpacityMaskFilter_2_);}
	.st7{fill:url(#SVGID_6_);}
	.st8{opacity:0.55;mask:url(#SVGID_5_);fill:#231F20;}
	.st9{fill:url(#SVGID_7_);}
	.st10{fill:url(#SVGID_8_);}
	.st11{fill:url(#SVGID_9_);}
	.st12{fill:url(#SVGID_10_);}
	.st13{fill:url(#SVGID_11_);}
	.st14{filter:url(#Adobe_OpacityMaskFilter_3_);}
	.st15{fill:url(#SVGID_13_);}
	.st16{opacity:0.55;mask:url(#SVGID_12_);fill:#231F20;}
	.st17{fill:url(#SVGID_14_);}
</style>
<g>
	<defs>
		<filter id="Adobe_OpacityMaskFilter" filterUnits="userSpaceOnUse" x="4.1" y="133.3" width="309" height="49">
			<feColorMatrix  type="matrix" values="1 0 0 0 0  0 1 0 0 0  0 0 1 0 0  0 0 0 1 0"/>
		</filter>
	</defs>
	<mask maskUnits="userSpaceOnUse" x="4.1" y="133.3" width="309" height="49" id="SVGID_1_">
		<g class="st0">
			
				<radialGradient id="SVGID_2_" cx="560.4489" cy="6443.9971" r="156.2879" gradientTransform="matrix(0.9885 0 0 0.1568 -395.401 -852.6143)" gradientUnits="userSpaceOnUse">
				<stop  offset="0" style="stop-color:#FFFFFF"/>
				<stop  offset="1" style="stop-color:#231F20"/>
			</radialGradient>
			<ellipse class="st1" cx="158.6" cy="157.8" rx="154.5" ry="24.5"/>
		</g>
	</mask>
	<ellipse class="st2" cx="158.6" cy="157.8" rx="154.5" ry="24.5"/>
	<defs>
		<filter id="Adobe_OpacityMaskFilter_1_" filterUnits="userSpaceOnUse" x="9" y="135.5" width="309" height="49">
			<feColorMatrix  type="matrix" values="1 0 0 0 0  0 1 0 0 0  0 0 1 0 0  0 0 0 1 0"/>
		</filter>
	</defs>
	<mask maskUnits="userSpaceOnUse" x="9" y="135.5" width="309" height="49" id="SVGID_3_">
		<g class="st3">
			
				<radialGradient id="SVGID_4_" cx="565.4395" cy="6457.8022" r="156.2879" gradientTransform="matrix(0.9885 0 0 0.1568 -395.401 -852.6143)" gradientUnits="userSpaceOnUse">
				<stop  offset="0" style="stop-color:#FFFFFF"/>
				<stop  offset="1" style="stop-color:#231F20"/>
			</radialGradient>
			<ellipse class="st4" cx="163.5" cy="160" rx="154.5" ry="24.5"/>
		</g>
	</mask>
	<ellipse class="st5" cx="163.5" cy="160" rx="154.5" ry="24.5"/>
	<defs>
		<filter id="Adobe_OpacityMaskFilter_2_" filterUnits="userSpaceOnUse" x="4.1" y="133.3" width="309" height="49">
			<feColorMatrix  type="matrix" values="1 0 0 0 0  0 1 0 0 0  0 0 1 0 0  0 0 0 1 0"/>
		</filter>
	</defs>
	<mask maskUnits="userSpaceOnUse" x="4.1" y="133.3" width="309" height="49" id="SVGID_5_">
		<g class="st6">
			
				<radialGradient id="SVGID_6_" cx="560.4489" cy="6443.9971" r="156.2879" gradientTransform="matrix(0.9885 0 0 0.1568 -395.401 -852.6143)" gradientUnits="userSpaceOnUse">
				<stop  offset="0" style="stop-color:#FFFFFF"/>
				<stop  offset="1" style="stop-color:#231F20"/>
			</radialGradient>
			<ellipse class="st7" cx="158.6" cy="157.8" rx="154.5" ry="24.5"/>
		</g>
	</mask>
	<ellipse class="st8" cx="158.6" cy="157.8" rx="154.5" ry="24.5"/>
	<radialGradient id="SVGID_7_" cx="161.6735" cy="157.8044" r="82.1685" gradientUnits="userSpaceOnUse">
		<stop  offset="0" style="stop-color:#FFFFFF"/>
		<stop  offset="4.810131e-02" style="stop-color:#FCFBF8"/>
		<stop  offset="0.2537" style="stop-color:#F1EBE0"/>
		<stop  offset="0.4718" style="stop-color:#E9E0CF"/>
		<stop  offset="0.7089" style="stop-color:#E4D9C5"/>
		<stop  offset="1" style="stop-color:#E3D7C2"/>
	</radialGradient>
	<path class="st9" d="M107.9,144.3c-9.9,0-19.6,0.6-29.3,2c-6.4,0.9-22.6,0.3-25.9,6.1c4.1,3.2,10,1.1,15.2,1.7
		c1.7,0.2,3.2,0.5,4.7,0.9c3.9,1.1,3.4,6.8-0.6,7.3c-10.8,1.3-24.5,2.1-24.3,12.1c9.8,0.5,19.9-0.2,29.5-1.9
		c4.6-0.8,11.9-4.2,16.7-2.4c4.6,1.7,4.1,6,7.9,8.1c5.9,3.3,18.6,2.1,24.8,0.2c8.9-2.8,14.4-3.5,24.1-3.1c21.1,1,42.2,0.1,63.3,1.1
		c10.7,0.5,18.6,1.6,28.4-3.4c8.3-4.2,12.6-5.3,22-6.4c5-0.6,8.9-0.6,11.5-5.3c-4.4-3-18.6-4.2-30.4-4.8c-3.3-0.2-3.7-4.8-0.5-5.6
		c5.1-1.2,9.5-2.8,9.5-5.5c-14.4-2.5-29.3-1.3-44.1-2c0.4-11.9-43.7-1.5-53.4-3.6c-8.9-2-16.3-4.8-25.8-4
		C122,136.3,116.9,144.3,107.9,144.3z"/>
	<g>
		
			<radialGradient id="SVGID_8_" cx="473.9024" cy="502.7783" r="90.679" gradientTransform="matrix(0 -1 -1 0 561.5844 561.5844)" gradientUnits="userSpaceOnUse">
			<stop  offset="0" style="stop-color:#7F4B24"/>
			<stop  offset="1" style="stop-color:#AD693A"/>
		</radialGradient>
		<path class="st10" d="M147.8,136l-12.9-6.4l12.9-7c0,0-9.7-8.5-9.6-8.1c0.1,0.4,9.6-12.1,9.6-12.1L134,88.4l6.9-12l-6.9-8.3
			l9.5-16.1l-9.5-8.8l6.9-4.7c0,0-4.5-3.8-20.2-8.8c-34.2-0.1-51.8,79.8-51.8,79.8l3.5,30.2l13.6,10.9L147.8,136z"/>
		
			<radialGradient id="SVGID_9_" cx="473.1508" cy="475.6635" r="62.1872" gradientTransform="matrix(0 -1 -1 0 561.5844 561.5844)" gradientUnits="userSpaceOnUse">
			<stop  offset="0" style="stop-color:#EEB056"/>
			<stop  offset="0.5108" style="stop-color:#E98C4F"/>
			<stop  offset="1" style="stop-color:#C07541"/>
		</radialGradient>
		<path class="st11" d="M118.9,29.9c-4.4,2.7,1.8,12.4,1.8,12.4l-6.2-1.8l3.6,8l-8,2.7l9.8,10.7l-10.7,6.2l9.8,2.7l-13.3,7.1l8,12.4
			l-10.7,1.8l8.9,7.1l-19.5,8l10.7,8.9l-12.4,9.8l26.6,2.7l-8,9.8c0,0,25.5,1.6,38.7-2.3c-16.1,9.3-36.1,14.9-55.6,14.9
			c-43.6,0-68.3-28-68.3-62.5S48.7,26,92.3,26c9.2,0,18.5,1.3,27.5,3.5C119.5,29.7,119.2,29.8,118.9,29.9z"/>
	</g>
	<g>
		<radialGradient id="SVGID_10_" cx="209.7965" cy="98.2757" r="41.1138" gradientUnits="userSpaceOnUse">
			<stop  offset="0" style="stop-color:#7F4B24"/>
			<stop  offset="1" style="stop-color:#AD693A"/>
		</radialGradient>
		<path class="st12" d="M250.5,71.7l-3.1-14.6h-13.2V67h-13.3v9.8h-9.2l1.5,8.3l-10.1-6.5l4.1,19.5l-9.8-7.9l1.5,12.4l-16.3,2.3
			l3.8,10.1l-9.5-3l1.8,16.6l-10.1-2.4l4.2,13.2l28.6-3.5c0,0,27.2-15.7,27.8-15.5c0.6,0.1,11.8-15.3,13.9-17.8
			c2.1-2.5,6.2-9.6,7.1-12.4C251.4,87.4,250.5,71.7,250.5,71.7z"/>
		<radialGradient id="SVGID_11_" cx="217.25" cy="102.4451" r="44.804" gradientUnits="userSpaceOnUse">
			<stop  offset="0" style="stop-color:#EEB056"/>
			<stop  offset="0.5108" style="stop-color:#E98C4F"/>
			<stop  offset="1" style="stop-color:#C07541"/>
		</radialGradient>
		<path class="st13" d="M231.7,79.9l1.4,10.4l-6.4-1.3l5.1,13.2l-13.1,0.1l2.2,12.8l-14.9-2l5.1,9.3l-12.9-2l-1.7,8.3l-12.5-1.3
			l-2.3,10.6c0,0-3.7,0.5-8.7,1.3c25.8,11.6,53,11.5,70.5-2.9c20.7-17.1,25.7-49.4,3.9-79.4l-4.8,27.6L231.7,79.9z"/>
	</g>
	<defs>
		<filter id="Adobe_OpacityMaskFilter_3_" filterUnits="userSpaceOnUse" x="92.3" y="144.7" width="124.4" height="26.2">
			<feColorMatrix  type="matrix" values="1 0 0 0 0  0 1 0 0 0  0 0 1 0 0  0 0 0 1 0"/>
		</filter>
	</defs>
	<mask maskUnits="userSpaceOnUse" x="92.3" y="144.7" width="124.4" height="26.2" id="SVGID_12_">
		<g class="st14">
			
				<radialGradient id="SVGID_13_" cx="556.2734" cy="3934.1907" r="62.9266" gradientTransform="matrix(0.9885 0 0 0.208 -395.401 -660.5072)" gradientUnits="userSpaceOnUse">
				<stop  offset="0" style="stop-color:#FFFFFF"/>
				<stop  offset="1" style="stop-color:#231F20"/>
			</radialGradient>
			<ellipse class="st15" cx="154.5" cy="157.8" rx="62.2" ry="13.1"/>
		</g>
	</mask>
	<ellipse class="st16" cx="154.5" cy="157.8" rx="62.2" ry="13.1"/>
	
		<radialGradient id="SVGID_14_" cx="132.8762" cy="1137.4087" r="31.5877" gradientTransform="matrix(1 0 0 0.6113 0 -552.7023)" gradientUnits="userSpaceOnUse">
		<stop  offset="0" style="stop-color:#FFC317"/>
		<stop  offset="4.275654e-02" style="stop-color:#FEBF18"/>
		<stop  offset="0.2213" style="stop-color:#FCB51C"/>
		<stop  offset="0.4409" style="stop-color:#FBB21D"/>
		<stop  offset="0.5284" style="stop-color:#FAAB1E"/>
		<stop  offset="0.74" style="stop-color:#F8A120"/>
		<stop  offset="1" style="stop-color:#F89E21"/>
	</radialGradient>
	<path class="st17" d="M111.8,153.6c1.2-3.2,5.1-6.5,10.2-8.8c13-5.7,31.2-8.7,47.2-7.6c13.5,0.9,34.8,8.8,26.5,18.5
		c-8.8,10.3-36,9.3-51.6,8.4c-6.7-0.4-14.1,0-20.7-0.9C113,162,110.2,157.9,111.8,153.6z"/>
</g>
</svg>
