<?xml version="1.0" encoding="utf-8"?>
<!-- Generator: Adobe Illustrator 22.0.1, SVG Export Plug-In . SVG Version: 6.00 Build 0)  -->
<svg version="1.1" id="Layer_1" xmlns="http://www.w3.org/2000/svg" xmlns:xlink="http://www.w3.org/1999/xlink" x="0px" y="0px"
	 viewBox="0 0 287 380.5" style="enable-background:new 0 0 287 380.5;" xml:space="preserve">
<style type="text/css">
	.st0{fill:#FFCD85;}
	.st1{opacity:0.23;}
	.st2{fill:#FFFFFF;}
	.st3{opacity:0.23;fill:#FFFFFF;}
</style>
<g>
	<path class="st0" d="M283.3,212.3c0,108.5-63,167.2-140.7,167.2c-77.7,0-140.7-58.7-140.7-167.2c0-108.5,63-212,140.7-212
		C220.3,0.3,283.3,103.8,283.3,212.3z"/>
	<g class="st1">
		<path class="st2" d="M237.2,233.9c-11.9,0-21.6-9.7-21.6-21.6c0-40-11.1-80.1-30.4-110c-6.5-10-3.6-23.4,6.4-29.9
			c10-6.5,23.4-3.6,29.9,6.4c23.7,36.7,37.3,85.3,37.3,133.4C258.8,224.2,249.1,233.9,237.2,233.9z"/>
	</g>
	<circle class="st3" cx="167.9" cy="42.7" r="20.5"/>
</g>
</svg>
