<svg id="Layer_1" data-name="Layer 1" xmlns="http://www.w3.org/2000/svg" viewBox="0 0 1398.6 600"><defs><style>.cls-1{fill:#009245;}.cls-2{fill:#39b54a;}</style></defs><title>grass</title><path class="cls-1" d="M106.1,480.8c0,.4,0,1.4-.1,3s-.1,4.8-.3,8.2c0,1.7-.1,3.5-.3,5.5l2.9-5.6L108,490C107.4,486.8,106.8,483.7,106.1,480.8Z"/><path class="cls-1" d="M177.1,490.9c1.1,2.9,2.1,5.8,3,8.9l.3-4.1c.4-6,.9-12,1.4-17.6-1.4,3.7-2.9,7.9-4.5,12.3C177.2,490.6,177.2,490.8,177.1,490.9Z"/><path class="cls-1" d="M38.9,494.7c.6,1.6,1.2,3.4,1.7,5.1l.3-4.1.6-8.6-1.2,3.3C39.9,491.8,39.4,493.2,38.9,494.7Z"/><path class="cls-1" d="M245.6,480.8v3c-.1,2-.2,4.8-.3,8.2-.1,1.7-.2,3.5-.3,5.5l2.8-5.6a14.8,14.8,0,0,0-.3-1.9C246.9,486.8,246.3,483.7,245.6,480.8Z"/><path class="cls-1" d="M31.1,487.1c-.1,1.4-.1,3.1-.2,4.9s-.2,3.5-.3,5.5a34.1,34.1,0,0,1,1.7-3.3c-.2-1.4-.4-2.8-.7-4.2A29.3,29.3,0,0,0,31.1,487.1Z"/><path class="cls-1" d="M448.8,506.8a129.4,129.4,0,0,0-3.2,16.5c-.2,1.7-.4,3.3-.5,4.9a221,221,0,0,0,8.1-28.7,85.5,85.5,0,0,0,1.4-8.6c.2-1.4.4-2.8.5-4.2l-1.3,3.7C452,495.6,450.2,501.2,448.8,506.8Z"/><path class="cls-1" d="M516.5,480.8v3c-.1,2-.2,4.8-.4,8.2,0,1.7-.1,3.5-.3,5.5l2.9-5.6-.3-1.9C517.8,486.8,517.2,483.7,516.5,480.8Z"/><path class="cls-1" d="M307.6,487.1c-.1,1.4-.2,3.1-.2,4.9s-.2,3.5-.3,5.5a34.1,34.1,0,0,1,1.7-3.3c-.2-1.4-.4-2.8-.7-4.2S307.8,488.1,307.6,487.1Z"/><path class="cls-1" d="M315.4,494.7c.6,1.6,1.2,3.4,1.7,5.1l.3-4.1.6-8.6-1.2,3.3C316.3,491.8,315.9,493.2,315.4,494.7Z"/><path class="cls-1" d="M382.6,480.8c0,.4,0,1.4-.1,3s-.1,4.8-.3,8.2c-.1,1.7-.2,3.5-.3,5.5,1-1.9,1.9-3.8,2.9-5.6l-.3-1.9C383.9,486.8,383.3,483.7,382.6,480.8Z"/><path class="cls-1" d="M596.2,466.1c-1.3,2.2-3.3,5.2-5.6,9s-4.9,8.1-7.7,13c-1.6,2.9-3.3,6.1-5,9.4.2-2,.3-3.8.3-5.5.2-3.4.3-6.2.4-8.2v-3.1s-1.1,4.3-2.9,10.7-4.5,14.8-7.5,23.1l-1.6,4.3c-.2-3.5-.3-7.2-.2-11a119.1,119.1,0,0,1,1-13.6c.6-4.4,1.3-8.5,2.1-12a46.8,46.8,0,0,1,1.1-4.7c.4-1.5.7-2.7,1-3.7l1-3.2-1.6,2.9a24.5,24.5,0,0,0-1.8,3.3c-.7,1.3-1.4,2.8-2.2,4.4-1.5,3.3-3.1,7.2-4.7,11.4s-3,8.9-4.2,13.5l-.6,2.6v-1.3a175.2,175.2,0,0,1,.2-17.8c.4-5.7.7-11,1.1-15.6a75.6,75.6,0,0,1,1.8-11.5c.4-1.5.8-2.6,1-3.4l.5-1.1-.6,1.1a30.9,30.9,0,0,0-1.5,3.1,79.8,79.8,0,0,0-3.8,11.2c-.5,2.2-1.1,4.6-1.8,7.1a98.6,98.6,0,0,0-2.7-13,76.7,76.7,0,0,0-3.7-9.9c-.5-1.2-1-2-1.3-2.7l-.4-.9.3,1c.1.7.4,1.6.7,2.8a83.4,83.4,0,0,1,1.8,10.1,99.6,99.6,0,0,1,.3,14.7c-.1,2.7-.4,5.5-.7,8.3s-.9,5.7-1.4,8.6a193.7,193.7,0,0,1-5.4,20.3c-.2-5-.4-10.2-.5-15.5s0-12.9.2-18.9.4-11.8.7-16.6c.2-2.4.3-4.7.5-6.6s.3-3.7.4-5.2.4-4.4.4-4.4l-1.1,4.3c-.4,1.4-.8,3-1.2,5s-1,4-1.6,6.4c-1.1,4.8-2.2,10.3-3.4,16.3s-2.2,12.4-3.2,18.8c-.4,2.5-.8,5.1-1.1,7.6q-1.3-5.5-2.4-11.1a115.6,115.6,0,0,1-1.9-15.4c1.1-2.9,2.1-5.7,3.1-8.2,1.6-4.1,3-7.4,4-9.8s1.5-3.7,1.5-3.7l-2.2,3.3c-1.3,2.2-3.3,5.2-5.6,9l-1,1.7a116.5,116.5,0,0,1,1.1-16.4c.4-2.7.9-5.2,1.3-7.4l.3-1.6c.1-.5.3-1,.4-1.5l.6-2.6,1.3-4.9-1.9,4.7c-.4.7-.7,1.6-1.1,2.5a12.1,12.1,0,0,1-.5,1.4l-.6,1.5c-.7,2.2-1.5,4.6-2.3,7.3s-.8,2.8-1.1,4.2l-.9,3.3h0a5,5,0,0,0-.2,1.2,99.1,99.1,0,0,0-1.7,10c-.1,1-.3,1.9-.4,2.9s-.1,1.6-.2,2.4c-1.2-2.7-2.4-5.3-3.5-7.5s-.9-1.8-1.3-2.6l-1.2-2.3-2-3.6c-1.2-1.9-1.8-3.1-1.8-3.1l1.1,3.4q.6,1.7,1.2,3.9c.3.7.5,1.5.8,2.4s.4,1.7.7,2.7.6,2.3.9,3.6-1.2,4.7-2.9,10.6-4.5,14.8-7.5,23.1l-1.6,4.3c-.2-3.5-.3-7.2-.2-11s.5-9.3,1-13.6,1.3-8.5,2.1-12a46.8,46.8,0,0,1,1.1-4.7c.4-1.5.7-2.7,1-3.7l1-3.2-1.6,2.9c-.6.9-1.1,2-1.8,3.3s-1.4,2.8-2.2,4.4c-1.5,3.3-3.1,7.2-4.7,11.4s-3,8.9-4.2,13.5l-.6,2.6v-1.3a175.2,175.2,0,0,1,.2-17.8c.1-1.9.3-3.7.4-5.5s2-5.4,2.9-7.8c1.6-4.1,3-7.4,4-9.8l1.5-3.7-2.2,3.3c-1.3,2.2-3.3,5.2-5.6,8.9a65.3,65.3,0,0,1,2-12.5c.3-1.5.7-2.6.9-3.4l.5-1.1-.6,1.1a30.9,30.9,0,0,0-1.5,3.1,79.8,79.8,0,0,0-3.8,11.2c-.5,2.2-1.1,4.7-1.8,7.2l-.6,2.7-2.8,4.8c-1.6,2.9-3.3,6.1-5,9.4.1-2,.2-3.8.3-5.5.2-3.4.3-6.2.3-8.2s.1-3.1.1-3.1-1.1,4.3-2.9,10.7-4.6,14.8-7.5,23.1c-.6,1.4-1.1,2.9-1.6,4.3-.2-3.5-.3-7.2-.2-11a119.1,119.1,0,0,1,1-13.6,109.6,109.6,0,0,1,2.1-12,46.8,46.8,0,0,1,1.1-4.7c.4-1.5.7-2.7,1-3.7l.9-3.2-1.6,2.9c-.5.9-1.1,2-1.7,3.3l-2.2,4.4c-1.5,3.3-3.1,7.2-4.7,11.4a133.1,133.1,0,0,0-4.2,13.5l-.6,2.6a6.2,6.2,0,0,0-.1-1.3c-.2-6,0-12.1.3-17.8s.7-11,1.1-15.6a75.6,75.6,0,0,1,1.8-11.5c.4-1.5.8-2.6,1-3.4l.5-1.1a3.3,3.3,0,0,0-.6,1.1,18,18,0,0,0-1.5,3.1,68.6,68.6,0,0,0-3.8,11.2c-.5,2.2-1.1,4.6-1.8,7.1-.2-1.9-.6-3.7-.9-5.4l3.4-8.6,1.6-3.7-2.2,3.3-3.5,5.6c-.4-1.4-.8-2.8-1.1-4.2a95.3,95.3,0,0,0-3.7-9.9c-.5-1.2-1-2-1.3-2.7l-.4-.9.2,1c.2.7.5,1.6.8,2.8a83.4,83.4,0,0,1,1.8,10.1c.2,2.8.4,5.8.4,9.1-2,3.3-4.2,7-6.5,11.1s-3.3,6.1-5,9.4c.1-2,.2-3.8.3-5.5.2-3.4.3-6.2.3-8.2s.1-3.1.1-3.1-1.1,4.3-2.9,10.7-4.6,14.8-7.5,23.1c-.6,1.4-1.1,2.9-1.6,4.3-.2-3.5-.3-7.2-.3-11s.5-9.3,1.1-13.6a110.9,110.9,0,0,1,2-12c.4-1.7.8-3.3,1.2-4.7a37.2,37.2,0,0,1,1-3.7l.9-3.2-1.6,2.9c-.5.9-1.1,2-1.7,3.3s-1.5,2.8-2.2,4.4c-1.6,3.3-3.1,7.2-4.7,11.4a133.1,133.1,0,0,0-4.2,13.5l-.6,2.6c0-.4-.1-.8-.1-1.3-.2-6,0-12.1.3-17.8s.7-11,1.1-15.6a64.8,64.8,0,0,1,1.8-11.5c.4-1.5.8-2.6,1-3.4a8.2,8.2,0,0,0,.4-1.1l-.6,1.1c-.3.7-.9,1.7-1.5,3.1a81.3,81.3,0,0,0-3.7,11.2c-.6,2.2-1.1,4.6-1.8,7.1a97.8,97.8,0,0,0-2.8-13,78.9,78.9,0,0,0-3.6-9.9c-.5-1.2-1-2-1.3-2.7l-.4-.9s.1.4.2,1,.5,1.6.8,2.8a69.4,69.4,0,0,1,1.7,10.1,86.8,86.8,0,0,1,.4,14.7c-.2,2.7-.4,5.5-.8,8.3a85.5,85.5,0,0,1-1.4,8.6,193.8,193.8,0,0,1-5.3,20.3c-.3-5-.4-10.2-.5-15.5s0-12.9.2-18.9.4-11.8.7-16.6c.1-2.4.3-4.7.5-6.6s.2-3.7.4-5.2.4-4.4.4-4.4l-1.1,4.3c-.4,1.4-.8,3-1.3,5s-1,4-1.5,6.4c-1.1,4.8-2.2,10.3-3.4,16.3s-2.3,12.4-3.3,18.8c-.3,2.5-.7,5.1-1,7.6q-1.4-5.5-2.4-11.1a115.6,115.6,0,0,1-1.9-15.4c1.1-2.9,2.1-5.7,3.1-8.2,1.6-4.1,3-7.4,3.9-9.8l1.6-3.7-2.2,3.3c-1.3,2.2-3.3,5.2-5.6,9l-1.1,1.7a115.7,115.7,0,0,1,1.2-16.4c.4-2.7.9-5.2,1.3-7.4l.3-1.6a8.3,8.3,0,0,1,.4-1.5l.6-2.6,1.3-4.9-2,4.7-1,2.5L395,451a8.8,8.8,0,0,1-.5,1.5c-.7,2.2-1.6,4.6-2.4,7.3s-.7,2.8-1.1,4.2-.5,2.2-.8,3.3h0l-.3,1.2a99.5,99.5,0,0,0-1.6,10,25.4,25.4,0,0,0-.4,2.9,19.4,19.4,0,0,0-.2,2.4c-1.2-2.7-2.4-5.3-3.5-7.5s-.9-1.8-1.3-2.6l-1.2-2.3c-.8-1.4-1.5-2.6-2-3.6l-1.9-3.1s.4,1.3,1.2,3.4.8,2.4,1.2,3.9.5,1.5.7,2.4.5,1.7.8,2.7.6,2.3.9,3.6-1.2,4.7-2.9,10.6-4.6,14.8-7.5,23.1c-.6,1.4-1.1,2.9-1.6,4.3-.2-3.5-.3-7.2-.3-11s.5-9.3,1.1-13.6,1.2-8.5,2-12c.4-1.7.8-3.3,1.2-4.7a37.2,37.2,0,0,1,1-3.7l.9-3.2-1.6,2.9c-.5.9-1.1,2-1.7,3.3l-2.2,4.4c-1.6,3.3-3.1,7.2-4.7,11.4a133.1,133.1,0,0,0-4.2,13.5l-.6,2.6c0-.4-.1-.8-.1-1.3-.2-6,0-12.1.3-17.8s.7-11,1.1-15.6a75.6,75.6,0,0,1,1.8-11.5c.4-1.5.8-2.6,1-3.4a8.2,8.2,0,0,0,.4-1.1l-.6,1.1c-.3.7-.9,1.7-1.5,3.1a81.3,81.3,0,0,0-3.7,11.2c-.5,2.2-1.1,4.6-1.8,7.1a97.8,97.8,0,0,0-2.8-13,78.9,78.9,0,0,0-3.6-9.9c-.5-1.2-1-2-1.3-2.7l-.4-.9.2,1c.2.7.5,1.6.8,2.8a69.4,69.4,0,0,1,1.7,10.1,86.8,86.8,0,0,1,.4,14.7c-.2,2.7-.4,5.5-.8,8.3a85.5,85.5,0,0,1-1.4,8.6,193.8,193.8,0,0,1-5.3,20.3c-.3-5-.4-10.2-.5-15.5s0-12.9.2-18.9.4-11.8.7-16.6c.2-2.4.3-4.7.5-6.6s.2-3.7.4-5.2.4-4.4.4-4.4l-1.1,4.3c-.4,1.4-.8,3-1.3,5s-.9,4-1.5,6.4c-1.1,4.8-2.2,10.3-3.4,16.3l-1.2,6.2c-2-24.5-3-46.7-3-46.7s-2.9,28-4.5,56.2l-.6,9.2a2,2,0,0,1-3.9.1c-.5-4.5-.9-9.1-1.3-13.7-.7-8.5-1.3-17.1-1.7-24.9l1.9-4.5c.9-2.4,1.5-3.7,1.5-3.7l-2.1,3.3-1.4,2.1c-.2-3.7-.3-7.2-.4-10.4-.2-5.2-.2-9.6-.3-12.7v-4.8s-.3,1.8-.7,4.8-1,7.3-1.6,12.5-1.4,11.8-2,18.7c-2,3.2-4.2,6.9-6.4,10.8a111.7,111.7,0,0,0-4.8-10.7c-.5-.9-.9-1.8-1.3-2.6l-1.2-2.3-2-3.6-1.9-3.1s.5,1.3,1.2,3.4.8,2.4,1.2,3.9.5,1.5.8,2.4.4,1.7.7,2.7,1.1,4.3,1.6,6.7-1.2,4.4-2.1,7.5c-1.8,6.4-4.5,14.8-7.5,23.1l-1.6,4.3c-.2-3.5-.3-7.2-.2-11s.5-9.3,1-13.6,1.3-8.5,2.1-12a46.8,46.8,0,0,1,1.1-4.7c.4-1.5.7-2.7,1-3.7l1-3.2-1.6,2.9c-.6.9-1.1,2-1.8,3.3l-2.2,4.4c-1.5,3.3-3.1,7.2-4.7,11.4s-3,8.9-4.2,13.5l-.6,2.6v-1.3a175.2,175.2,0,0,1,.2-17.8c.4-5.7.7-11,1.1-15.6a63.6,63.6,0,0,1,1.9-11.5,20.8,20.8,0,0,1,1-3.4,7,7,0,0,1,.4-1.1l-.6,1.1a30.9,30.9,0,0,0-1.5,3.1,79.8,79.8,0,0,0-3.8,11.2c-.5,2.2-1.1,4.6-1.7,7.1a97.8,97.8,0,0,0-2.8-13,76.7,76.7,0,0,0-3.7-9.9c-.5-1.2-1-2-1.2-2.7l-.5-.9.3,1c.1.7.4,1.6.7,2.8a83.4,83.4,0,0,1,1.8,10.1,99.6,99.6,0,0,1,.3,14.7c-.1,2.7-.4,5.5-.7,8.3s-.9,5.7-1.4,8.6a193.7,193.7,0,0,1-5.4,20.3c-.2-5-.4-10.2-.4-15.5s-.1-12.9.1-18.9.4-11.8.7-16.6c.2-2.4.3-4.7.5-6.6s.3-3.7.4-5.2.4-4.4.4-4.4l-1.1,4.3c-.4,1.4-.8,3-1.2,5s-1,4-1.5,6.4c-1.1,4.8-2.3,10.3-3.5,16.3s-2.2,12.4-3.2,18.8c-.4,2.5-.8,5.1-1.1,7.6-.9-3.7-1.7-7.4-2.3-11.1a115.9,115.9,0,0,1-2-15.4c1.1-2.9,2.2-5.7,3.1-8.2,1.6-4.1,3-7.4,4-9.8l1.5-3.7-2.1,3.3c-1.4,2.2-3.4,5.2-5.7,9l-1,1.7a116.5,116.5,0,0,1,1.1-16.4c.5-2.7.9-5.2,1.3-7.4l.3-1.6a8.3,8.3,0,0,0,.4-1.5c.2-.9.5-1.8.7-2.6.7-3.1,1.2-4.9,1.2-4.9l-1.9,4.7c-.3.7-.7,1.6-1,2.5l-.6,1.4a8.8,8.8,0,0,0-.5,1.5c-.8,2.2-1.6,4.6-2.4,7.3s-.8,2.8-1.1,4.2l-.9,3.3h0a5,5,0,0,0-.2,1.2,99.1,99.1,0,0,0-1.7,10c-.1.9-.2,1.9-.4,2.9s-.1,1.6-.2,2.4c-1.2-2.7-2.3-5.3-3.5-7.5s-.9-1.8-1.3-2.6l-1.2-2.3c-.7-1.4-1.4-2.6-2-3.6s-1.8-3.1-1.8-3.1l1.1,3.4,1.3,3.9c.2.7.4,1.5.7,2.4s.5,1.7.7,2.7.6,2.3.9,3.6-1.2,4.7-2.9,10.6-4.5,14.8-7.5,23.1c-.5,1.4-1,2.9-1.6,4.3-.2-3.5-.3-7.2-.2-11s.5-9.3,1-13.6,1.3-8.5,2.1-12c.4-1.7.8-3.3,1.1-4.7s.7-2.7,1-3.7l1-3.2-1.6,2.9-1.8,3.3c-.7,1.3-1.4,2.8-2.1,4.4-1.6,3.3-3.2,7.2-4.8,11.4s-2.9,8.9-4.2,13.5l-.6,2.6v-1.3a175.2,175.2,0,0,1,.2-17.8c.4-5.7.7-11,1.1-15.6a63.6,63.6,0,0,1,1.9-11.5,20.8,20.8,0,0,1,1-3.4,7,7,0,0,1,.4-1.1l-.6,1.1a30.9,30.9,0,0,0-1.5,3.1,69.6,69.6,0,0,0-3.7,11.2c-.6,2.2-1.2,4.6-1.8,7.1a97.8,97.8,0,0,0-2.8-13,76.7,76.7,0,0,0-3.7-9.9l-1.2-2.7-.5-.9.3,1a22.6,22.6,0,0,1,.7,2.8,83.4,83.4,0,0,1,1.8,10.1,99.6,99.6,0,0,1,.3,14.7c-.1,2.7-.4,5.5-.7,8.3s-.9,5.7-1.4,8.6a193.7,193.7,0,0,1-5.4,20.3c-.2-5-.4-10.2-.4-15.5s0-12.9.1-18.9.4-11.8.8-16.6c.1-2.4.3-4.7.4-6.6s.3-3.7.4-5.2.4-4.4.4-4.4l-1.1,4.3c-.3,1.4-.8,3-1.2,5s-1,4-1.5,6.4c-1.1,4.8-2.3,10.3-3.5,16.3-.3,2-.7,4.1-1.1,6.2-2-24.5-3.1-46.7-3.1-46.7s-1.9,47.2-5.7,55.9c-.8,1.7-2.3,3-3.9,2.1a.1.1,0,0,0-.1-.1c-3.2-4.5-2.1-27.5-2.5-36.7l1.1-2.5-1.1,1.7c-.1-2.4-.2-4.6-.2-6.7-.2-5.2-.3-9.6-.3-12.7s-.1-4.8-.1-4.8-.2,1.8-.7,4.8-1,7.3-1.6,12.5-1,8.8-1.5,13.8l-2.3,3.7c-1.7,2.8-3.6,5.9-5.6,9.4-1.3-3-2.5-5.7-3.8-8.1l-1.2-2.6-1.3-2.3c-.7-1.4-1.4-2.6-2-3.6s-1.8-3.1-1.8-3.1l1.1,3.4,1.3,3.9c.2.7.4,1.5.7,2.4s.5,1.7.7,2.7c1.1,3.8,2,8.3,2.9,13.2l-3.7,7.1c.2-2,.3-3.8.3-5.5.2-3.4.3-6.2.3-8.2s.1-3.1.1-3.1-1.1,4.3-2.9,10.7-4.5,14.8-7.5,23.1l-1.6,4.3c-.2-3.5-.3-7.2-.2-11a119.1,119.1,0,0,1,1-13.6,109.6,109.6,0,0,1,2.1-12,46.8,46.8,0,0,1,1.1-4.7c.4-1.5.7-2.7,1-3.7s.9-3.2.9-3.2l-1.6,2.9c-.5.9-1.1,2-1.7,3.3s-1.4,2.8-2.2,4.4c-1.5,3.3-3.1,7.2-4.7,11.4a133.1,133.1,0,0,0-4.2,13.5l-.6,2.6a6.2,6.2,0,0,0-.1-1.3c-.2-6,0-12.1.3-17.8s.7-11,1.1-15.6a75.6,75.6,0,0,1,1.8-11.5c.4-1.5.8-2.6,1-3.4l.5-1.1a3.3,3.3,0,0,0-.6,1.1,18,18,0,0,0-1.5,3.1,68.6,68.6,0,0,0-3.8,11.2c-.5,2.2-1.1,4.6-1.8,7.1a118,118,0,0,0-2.7-13,95.3,95.3,0,0,0-3.7-9.9c-.5-1.2-1-2-1.3-2.7l-.4-.9.3,1c.1.7.4,1.6.7,2.8a83.4,83.4,0,0,1,1.8,10.1,99.6,99.6,0,0,1,.3,14.7,80.2,80.2,0,0,1-.8,8.3,85.5,85.5,0,0,1-1.4,8.6,171.9,171.9,0,0,1-5.3,20.3c-.3-5-.4-10.2-.5-15.5s0-12.9.2-18.9.4-11.8.7-16.6c.2-2.4.3-4.7.5-6.6s.3-3.7.4-5.2.4-4.4.4-4.4l-1.1,4.3c-.4,1.4-.8,3-1.2,5l-1.6,6.4c-1.1,4.8-2.2,10.3-3.4,16.3s-2.2,12.4-3.2,18.8c-.4,2.5-.8,5.1-1.1,7.6q-1.3-5.5-2.4-11.1a115.6,115.6,0,0,1-1.9-15.4c1.1-2.9,2.1-5.7,3.1-8.2,1.6-4.1,3-7.4,4-9.8s1.5-3.7,1.5-3.7l-2.2,3.3c-1.3,2.2-3.3,5.2-5.6,9l-1,1.7a116.5,116.5,0,0,1,1.1-16.4c.4-2.7.9-5.2,1.3-7.4l.3-1.6c.1-.5.3-1,.4-1.5l.6-2.6,1.3-4.9-2,4.7-1,2.5-.6,1.4a8.8,8.8,0,0,1-.5,1.5l-2.4,7.3c-.3,1.3-.7,2.8-1.1,4.2s-.5,2.2-.8,3.3h0l-.3,1.2c-.5,3.2-1.3,6.5-1.6,10l-.4,2.9a19.4,19.4,0,0,0-.2,2.4c-1.2-2.7-2.4-5.3-3.5-7.5s-.9-1.8-1.3-2.6l-1.2-2.3-2-3.6-1.9-3.1s.5,1.3,1.2,3.4.8,2.4,1.2,3.9.5,1.5.8,2.4.4,1.7.7,2.7.6,2.3.9,3.6-1.2,4.7-2.9,10.6-4.5,14.8-7.5,23.1l-1.6,4.3c-.2-3.5-.3-7.2-.2-11a119.1,119.1,0,0,1,1-13.6c.6-4.4,1.3-8.5,2.1-12a46.8,46.8,0,0,1,1.1-4.7c.4-1.5.7-2.7,1-3.7l1-3.2-1.6,2.9a24.5,24.5,0,0,0-1.8,3.3l-2.2,4.4c-1.5,3.3-3.1,7.2-4.7,11.4s-3,8.9-4.2,13.5l-.6,2.6a6.2,6.2,0,0,0-.1-1.3c-.2-6,0-12.1.3-17.8s.7-11,1.1-15.6a75.6,75.6,0,0,1,1.8-11.5c.4-1.5.8-2.6,1-3.4l.5-1.1-.6,1.1a30.9,30.9,0,0,0-1.5,3.1,79.8,79.8,0,0,0-3.8,11.2c-.5,2.2-1.1,4.6-1.8,7.1a118,118,0,0,0-2.7-13,95.3,95.3,0,0,0-3.7-9.9c-.5-1.2-1-2-1.3-2.7l-.4-.9.3,1c.1.7.4,1.6.7,2.8a83.4,83.4,0,0,1,1.8,10.1,99.6,99.6,0,0,1,.3,14.7,80.2,80.2,0,0,1-.8,8.3,85.5,85.5,0,0,1-1.4,8.6,171.9,171.9,0,0,1-5.3,20.3c-.2-5-.4-10.2-.5-15.5s0-12.9.2-18.9.4-11.8.7-16.6c.2-2.4.3-4.7.5-6.6s.3-3.7.4-5.2.4-4.4.4-4.4L70,456.9c-.4,1.4-.8,3-1.2,5l-1.6,6.4c-1.1,4.8-2.2,10.3-3.4,16.3-.4,2-.8,4.1-1.1,6.2-2.1-24.5-3.1-46.7-3.1-46.7s-2.9,28-4.5,56.2c-.8,11.8-1.3,23.6-1.7,33.3-1.4-10.2-3-23.9-4.1-37.7-.7-8.5-1.3-17.1-1.6-24.9l1.8-4.5,1.5-3.7-2.1,3.3-1.4,2.1c-.2-3.7-.3-7.2-.4-10.4-.1-5.2-.2-9.6-.3-12.7v-4.8s-.3,1.8-.7,4.8-1,7.3-1.6,12.5-1.4,11.8-2,18.7c-2,3.2-4.1,6.9-6.4,10.8a111.7,111.7,0,0,0-4.8-10.7L30,473.8l-1.2-2.3c-.7-1.4-1.4-2.6-2-3.6s-1.8-3.1-1.8-3.1l1.1,3.4q.6,1.7,1.2,3.9c.3.7.5,1.5.8,2.4s.4,1.7.7,2.7,1.1,4.3,1.6,6.7-1.2,4.4-2.1,7.5c-1.8,6.4-4.5,14.8-7.5,23.1-.5,1.4-1,2.9-1.6,4.3-.2-3.5-.3-7.2-.2-11s.5-9.3,1-13.6,1.3-8.5,2.1-12c.4-1.7.8-3.3,1.1-4.7s.7-2.7,1-3.7l1-3.2-1.6,2.9-1.8,3.3c-.7,1.3-1.4,2.8-2.1,4.4-1.6,3.3-3.2,7.2-4.8,11.4s-2.9,8.9-4.2,13.5l-.6,2.6v-1.3a175.2,175.2,0,0,1,.2-17.8c.4-5.7.8-11,1.1-15.6a63.6,63.6,0,0,1,1.9-11.5,20.8,20.8,0,0,1,1-3.4,8.2,8.2,0,0,0,.4-1.1l-.6,1.1a30.9,30.9,0,0,0-1.5,3.1,69.6,69.6,0,0,0-3.7,11.2c-.6,2.2-1.2,4.6-1.8,7.1a97.8,97.8,0,0,0-2.8-13,76.7,76.7,0,0,0-3.7-9.9l-1.2-2.7-.5-.9.3,1a22.6,22.6,0,0,1,.7,2.8,83.4,83.4,0,0,1,1.8,10.1A99.6,99.6,0,0,1,2,482.6c-.1,2.7-.4,5.5-.7,8.3s-.9,5.7-1.4,8.6a193.7,193.7,0,0,1-5.4,20.3c-.2-5-.4-10.2-.4-15.5s0-12.9.1-18.9.4-11.8.8-16.6c.1-2.4.3-4.7.4-6.6s.3-3.7.4-5.2.4-4.4.4-4.4l-1.1,4.3c-.3,1.4-.7,3-1.2,5s-1,4-1.5,6.4c-1.1,4.8-2.3,10.3-3.4,16.3s-2.3,12.4-3.3,18.8c-.4,2.5-.7,5.1-1.1,7.6-.8-3.7-1.7-7.4-2.3-11.1a135.2,135.2,0,0,1-2-15.4l3.2-8.2c1.6-4.1,2.9-7.4,3.9-9.8l1.5-3.7-2.1,3.3c-1.4,2.2-3.3,5.2-5.6,9-.4.5-.7,1.1-1.1,1.7a116.5,116.5,0,0,1,1.1-16.4l1.4-7.4.3-1.6.3-1.5c.3-.9.5-1.8.7-2.6.8-3.1,1.2-4.9,1.2-4.9l-1.9,4.7c-.3.7-.7,1.6-1,2.5l-.6,1.4a8.8,8.8,0,0,0-.5,1.5c-.7,2.2-1.6,4.6-2.4,7.3s-.7,2.8-1.1,4.2l-.9,3.3h0c-.1.4-.1.8-.2,1.2-.6,3.2-1.3,6.5-1.7,10l-.3,2.9-.3,2.4c-1.2-2.7-2.3-5.3-3.5-7.5l-1.2-2.6-1.3-2.3c-.7-1.4-1.4-2.6-2-3.6l-1.8-3.1,1.1,3.4,1.3,3.9c.2.7.4,1.5.7,2.4s.5,1.7.7,2.7.6,2.3.9,3.6-1.2,4.7-2.9,10.6-4.5,14.8-7.5,23.1c-.5,1.4-1,2.9-1.6,4.3-.2-3.5-.3-7.2-.2-11s.5-9.3,1-13.6,1.3-8.5,2.1-12c.4-1.7.8-3.3,1.1-4.7s.7-2.7,1-3.7l1-3.2-1.6,2.9-1.8,3.3c-.6,1.3-1.4,2.8-2.1,4.4-1.6,3.3-3.2,7.2-4.8,11.4s-2.9,8.9-4.1,13.5a12.2,12.2,0,0,0-.6,2.6,5.3,5.3,0,0,1-.1-1.3,150,150,0,0,1,.3-17.8c.3-5.7.7-11,1-15.6a63.6,63.6,0,0,1,1.9-11.5,20.8,20.8,0,0,1,1-3.4,8.2,8.2,0,0,0,.4-1.1l-.6,1.1a30.9,30.9,0,0,0-1.5,3.1,81.3,81.3,0,0,0-3.7,11.2c-.6,2.2-1.2,4.6-1.8,7.1a97.8,97.8,0,0,0-2.8-13,76.7,76.7,0,0,0-3.7-9.9l-1.2-2.7-.5-.9.3,1a22.6,22.6,0,0,1,.7,2.8,56.6,56.6,0,0,1,1.8,10.1,87.5,87.5,0,0,1,.3,14.7c-.1,2.7-.4,5.5-.7,8.3s-.9,5.7-1.4,8.6a193.7,193.7,0,0,1-5.4,20.3c-.2-5-.4-10.2-.4-15.5s0-12.9.1-18.9.5-11.8.8-16.6c.1-2.4.3-4.7.4-6.6s.3-3.7.4-5.2.4-4.4.4-4.4l-1.1,4.3c-.3,1.4-.7,3-1.2,5s-1,4-1.5,6.4c-1.1,4.8-2.3,10.3-3.4,16.3l-1.2,6.2c-2-24.5-3.1-46.7-3.1-46.7s-2.8,28-4.5,56.2c-.1,2.7-.3,5.3-.4,8s-4,2.6-4.2.1l-1.2-12.5c-1.1-13.8-1.8-27.7-2.1-38.1-.2-5.2-.3-9.6-.3-12.7s-.1-4.8-.1-4.8-.2,1.8-.6,4.8-1,7.3-1.7,12.5c-1.2,10.3-2.6,24.2-3.6,38.1-.1,1.4-.2,2.7-.2,4.1-1.2-3.8-2.5-7.5-3.8-10.9a127.1,127.1,0,0,0-5.6-12.5l-1.2-2.6a12.7,12.7,0,0,1-1.2-2.3l-2.1-3.6-1.8-3.1s.4,1.3,1.2,3.4.7,2.4,1.2,3.9.5,1.5.7,2.4.5,1.7.7,2.7c1.1,3.7,2,8.1,2.9,12.8s1.4,9.9,1.8,15,.5,10.2.4,15,0,43,0,43h682s0-34.5.6-39.7a149.5,149.5,0,0,1,3.2-16.5c1.5-5.6,3.2-11.2,5-16.4s3.6-10,5.2-14.1,3-7.4,4-9.8,1.5-3.7,1.5-3.7ZM-31.5,497.5c.1-2,.2-3.8.3-5.5.1-3.4.2-6.2.3-8.2s.1-2.6.1-3c.6,2.9,1.3,6,1.9,9.2l.3,1.9C-29.6,493.7-30.6,495.6-31.5,497.5Zm62.1,0c.1-2,.2-3.8.3-5.5s.1-3.5.2-4.9a29.3,29.3,0,0,1,.5,2.9c.3,1.4.5,2.8.7,4.2A34.1,34.1,0,0,0,30.6,497.5Zm10.3-1.8-.3,4.1c-.5-1.7-1.1-3.5-1.7-5.1s1-2.9,1.4-4.3l1.2-3.3Zm64.5,1.8c.2-2,.3-3.8.3-5.5.2-3.4.3-6.2.3-8.2s.1-2.6.1-3c.7,2.9,1.3,6,1.9,9.2l.3,1.9Zm75-1.8-.3,4.1c-.9-3.1-1.9-6-3-8.9.1-.1.1-.3.2-.5,1.6-4.4,3.1-8.6,4.5-12.3C181.3,483.7,180.8,489.7,180.4,495.7Zm64.6,1.8c.1-2,.2-3.8.3-5.5.1-3.4.2-6.2.3-8.2v-3c.7,2.9,1.3,6,1.9,9.2a14.8,14.8,0,0,1,.3,1.9Zm62.1,0c.1-2,.2-3.8.3-5.5s.1-3.5.2-4.9c.2,1,.3,1.9.5,2.9s.5,2.8.7,4.2A34.1,34.1,0,0,0,307.1,497.5Zm10.3-1.8-.3,4.1c-.5-1.7-1.1-3.5-1.7-5.1s.9-2.9,1.4-4.3l1.2-3.3Zm64.5,1.8c.1-2,.2-3.8.3-5.5.2-3.4.3-6.2.3-8.2s.1-2.6.1-3c.7,2.9,1.3,6,1.9,9.2l.3,1.9C383.8,493.7,382.9,495.6,381.9,497.5Zm72.7-6.6a85.5,85.5,0,0,1-1.4,8.6,221,221,0,0,1-8.1,28.7c.1-1.6.3-3.2.5-4.9a129.4,129.4,0,0,1,3.2-16.5c1.4-5.6,3.2-11.2,5-16.4l1.3-3.7C455,488.1,454.8,489.5,454.6,490.9Zm61.2,6.6c.2-2,.3-3.8.3-5.5.2-3.4.3-6.2.4-8.2v-3c.7,2.9,1.3,6,1.9,9.2l.3,1.9Z"/><path class="cls-2" d="M115.1,517.8c0,.4,0,1.4-.1,3s-.1,4.8-.3,8.2c0,1.7-.1,3.5-.3,5.5l2.9-5.6L117,527C116.4,523.8,115.8,520.7,115.1,517.8Z"/><path class="cls-2" d="M186.1,527.9c1.1,2.9,2.1,5.8,3,8.9l.3-4.1c.4-6,.9-12,1.4-17.6-1.4,3.7-2.9,7.9-4.5,12.3C186.2,527.6,186.2,527.8,186.1,527.9Z"/><path class="cls-2" d="M47.9,531.7c.6,1.6,1.2,3.4,1.7,5.1l.3-4.1.6-8.6-1.2,3.3C48.9,528.8,48.4,530.2,47.9,531.7Z"/><path class="cls-2" d="M254.6,517.8v3c-.1,2-.2,4.8-.3,8.2-.1,1.7-.2,3.5-.3,5.5.9-1.9,1.9-3.8,2.8-5.6a14.8,14.8,0,0,0-.3-1.9C255.9,523.8,255.3,520.7,254.6,517.8Z"/><path class="cls-2" d="M40.1,524.1c-.1,1.4-.1,3.1-.2,4.9s-.2,3.5-.3,5.5a34.1,34.1,0,0,1,1.7-3.3c-.2-1.4-.4-2.8-.7-4.2A29.3,29.3,0,0,0,40.1,524.1Z"/><path class="cls-2" d="M457.8,543.8a129.4,129.4,0,0,0-3.2,16.5c-.2,1.7-.4,3.3-.5,4.9a221,221,0,0,0,8.1-28.7,85.5,85.5,0,0,0,1.4-8.6c.2-1.4.4-2.8.5-4.2l-1.3,3.7C461,532.6,459.2,538.2,457.8,543.8Z"/><path class="cls-2" d="M525.5,517.8v3c-.1,2-.2,4.8-.4,8.2,0,1.7-.1,3.5-.3,5.5l2.9-5.6-.3-1.9C526.8,523.8,526.2,520.7,525.5,517.8Z"/><path class="cls-2" d="M316.6,524.1c-.1,1.4-.2,3.1-.2,4.9s-.2,3.5-.3,5.5a34.1,34.1,0,0,1,1.7-3.3c-.2-1.4-.4-2.8-.7-4.2S316.8,525.1,316.6,524.1Z"/><path class="cls-2" d="M324.4,531.7c.6,1.6,1.2,3.4,1.7,5.1l.3-4.1.6-8.6-1.2,3.3C325.3,528.8,324.9,530.2,324.4,531.7Z"/><path class="cls-2" d="M391.6,517.8c0,.4,0,1.4-.1,3s-.1,4.8-.3,8.2c-.1,1.7-.2,3.5-.3,5.5,1-1.9,1.9-3.8,2.9-5.6l-.3-1.9C392.9,523.8,392.3,520.7,391.6,517.8Z"/><path class="cls-2" d="M605.2,503.1c-1.3,2.2-3.3,5.2-5.6,9s-4.9,8.1-7.7,13c-1.6,2.9-3.3,6.1-5,9.4.2-2,.3-3.8.3-5.5.2-3.4.3-6.2.4-8.2v-3.1s-1.1,4.3-2.9,10.7-4.5,14.8-7.5,23.1l-1.6,4.3c-.2-3.5-.3-7.2-.2-11a119.1,119.1,0,0,1,1-13.6c.6-4.4,1.3-8.5,2.1-12a46.8,46.8,0,0,1,1.1-4.7c.4-1.5.7-2.7,1-3.7l1-3.2-1.6,2.9a24.5,24.5,0,0,0-1.8,3.3c-.7,1.3-1.4,2.8-2.2,4.4-1.5,3.3-3.1,7.2-4.7,11.4s-3,8.9-4.2,13.5l-.6,2.6v-1.3a175.2,175.2,0,0,1,.2-17.8c.4-5.7.7-11,1.1-15.6a75.6,75.6,0,0,1,1.8-11.5c.4-1.5.8-2.6,1-3.4l.5-1.1-.6,1.1a30.9,30.9,0,0,0-1.5,3.1,79.8,79.8,0,0,0-3.8,11.2c-.5,2.2-1.1,4.6-1.8,7.1a98.6,98.6,0,0,0-2.7-13,76.7,76.7,0,0,0-3.7-9.9c-.5-1.2-1-2-1.3-2.7l-.4-.9.3,1c.1.7.4,1.6.7,2.8a83.4,83.4,0,0,1,1.8,10.1,99.6,99.6,0,0,1,.3,14.7c-.1,2.7-.4,5.5-.7,8.3s-.9,5.7-1.4,8.6a193.7,193.7,0,0,1-5.4,20.3c-.2-5-.4-10.2-.5-15.5s0-12.9.2-18.9.4-11.8.7-16.6c.2-2.4.3-4.7.5-6.6s.3-3.7.4-5.2.4-4.4.4-4.4l-1.1,4.3c-.4,1.4-.8,3-1.2,5s-1,4-1.6,6.4c-1.1,4.8-2.2,10.3-3.4,16.3s-2.2,12.4-3.2,18.8c-.4,2.5-.8,5.1-1.1,7.6q-1.3-5.6-2.4-11.1a115.6,115.6,0,0,1-1.9-15.4c1.1-2.9,2.1-5.7,3.1-8.2,1.6-4.1,3-7.4,4-9.8s1.5-3.7,1.5-3.7l-2.2,3.3c-1.3,2.2-3.3,5.2-5.6,9l-1,1.7a116.5,116.5,0,0,1,1.1-16.4c.4-2.7.9-5.2,1.3-7.4l.3-1.6c.1-.5.3-1,.4-1.5l.6-2.6,1.3-4.9-1.9,4.7c-.4.7-.7,1.6-1.1,2.5a12.1,12.1,0,0,1-.5,1.4l-.6,1.5c-.7,2.2-1.5,4.6-2.3,7.3s-.8,2.8-1.1,4.2l-.9,3.3h0a5,5,0,0,0-.2,1.2,99.1,99.1,0,0,0-1.7,10c-.1,1-.3,1.9-.4,2.9s-.1,1.6-.2,2.4c-1.2-2.7-2.4-5.3-3.5-7.5s-.9-1.8-1.3-2.6l-1.2-2.3-2-3.6c-1.2-1.9-1.8-3.1-1.8-3.1l1.1,3.4q.6,1.7,1.2,3.9c.3.7.5,1.5.8,2.4s.4,1.7.7,2.7.6,2.3.9,3.6-1.2,4.7-2.9,10.6-4.5,14.8-7.5,23.1l-1.6,4.3c-.2-3.5-.3-7.2-.2-11s.5-9.3,1-13.6,1.3-8.5,2.1-12a46.8,46.8,0,0,1,1.1-4.7c.4-1.5.7-2.7,1-3.7l1-3.2-1.6,2.9c-.6.9-1.1,2-1.8,3.3s-1.4,2.8-2.2,4.4c-1.5,3.3-3.1,7.2-4.7,11.4s-3,8.9-4.2,13.5l-.6,2.6v-1.3a175.2,175.2,0,0,1,.2-17.8c.1-1.9.3-3.7.4-5.5s2-5.4,2.9-7.8c1.6-4.1,3-7.4,4-9.8l1.5-3.7-2.2,3.3c-1.3,2.2-3.3,5.2-5.6,8.9a65.3,65.3,0,0,1,2-12.5c.3-1.5.7-2.6.9-3.4l.5-1.1-.6,1.1a30.9,30.9,0,0,0-1.5,3.1,79.8,79.8,0,0,0-3.8,11.2c-.5,2.2-1.1,4.7-1.8,7.2l-.6,2.7-2.8,4.8c-1.6,2.9-3.3,6.1-5,9.4.1-2,.2-3.8.3-5.5.2-3.4.3-6.2.3-8.2s.1-3.1.1-3.1-1.1,4.3-2.9,10.7-4.6,14.8-7.5,23.1c-.6,1.4-1.1,2.9-1.6,4.3-.2-3.5-.3-7.2-.2-11a119.1,119.1,0,0,1,1-13.6,109.6,109.6,0,0,1,2.1-12,46.8,46.8,0,0,1,1.1-4.7c.4-1.5.7-2.7,1-3.7l.9-3.2-1.6,2.9c-.5.9-1.1,2-1.7,3.3l-2.2,4.4c-1.5,3.3-3.1,7.2-4.7,11.4a133.1,133.1,0,0,0-4.2,13.5l-.6,2.6a6.2,6.2,0,0,0-.1-1.3c-.2-6,0-12.1.3-17.8s.7-11,1.1-15.6a75.6,75.6,0,0,1,1.8-11.5c.4-1.5.8-2.6,1-3.4l.5-1.1a3.3,3.3,0,0,0-.6,1.1,18,18,0,0,0-1.5,3.1,68.6,68.6,0,0,0-3.8,11.2c-.5,2.2-1.1,4.6-1.8,7.1-.2-1.9-.6-3.7-.9-5.4l3.4-8.6,1.6-3.7-2.2,3.3-3.5,5.6c-.4-1.4-.8-2.8-1.1-4.2a95.3,95.3,0,0,0-3.7-9.9c-.5-1.2-1-2-1.3-2.7l-.4-.9.2,1c.2.7.5,1.6.8,2.8a83.4,83.4,0,0,1,1.8,10.1c.2,2.8.4,5.8.4,9.1-2,3.3-4.2,7-6.5,11.1s-3.3,6.1-5,9.4c.1-2,.2-3.8.3-5.5.2-3.4.3-6.2.3-8.2s.1-3.1.1-3.1-1.1,4.3-2.9,10.7-4.6,14.8-7.5,23.1c-.6,1.4-1.1,2.9-1.6,4.3-.2-3.5-.3-7.2-.3-11s.5-9.3,1.1-13.6a110.9,110.9,0,0,1,2-12c.4-1.7.8-3.3,1.2-4.7a37.2,37.2,0,0,1,1-3.7l.9-3.2-1.6,2.9c-.5.9-1.1,2-1.7,3.3s-1.5,2.8-2.2,4.4c-1.6,3.3-3.1,7.2-4.7,11.4a133.1,133.1,0,0,0-4.2,13.5l-.6,2.6c0-.4-.1-.8-.1-1.3-.2-6,0-12.1.3-17.8s.7-11,1.1-15.6a64.8,64.8,0,0,1,1.8-11.5c.4-1.5.8-2.6,1-3.4a8.2,8.2,0,0,0,.4-1.1l-.6,1.1c-.3.7-.9,1.7-1.5,3.1a81.3,81.3,0,0,0-3.7,11.2c-.6,2.2-1.1,4.6-1.8,7.1a97.8,97.8,0,0,0-2.8-13,78.9,78.9,0,0,0-3.6-9.9c-.5-1.2-1-2-1.3-2.7l-.4-.9s.1.4.2,1,.5,1.6.8,2.8a69.4,69.4,0,0,1,1.7,10.1,86.8,86.8,0,0,1,.4,14.7c-.2,2.7-.4,5.5-.8,8.3a85.5,85.5,0,0,1-1.4,8.6,193.8,193.8,0,0,1-5.3,20.3c-.3-5-.4-10.2-.5-15.5s0-12.9.2-18.9.4-11.8.7-16.6c.1-2.4.3-4.7.5-6.6s.2-3.7.4-5.2.4-4.4.4-4.4l-1.1,4.3c-.4,1.4-.8,3-1.3,5s-1,4-1.5,6.4c-1.1,4.8-2.2,10.3-3.4,16.3s-2.3,12.4-3.3,18.8c-.3,2.5-.7,5.1-1,7.6q-1.4-5.6-2.4-11.1a115.6,115.6,0,0,1-1.9-15.4c1.1-2.9,2.1-5.7,3.1-8.2,1.6-4.1,3-7.4,3.9-9.8l1.6-3.7-2.2,3.3c-1.3,2.2-3.3,5.2-5.6,9l-1.1,1.7a115.7,115.7,0,0,1,1.2-16.4c.4-2.7.9-5.2,1.3-7.4l.3-1.6a8.3,8.3,0,0,1,.4-1.5l.6-2.6,1.3-4.9-2,4.7-1,2.5L404,488a8.8,8.8,0,0,1-.5,1.5c-.7,2.2-1.6,4.6-2.4,7.3s-.7,2.8-1.1,4.2-.5,2.2-.8,3.3h0l-.3,1.2a99.5,99.5,0,0,0-1.6,10,25.4,25.4,0,0,0-.4,2.9,19.4,19.4,0,0,0-.2,2.4c-1.2-2.7-2.4-5.3-3.5-7.5s-.9-1.8-1.3-2.6l-1.2-2.3c-.8-1.4-1.5-2.6-2-3.6l-1.9-3.1s.4,1.3,1.2,3.4.8,2.4,1.2,3.9.5,1.5.7,2.4.5,1.7.8,2.7.6,2.3.9,3.6-1.2,4.7-2.9,10.6-4.6,14.8-7.5,23.1c-.6,1.4-1.1,2.9-1.6,4.3-.2-3.5-.3-7.2-.3-11s.5-9.3,1.1-13.6,1.2-8.5,2-12c.4-1.7.8-3.3,1.2-4.7a37.2,37.2,0,0,1,1-3.7l.9-3.2-1.6,2.9c-.5.9-1.1,2-1.7,3.3l-2.2,4.4c-1.6,3.3-3.1,7.2-4.7,11.4a133.1,133.1,0,0,0-4.2,13.5l-.6,2.6c0-.4-.1-.8-.1-1.3-.2-6,0-12.1.3-17.8s.7-11,1.1-15.6a75.6,75.6,0,0,1,1.8-11.5c.4-1.5.8-2.6,1-3.4a8.2,8.2,0,0,0,.4-1.1l-.6,1.1c-.3.7-.9,1.7-1.5,3.1a81.3,81.3,0,0,0-3.7,11.2c-.5,2.2-1.1,4.6-1.8,7.1a97.8,97.8,0,0,0-2.8-13,78.9,78.9,0,0,0-3.6-9.9c-.5-1.2-1-2-1.3-2.7l-.4-.9.2,1c.2.7.5,1.6.8,2.8a69.4,69.4,0,0,1,1.7,10.1,86.8,86.8,0,0,1,.4,14.7c-.2,2.7-.4,5.5-.8,8.3a85.5,85.5,0,0,1-1.4,8.6,193.8,193.8,0,0,1-5.3,20.3c-.3-5-.4-10.2-.5-15.5s0-12.9.2-18.9.4-11.8.7-16.6c.2-2.4.3-4.7.5-6.6s.2-3.7.4-5.2.4-4.4.4-4.4l-1.1,4.3c-.4,1.4-.8,3-1.3,5s-.9,4-1.5,6.4c-1.1,4.8-2.2,10.3-3.4,16.3l-1.2,6.2c-2-24.5-3-46.7-3-46.7s-2.9,28-4.5,56.2l-.6,9.2a2,2,0,0,1-3.9.1c-.5-4.5-.9-9.1-1.3-13.7-.7-8.5-1.3-17.1-1.7-24.9l1.9-4.5c.9-2.4,1.5-3.7,1.5-3.7l-2.1,3.3-1.4,2.1c-.2-3.7-.3-7.2-.4-10.4-.2-5.2-.2-9.6-.3-12.7v-4.8s-.3,1.8-.7,4.8-1,7.3-1.6,12.5-1.4,11.8-2,18.7c-2,3.2-4.2,6.9-6.4,10.8a111.7,111.7,0,0,0-4.8-10.7c-.5-.9-.9-1.8-1.3-2.6l-1.2-2.3-2-3.6-1.9-3.1s.5,1.3,1.2,3.4.8,2.4,1.2,3.9.5,1.5.8,2.4.4,1.7.7,2.7,1.1,4.3,1.6,6.7-1.2,4.4-2.1,7.5c-1.8,6.4-4.5,14.8-7.5,23.1l-1.6,4.3c-.2-3.5-.3-7.2-.2-11s.5-9.3,1-13.6,1.3-8.5,2.1-12a46.8,46.8,0,0,1,1.1-4.7c.4-1.5.7-2.7,1-3.7l1-3.2-1.6,2.9c-.6.9-1.1,2-1.8,3.3l-2.2,4.4c-1.5,3.3-3.1,7.2-4.7,11.4s-3,8.9-4.2,13.5l-.6,2.6v-1.3a175.2,175.2,0,0,1,.2-17.8c.4-5.7.7-11,1.1-15.6a63.6,63.6,0,0,1,1.9-11.5,20.8,20.8,0,0,1,1-3.4,7,7,0,0,1,.4-1.1l-.6,1.1a30.9,30.9,0,0,0-1.5,3.1,79.8,79.8,0,0,0-3.8,11.2c-.5,2.2-1.1,4.6-1.7,7.1a97.8,97.8,0,0,0-2.8-13,76.7,76.7,0,0,0-3.7-9.9c-.5-1.2-1-2-1.2-2.7l-.5-.9.3,1c.1.7.4,1.6.7,2.8a83.4,83.4,0,0,1,1.8,10.1,99.6,99.6,0,0,1,.3,14.7c-.1,2.7-.4,5.5-.7,8.3s-.9,5.7-1.4,8.6a193.7,193.7,0,0,1-5.4,20.3c-.2-5-.4-10.2-.4-15.5s-.1-12.9.1-18.9.4-11.8.7-16.6c.2-2.4.3-4.7.5-6.6s.3-3.7.4-5.2.4-4.4.4-4.4l-1.1,4.3c-.4,1.4-.8,3-1.2,5s-1,4-1.5,6.4c-1.1,4.8-2.3,10.3-3.5,16.3s-2.2,12.4-3.2,18.8c-.4,2.5-.8,5.1-1.1,7.6-.9-3.7-1.7-7.4-2.3-11.1a115.9,115.9,0,0,1-2-15.4c1.1-2.9,2.2-5.7,3.1-8.2,1.6-4.1,3-7.4,4-9.8l1.5-3.7-2.1,3.3c-1.4,2.2-3.4,5.2-5.7,9l-1,1.7a116.5,116.5,0,0,1,1.1-16.4c.5-2.7.9-5.2,1.3-7.4l.3-1.6a8.3,8.3,0,0,0,.4-1.5c.2-.9.5-1.8.7-2.6.7-3.1,1.2-4.9,1.2-4.9l-1.9,4.7c-.3.7-.7,1.6-1,2.5l-.6,1.4a8.8,8.8,0,0,0-.5,1.5c-.8,2.2-1.6,4.6-2.4,7.3s-.8,2.8-1.1,4.2l-.9,3.3h0a5,5,0,0,0-.2,1.2,99.1,99.1,0,0,0-1.7,10c-.1.9-.2,1.9-.4,2.9s-.1,1.6-.2,2.4c-1.2-2.7-2.3-5.3-3.5-7.5s-.9-1.8-1.3-2.6l-1.2-2.3c-.7-1.4-1.4-2.6-2-3.6s-1.8-3.1-1.8-3.1l1.1,3.4,1.3,3.9c.2.7.4,1.5.7,2.4s.5,1.7.7,2.7.6,2.3.9,3.6-1.2,4.7-2.9,10.6-4.5,14.8-7.5,23.1c-.5,1.4-1,2.9-1.6,4.3-.2-3.5-.3-7.2-.2-11s.5-9.3,1-13.6,1.3-8.5,2.1-12c.4-1.7.8-3.3,1.1-4.7s.7-2.7,1-3.7l1-3.2-1.6,2.9-1.8,3.3c-.7,1.3-1.4,2.8-2.1,4.4-1.6,3.3-3.2,7.2-4.8,11.4s-2.9,8.9-4.2,13.5l-.6,2.6v-1.3a175.2,175.2,0,0,1,.2-17.8c.4-5.7.7-11,1.1-15.6a63.6,63.6,0,0,1,1.9-11.5,20.8,20.8,0,0,1,1-3.4,7,7,0,0,1,.4-1.1l-.6,1.1a30.9,30.9,0,0,0-1.5,3.1,69.6,69.6,0,0,0-3.7,11.2c-.6,2.2-1.2,4.6-1.8,7.1a97.8,97.8,0,0,0-2.8-13,76.7,76.7,0,0,0-3.7-9.9l-1.2-2.7-.5-.9.3,1a22.6,22.6,0,0,1,.7,2.8,83.4,83.4,0,0,1,1.8,10.1,99.6,99.6,0,0,1,.3,14.7c-.1,2.7-.4,5.5-.7,8.3s-.9,5.7-1.4,8.6a193.7,193.7,0,0,1-5.4,20.3c-.2-5-.4-10.2-.4-15.5s0-12.9.1-18.9.4-11.8.8-16.6c.1-2.4.3-4.7.4-6.6s.3-3.7.4-5.2.4-4.4.4-4.4l-1.1,4.3c-.3,1.4-.8,3-1.2,5s-1,4-1.5,6.4c-1.1,4.8-2.3,10.3-3.5,16.3-.3,2-.7,4.1-1.1,6.2-2-24.5-3.1-46.7-3.1-46.7s-1.9,47.2-5.7,55.9c-.8,1.7-2.3,3-3.9,2.1a.1.1,0,0,0-.1-.1c-3.2-4.5-2.1-27.5-2.5-36.7l1.1-2.5-1.1,1.7c-.1-2.4-.2-4.6-.2-6.7-.2-5.2-.3-9.6-.3-12.7s-.1-4.8-.1-4.8-.2,1.8-.7,4.8-1,7.3-1.6,12.5-1,8.8-1.5,13.8l-2.3,3.7c-1.7,2.8-3.6,5.9-5.6,9.4-1.3-3-2.5-5.7-3.8-8.1l-1.2-2.6-1.3-2.3c-.7-1.4-1.4-2.6-2-3.6s-1.8-3.1-1.8-3.1l1.1,3.4,1.3,3.9c.2.7.4,1.5.7,2.4s.5,1.7.7,2.7c1.1,3.8,2,8.3,2.9,13.2l-3.7,7.1c.2-2,.3-3.8.3-5.5.2-3.4.3-6.2.3-8.2s.1-3.1.1-3.1-1.1,4.3-2.9,10.7-4.5,14.8-7.5,23.1l-1.6,4.3c-.2-3.5-.3-7.2-.2-11a119.1,119.1,0,0,1,1-13.6,109.6,109.6,0,0,1,2.1-12,46.8,46.8,0,0,1,1.1-4.7c.4-1.5.7-2.7,1-3.7s.9-3.2.9-3.2l-1.6,2.9c-.5.9-1.1,2-1.7,3.3s-1.4,2.8-2.2,4.4c-1.5,3.3-3.1,7.2-4.7,11.4a133.1,133.1,0,0,0-4.2,13.5l-.6,2.6a6.2,6.2,0,0,0-.1-1.3c-.2-6,0-12.1.3-17.8s.7-11,1.1-15.6a75.6,75.6,0,0,1,1.8-11.5c.4-1.5.8-2.6,1-3.4l.5-1.1a3.3,3.3,0,0,0-.6,1.1,18,18,0,0,0-1.5,3.1,68.6,68.6,0,0,0-3.8,11.2c-.5,2.2-1.1,4.6-1.8,7.1a118,118,0,0,0-2.7-13,95.3,95.3,0,0,0-3.7-9.9c-.5-1.2-1-2-1.3-2.7l-.4-.9.3,1c.1.7.4,1.6.7,2.8a83.4,83.4,0,0,1,1.8,10.1,99.6,99.6,0,0,1,.3,14.7,80.2,80.2,0,0,1-.8,8.3,85.5,85.5,0,0,1-1.4,8.6,171.9,171.9,0,0,1-5.3,20.3c-.3-5-.4-10.2-.5-15.5s0-12.9.2-18.9.4-11.8.7-16.6c.2-2.4.3-4.7.5-6.6s.3-3.7.4-5.2.4-4.4.4-4.4l-1.1,4.3c-.4,1.4-.8,3-1.2,5l-1.6,6.4c-1.1,4.8-2.2,10.3-3.4,16.3s-2.2,12.4-3.2,18.8c-.4,2.5-.8,5.1-1.1,7.6q-1.3-5.6-2.4-11.1a115.6,115.6,0,0,1-1.9-15.4c1.1-2.9,2.1-5.7,3.1-8.2,1.6-4.1,3-7.4,4-9.8s1.5-3.7,1.5-3.7l-2.2,3.3c-1.3,2.2-3.3,5.2-5.6,9l-1,1.7a116.5,116.5,0,0,1,1.1-16.4c.4-2.7.9-5.2,1.3-7.4l.3-1.6c.1-.5.3-1,.4-1.5l.6-2.6,1.3-4.9-2,4.7-1,2.5-.6,1.4a8.8,8.8,0,0,1-.5,1.5l-2.4,7.3c-.3,1.3-.7,2.8-1.1,4.2s-.5,2.2-.8,3.3h0l-.3,1.2c-.5,3.2-1.3,6.5-1.6,10l-.4,2.9a19.4,19.4,0,0,0-.2,2.4c-1.2-2.7-2.4-5.3-3.5-7.5s-.9-1.8-1.3-2.6l-1.2-2.3-2-3.6-1.9-3.1s.5,1.3,1.2,3.4.8,2.4,1.2,3.9.5,1.5.8,2.4.4,1.7.7,2.7.6,2.3.9,3.6-1.2,4.7-2.9,10.6-4.5,14.8-7.5,23.1l-1.6,4.3c-.2-3.5-.3-7.2-.2-11a119.1,119.1,0,0,1,1-13.6c.6-4.4,1.3-8.5,2.1-12a46.8,46.8,0,0,1,1.1-4.7c.4-1.5.7-2.7,1-3.7l1-3.2-1.6,2.9a24.5,24.5,0,0,0-1.8,3.3l-2.2,4.4c-1.5,3.3-3.1,7.2-4.7,11.4s-3,8.9-4.2,13.5l-.6,2.6a6.2,6.2,0,0,0-.1-1.3c-.2-6,0-12.1.3-17.8s.7-11,1.1-15.6a75.6,75.6,0,0,1,1.8-11.5c.4-1.5.8-2.6,1-3.4l.5-1.1-.6,1.1a30.9,30.9,0,0,0-1.5,3.1,79.8,79.8,0,0,0-3.8,11.2c-.5,2.2-1.1,4.6-1.8,7.1a118,118,0,0,0-2.7-13,95.3,95.3,0,0,0-3.7-9.9c-.5-1.2-1-2-1.3-2.7l-.4-.9.3,1c.1.7.4,1.6.7,2.8a83.4,83.4,0,0,1,1.8,10.1,99.6,99.6,0,0,1,.3,14.7,80.2,80.2,0,0,1-.8,8.3,85.5,85.5,0,0,1-1.4,8.6,171.9,171.9,0,0,1-5.3,20.3c-.2-5-.4-10.2-.5-15.5s0-12.9.2-18.9.4-11.8.7-16.6c.2-2.4.3-4.7.5-6.6s.3-3.7.4-5.2.4-4.4.4-4.4L79,493.9c-.4,1.4-.8,3-1.2,5l-1.6,6.4c-1.1,4.8-2.2,10.3-3.4,16.3-.4,2-.8,4.1-1.1,6.2-2.1-24.5-3.1-46.7-3.1-46.7s-2.9,28-4.5,56.2c-.8,11.8-1.3,23.6-1.7,33.3-1.4-10.2-3-23.9-4.1-37.7-.7-8.5-1.3-17.1-1.6-24.9l1.8-4.5,1.5-3.7-2.1,3.3-1.4,2.1c-.2-3.7-.3-7.2-.4-10.4-.1-5.2-.2-9.6-.3-12.7v-4.8s-.3,1.8-.7,4.8-1,7.3-1.6,12.5-1.4,11.8-2,18.7c-2,3.2-4.1,6.9-6.4,10.8a111.7,111.7,0,0,0-4.8-10.7c-.4-.9-.9-1.8-1.3-2.6l-1.2-2.3c-.7-1.4-1.4-2.6-2-3.6s-1.8-3.1-1.8-3.1l1.1,3.4q.6,1.7,1.2,3.9c.3.7.5,1.5.8,2.4s.4,1.7.7,2.7,1.1,4.3,1.6,6.7-1.2,4.4-2.1,7.5c-1.8,6.4-4.5,14.8-7.5,23.1-.5,1.4-1,2.9-1.6,4.3-.2-3.5-.3-7.2-.2-11s.5-9.3,1-13.6,1.3-8.5,2.1-12c.4-1.7.8-3.3,1.1-4.7s.7-2.7,1-3.7l1-3.2-1.6,2.9-1.8,3.3c-.7,1.3-1.4,2.8-2.1,4.4-1.6,3.3-3.2,7.2-4.8,11.4s-2.9,8.9-4.2,13.5l-.6,2.6v-1.3a175.2,175.2,0,0,1,.2-17.8c.4-5.7.8-11,1.1-15.6a63.6,63.6,0,0,1,1.9-11.5,20.8,20.8,0,0,1,1-3.4,8.2,8.2,0,0,0,.4-1.1l-.6,1.1a30.9,30.9,0,0,0-1.5,3.1,69.6,69.6,0,0,0-3.7,11.2c-.6,2.2-1.2,4.6-1.8,7.1a97.8,97.8,0,0,0-2.8-13,76.7,76.7,0,0,0-3.7-9.9l-1.2-2.7-.5-.9.3,1a22.6,22.6,0,0,1,.7,2.8,83.4,83.4,0,0,1,1.8,10.1,99.6,99.6,0,0,1,.3,14.7c-.1,2.7-.4,5.5-.7,8.3s-.9,5.7-1.4,8.6a193.7,193.7,0,0,1-5.4,20.3c-.2-5-.4-10.2-.4-15.5s0-12.9.1-18.9.4-11.8.8-16.6c.1-2.4.3-4.7.4-6.6s.3-3.7.4-5.2.4-4.4.4-4.4l-1.1,4.3c-.3,1.4-.7,3-1.2,5s-1,4-1.5,6.4C.3,510.1-.9,515.6-2,521.6S-4.3,534-5.3,540.4c-.4,2.5-.7,5.1-1.1,7.6-.8-3.7-1.7-7.4-2.3-11.1a135.2,135.2,0,0,1-2-15.4l3.2-8.2c1.6-4.1,2.9-7.4,3.9-9.8l1.5-3.7-2.1,3.3c-1.4,2.2-3.3,5.2-5.6,9-.4.5-.7,1.1-1.1,1.7a116.5,116.5,0,0,1,1.1-16.4l1.4-7.4.3-1.6.3-1.5c.3-.9.5-1.8.7-2.6.8-3.1,1.2-4.9,1.2-4.9l-1.9,4.7c-.3.7-.7,1.6-1,2.5l-.6,1.4a8.8,8.8,0,0,0-.5,1.5c-.7,2.2-1.6,4.6-2.4,7.3s-.7,2.8-1.1,4.2l-.9,3.3h0c-.1.4-.1.8-.2,1.2-.6,3.2-1.3,6.5-1.7,10l-.3,2.9-.3,2.4c-1.2-2.7-2.3-5.3-3.5-7.5l-1.2-2.6-1.3-2.3c-.7-1.4-1.4-2.6-2-3.6l-1.8-3.1,1.1,3.4,1.3,3.9c.2.7.4,1.5.7,2.4s.5,1.7.7,2.7.6,2.3.9,3.6-1.2,4.7-2.9,10.6-4.5,14.8-7.5,23.1c-.5,1.4-1,2.9-1.6,4.3-.2-3.5-.3-7.2-.2-11s.5-9.3,1-13.6,1.3-8.5,2.1-12c.4-1.7.8-3.3,1.1-4.7s.7-2.7,1-3.7l1-3.2-1.6,2.9-1.8,3.3c-.6,1.3-1.4,2.8-2.1,4.4-1.6,3.3-3.2,7.2-4.8,11.4s-2.9,8.9-4.1,13.5a12.2,12.2,0,0,0-.6,2.6,5.3,5.3,0,0,1-.1-1.3,150,150,0,0,1,.3-17.8c.3-5.7.7-11,1-15.6a63.6,63.6,0,0,1,1.9-11.5,20.8,20.8,0,0,1,1-3.4,8.2,8.2,0,0,0,.4-1.1l-.6,1.1a30.9,30.9,0,0,0-1.5,3.1,81.3,81.3,0,0,0-3.7,11.2c-.6,2.2-1.2,4.6-1.8,7.1a97.8,97.8,0,0,0-2.8-13,76.7,76.7,0,0,0-3.7-9.9l-1.2-2.7-.5-.9.3,1a22.6,22.6,0,0,1,.7,2.8,56.6,56.6,0,0,1,1.8,10.1,87.5,87.5,0,0,1,.3,14.7c-.1,2.7-.4,5.5-.7,8.3s-.9,5.7-1.4,8.6a193.7,193.7,0,0,1-5.4,20.3c-.2-5-.4-10.2-.4-15.5s0-12.9.1-18.9.5-11.8.8-16.6c.1-2.4.3-4.7.4-6.6s.3-3.7.4-5.2.4-4.4.4-4.4l-1.1,4.3c-.3,1.4-.7,3-1.2,5s-1,4-1.5,6.4c-1.1,4.8-2.3,10.3-3.4,16.3l-1.2,6.2c-2-24.5-3.1-46.7-3.1-46.7s-2.8,28-4.5,56.2c-.1,2.7-.3,5.3-.4,8s-4,2.6-4.2.1l-1.2-12.5c-1.1-13.8-1.8-27.7-2.1-38.1-.2-5.2-.3-9.6-.3-12.7s-.1-4.8-.1-4.8-.2,1.8-.6,4.8-1,7.3-1.7,12.5c-1.2,10.3-2.6,24.2-3.6,38.1-.1,1.4-.2,2.7-.2,4.1-1.2-3.8-2.5-7.5-3.8-10.9a127.1,127.1,0,0,0-5.6-12.5l-1.2-2.6a12.7,12.7,0,0,1-1.2-2.3l-2.1-3.6-1.8-3.1s.4,1.3,1.2,3.4.7,2.4,1.2,3.9.5,1.5.7,2.4.5,1.7.7,2.7c1.1,3.7,2,8.1,2.9,12.8s1.4,9.9,1.8,15,.5,10.2.4,15,0,43,0,43h682s0-34.5.6-39.7a149.5,149.5,0,0,1,3.2-16.5c1.5-5.6,3.2-11.2,5-16.4s3.6-10,5.2-14.1,3-7.4,4-9.8,1.5-3.7,1.5-3.7ZM-22.5,534.5c.1-2,.2-3.8.3-5.5.1-3.4.2-6.2.3-8.2s.1-2.6.1-3c.6,2.9,1.3,6,1.9,9.2l.3,1.9C-20.6,530.7-21.6,532.6-22.5,534.5Zm62.1,0c.1-2,.2-3.8.3-5.5s.1-3.5.2-4.9a29.3,29.3,0,0,1,.5,2.9c.3,1.4.5,2.8.7,4.2A34.1,34.1,0,0,0,39.6,534.5Zm10.3-1.8-.3,4.1c-.5-1.7-1.1-3.5-1.7-5.1s1-2.9,1.4-4.3l1.2-3.3Zm64.5,1.8c.2-2,.3-3.8.3-5.5.2-3.4.3-6.2.3-8.2s.1-2.6.1-3c.7,2.9,1.3,6,1.9,9.2l.3,1.9Zm75-1.8-.3,4.1c-.9-3.1-1.9-6-3-8.9.1-.1.1-.3.2-.5,1.6-4.4,3.1-8.6,4.5-12.3C190.3,520.7,189.8,526.7,189.4,532.7Zm64.6,1.8c.1-2,.2-3.8.3-5.5.1-3.4.2-6.2.3-8.2v-3c.7,2.9,1.3,6,1.9,9.2a14.8,14.8,0,0,1,.3,1.9C255.9,530.7,254.9,532.6,254,534.5Zm62.1,0c.1-2,.2-3.8.3-5.5s.1-3.5.2-4.9c.2,1,.3,1.9.5,2.9s.5,2.8.7,4.2A34.1,34.1,0,0,0,316.1,534.5Zm10.3-1.8-.3,4.1c-.5-1.7-1.1-3.5-1.7-5.1s.9-2.9,1.4-4.3l1.2-3.3Zm64.5,1.8c.1-2,.2-3.8.3-5.5.2-3.4.3-6.2.3-8.2s.1-2.6.1-3c.7,2.9,1.3,6,1.9,9.2l.3,1.9C392.8,530.7,391.9,532.6,390.9,534.5Zm72.7-6.6a85.5,85.5,0,0,1-1.4,8.6,221,221,0,0,1-8.1,28.7c.1-1.6.3-3.2.5-4.9a129.4,129.4,0,0,1,3.2-16.5c1.4-5.6,3.2-11.2,5-16.4l1.3-3.7C464,525.1,463.8,526.5,463.6,527.9Zm61.2,6.6c.2-2,.3-3.8.3-5.5.2-3.4.3-6.2.4-8.2v-3c.7,2.9,1.3,6,1.9,9.2l.3,1.9Z"/><path class="cls-1" d="M773.1,481.8c0,.4,0,1.4-.1,3s-.1,4.8-.3,8.2c0,1.7-.1,3.5-.3,5.5l2.9-5.6L775,491C774.4,487.8,773.8,484.7,773.1,481.8Z"/><path class="cls-1" d="M844.1,491.9c1.1,2.9,2.1,5.8,3,8.9l.3-4.1c.4-6,.9-12,1.4-17.6-1.4,3.7-2.9,7.9-4.5,12.3C844.2,491.6,844.2,491.8,844.1,491.9Z"/><path class="cls-1" d="M705.9,495.7c.6,1.6,1.2,3.4,1.7,5.1l.3-4.1.6-8.6-1.2,3.3C706.9,492.8,706.4,494.2,705.9,495.7Z"/><path class="cls-1" d="M912.6,481.8v3c-.1,2-.2,4.8-.3,8.2-.1,1.7-.2,3.5-.3,5.5l2.8-5.6a14.8,14.8,0,0,0-.3-1.9C913.9,487.8,913.3,484.7,912.6,481.8Z"/><path class="cls-1" d="M636.2,481.8c0,.4-.1,1.4-.1,3s-.2,4.8-.3,8.2c-.1,1.7-.2,3.5-.3,5.5.9-1.9,1.9-3.8,2.9-5.6l-.3-1.9C637.5,487.8,636.8,484.7,636.2,481.8Z"/><path class="cls-1" d="M698.1,488.1c-.1,1.4-.1,3.1-.2,4.9s-.2,3.5-.3,5.5a34.1,34.1,0,0,1,1.7-3.3c-.2-1.4-.4-2.8-.7-4.2A29.3,29.3,0,0,0,698.1,488.1Z"/><path class="cls-1" d="M1115.8,507.8a129.4,129.4,0,0,0-3.2,16.5c-.2,1.7-.4,3.3-.5,4.9a221,221,0,0,0,8.1-28.7,85.5,85.5,0,0,0,1.4-8.6c.2-1.4.4-2.8.5-4.2l-1.3,3.7C1119,496.6,1117.2,502.2,1115.8,507.8Z"/><path class="cls-1" d="M1183.5,481.8v3c-.1,2-.2,4.8-.4,8.2,0,1.7-.1,3.5-.3,5.5l2.9-5.6-.3-1.9C1184.8,487.8,1184.2,484.7,1183.5,481.8Z"/><path class="cls-1" d="M974.6,488.1c-.1,1.4-.2,3.1-.2,4.9s-.2,3.5-.3,5.5a34.1,34.1,0,0,1,1.7-3.3c-.2-1.4-.4-2.8-.7-4.2S974.8,489.1,974.6,488.1Z"/><path class="cls-1" d="M982.4,495.7c.6,1.6,1.2,3.4,1.7,5.1l.3-4.1.6-8.6-1.2,3.3C983.3,492.8,982.9,494.2,982.4,495.7Z"/><path class="cls-1" d="M1049.6,481.8c0,.4,0,1.4-.1,3s-.1,4.8-.3,8.2c-.1,1.7-.2,3.5-.3,5.5,1-1.9,1.9-3.8,2.9-5.6l-.3-1.9C1050.9,487.8,1050.3,484.7,1049.6,481.8Z"/><path class="cls-1" d="M1263.2,467.1c-1.3,2.2-3.3,5.2-5.6,9s-4.9,8.1-7.7,13c-1.6,2.9-3.3,6.1-5,9.4.2-2,.3-3.8.3-5.5.2-3.4.3-6.2.4-8.2v-3.1s-1.1,4.3-2.9,10.7-4.5,14.8-7.5,23.1l-1.6,4.3c-.2-3.5-.3-7.2-.2-11a119.1,119.1,0,0,1,1-13.6c.6-4.4,1.3-8.5,2.1-12a46.8,46.8,0,0,1,1.1-4.7c.4-1.5.7-2.7,1-3.7l1-3.2-1.6,2.9a24.5,24.5,0,0,0-1.8,3.3c-.7,1.3-1.4,2.8-2.2,4.4-1.5,3.3-3.1,7.2-4.7,11.4s-3,8.9-4.2,13.5l-.6,2.6v-1.3a175.2,175.2,0,0,1,.2-17.8c.4-5.7.7-11,1.1-15.6a75.6,75.6,0,0,1,1.8-11.5c.4-1.5.8-2.6,1-3.4l.5-1.1-.6,1.1a30.9,30.9,0,0,0-1.5,3.1,79.8,79.8,0,0,0-3.8,11.2c-.5,2.2-1.1,4.6-1.8,7.1a98.6,98.6,0,0,0-2.7-13,76.7,76.7,0,0,0-3.7-9.9c-.5-1.2-1-2-1.3-2.7l-.4-.9.3,1c.1.7.4,1.6.7,2.8a83.4,83.4,0,0,1,1.8,10.1,99.6,99.6,0,0,1,.3,14.7c-.1,2.7-.4,5.5-.7,8.3s-.9,5.7-1.4,8.6a193.7,193.7,0,0,1-5.4,20.3c-.2-5-.4-10.2-.5-15.5s0-12.9.2-18.9.4-11.8.7-16.6c.2-2.4.3-4.7.5-6.6s.3-3.7.4-5.2.4-4.4.4-4.4l-1.1,4.3c-.4,1.4-.8,3-1.2,5s-1,4-1.6,6.4c-1.1,4.8-2.2,10.3-3.4,16.3s-2.2,12.4-3.2,18.8c-.4,2.5-.8,5.1-1.1,7.6q-1.4-5.5-2.4-11.1a115.6,115.6,0,0,1-1.9-15.4c1.1-2.9,2.1-5.7,3.1-8.2,1.6-4.1,3-7.4,4-9.8s1.5-3.7,1.5-3.7l-2.2,3.3c-1.3,2.2-3.3,5.2-5.6,9l-1,1.7a116.5,116.5,0,0,1,1.1-16.4c.4-2.7.9-5.2,1.3-7.4l.3-1.6c.1-.5.3-1,.4-1.5l.6-2.6,1.3-4.9-1.9,4.7c-.4.7-.7,1.6-1.1,2.5a12.1,12.1,0,0,1-.5,1.4l-.6,1.5c-.7,2.2-1.5,4.6-2.3,7.3s-.8,2.8-1.1,4.2l-.9,3.3h0a5,5,0,0,0-.2,1.2,99.1,99.1,0,0,0-1.7,10c-.1,1-.3,1.9-.4,2.9s-.1,1.6-.2,2.4c-1.2-2.7-2.4-5.3-3.5-7.5s-.9-1.8-1.3-2.6l-1.2-2.3-2-3.6c-1.2-1.9-1.8-3.1-1.8-3.1l1.1,3.4q.6,1.7,1.2,3.9c.3.7.5,1.5.8,2.4s.4,1.7.7,2.7.6,2.3.9,3.6-1.2,4.7-2.9,10.6-4.5,14.8-7.5,23.1l-1.6,4.3c-.2-3.5-.3-7.2-.2-11s.5-9.3,1-13.6,1.3-8.5,2.1-12a46.8,46.8,0,0,1,1.1-4.7c.4-1.5.7-2.7,1-3.7l1-3.2-1.6,2.9c-.6.9-1.1,2-1.8,3.3l-2.2,4.4c-1.5,3.3-3.1,7.2-4.7,11.4s-3,8.9-4.2,13.5l-.6,2.6v-1.3a175.2,175.2,0,0,1,.2-17.8c.1-1.9.3-3.7.4-5.5s2-5.4,2.9-7.8c1.6-4.1,3-7.4,4-9.8l1.5-3.7-2.2,3.3c-1.3,2.2-3.3,5.2-5.6,8.9a65.3,65.3,0,0,1,2-12.5c.3-1.5.7-2.6.9-3.4l.5-1.1-.6,1.1a30.9,30.9,0,0,0-1.5,3.1,79.8,79.8,0,0,0-3.8,11.2c-.5,2.2-1.1,4.7-1.8,7.2l-.6,2.7-2.8,4.8c-1.6,2.9-3.3,6.1-5,9.4.1-2,.2-3.8.3-5.5.2-3.4.3-6.2.3-8.2s.1-3.1.1-3.1-1.1,4.3-2.9,10.7-4.6,14.8-7.5,23.1c-.6,1.4-1.1,2.9-1.6,4.3-.2-3.5-.3-7.2-.2-11a119.1,119.1,0,0,1,1-13.6,109.6,109.6,0,0,1,2.1-12,46.8,46.8,0,0,1,1.1-4.7c.4-1.5.7-2.7,1-3.7l.9-3.2-1.6,2.9c-.5.9-1.1,2-1.7,3.3s-1.4,2.8-2.2,4.4c-1.5,3.3-3.1,7.2-4.7,11.4a133.1,133.1,0,0,0-4.2,13.5l-.6,2.6a6.2,6.2,0,0,0-.1-1.3c-.2-6,0-12.1.3-17.8s.7-11,1.1-15.6a75.6,75.6,0,0,1,1.8-11.5c.4-1.5.8-2.6,1-3.4l.5-1.1a3.3,3.3,0,0,0-.6,1.1,18,18,0,0,0-1.5,3.1,68.6,68.6,0,0,0-3.8,11.2c-.5,2.2-1.1,4.6-1.8,7.1-.2-1.9-.6-3.7-.9-5.4l3.4-8.6,1.6-3.7-2.2,3.3-3.5,5.6c-.4-1.4-.8-2.8-1.1-4.2a95.3,95.3,0,0,0-3.7-9.9c-.5-1.2-1-2-1.3-2.7l-.4-.9s.1.4.2,1,.5,1.6.8,2.8a83.4,83.4,0,0,1,1.8,10.1c.2,2.8.4,5.8.4,9.1-2,3.3-4.2,7-6.5,11.1s-3.3,6.1-5,9.4c.1-2,.2-3.8.3-5.5.2-3.4.3-6.2.3-8.2s.1-3.1.1-3.1-1.1,4.3-2.9,10.7-4.6,14.8-7.5,23.1c-.6,1.4-1.1,2.9-1.6,4.3-.2-3.5-.3-7.2-.3-11s.5-9.3,1.1-13.6a110.9,110.9,0,0,1,2-12c.4-1.7.8-3.3,1.2-4.7a37.2,37.2,0,0,1,1-3.7l.9-3.2-1.6,2.9c-.5.9-1.1,2-1.7,3.3s-1.5,2.8-2.2,4.4c-1.6,3.3-3.1,7.2-4.7,11.4a133.1,133.1,0,0,0-4.2,13.5l-.6,2.6c0-.4-.1-.8-.1-1.3-.2-6,0-12.1.3-17.8s.7-11,1.1-15.6a64.8,64.8,0,0,1,1.8-11.5c.4-1.5.8-2.6,1-3.4a8.2,8.2,0,0,0,.4-1.1l-.6,1.1c-.3.7-.9,1.7-1.5,3.1a81.3,81.3,0,0,0-3.7,11.2c-.6,2.2-1.1,4.6-1.8,7.1a97.8,97.8,0,0,0-2.8-13,78.9,78.9,0,0,0-3.6-9.9c-.5-1.2-1-2-1.3-2.7l-.4-.9s.1.4.2,1,.5,1.6.8,2.8a69.4,69.4,0,0,1,1.7,10.1,86.8,86.8,0,0,1,.4,14.7c-.2,2.7-.4,5.5-.8,8.3a85.5,85.5,0,0,1-1.4,8.6,193.8,193.8,0,0,1-5.3,20.3c-.3-5-.4-10.2-.5-15.5s0-12.9.2-18.9.4-11.8.7-16.6c.1-2.4.3-4.7.5-6.6s.2-3.7.4-5.2.4-4.4.4-4.4l-1.1,4.3c-.4,1.4-.8,3-1.3,5s-1,4-1.5,6.4c-1.1,4.8-2.2,10.3-3.4,16.3s-2.3,12.4-3.3,18.8c-.3,2.5-.7,5.1-1,7.6q-1.3-5.5-2.4-11.1a115.6,115.6,0,0,1-1.9-15.4c1.1-2.9,2.1-5.7,3.1-8.2,1.6-4.1,3-7.4,3.9-9.8l1.6-3.7-2.2,3.3c-1.3,2.2-3.3,5.2-5.6,9l-1.1,1.7a115.7,115.7,0,0,1,1.2-16.4c.4-2.7.9-5.2,1.3-7.4l.3-1.6a8.3,8.3,0,0,1,.4-1.5l.6-2.6,1.3-4.9-2,4.7c-.3.7-.6,1.6-1,2.5l-.6,1.4a8.8,8.8,0,0,1-.5,1.5c-.7,2.2-1.6,4.6-2.4,7.3s-.7,2.8-1.1,4.2-.5,2.2-.8,3.3h0l-.3,1.2a99.5,99.5,0,0,0-1.6,10,25.4,25.4,0,0,0-.4,2.9,19.4,19.4,0,0,0-.2,2.4c-1.2-2.7-2.4-5.3-3.5-7.5s-.9-1.8-1.3-2.6l-1.2-2.3c-.8-1.4-1.5-2.6-2-3.6l-1.9-3.1s.4,1.3,1.2,3.4.8,2.4,1.2,3.9.5,1.5.7,2.4.5,1.7.8,2.7.6,2.3.9,3.6-1.2,4.7-2.9,10.6-4.6,14.8-7.5,23.1c-.6,1.4-1.1,2.9-1.6,4.3-.2-3.5-.3-7.2-.3-11s.5-9.3,1.1-13.6,1.2-8.5,2-12c.4-1.7.8-3.3,1.2-4.7a37.2,37.2,0,0,1,1-3.7l.9-3.2-1.6,2.9c-.5.9-1.1,2-1.7,3.3s-1.4,2.8-2.2,4.4c-1.6,3.3-3.1,7.2-4.7,11.4a133.1,133.1,0,0,0-4.2,13.5l-.6,2.6c0-.4-.1-.8-.1-1.3-.2-6,0-12.1.3-17.8s.7-11,1.1-15.6a75.6,75.6,0,0,1,1.8-11.5c.4-1.5.8-2.6,1-3.4a8.2,8.2,0,0,0,.4-1.1l-.6,1.1c-.3.7-.9,1.7-1.5,3.1a81.3,81.3,0,0,0-3.7,11.2c-.5,2.2-1.1,4.6-1.8,7.1a97.8,97.8,0,0,0-2.8-13,78.9,78.9,0,0,0-3.6-9.9c-.5-1.2-1-2-1.3-2.7l-.4-.9s.1.4.2,1,.5,1.6.8,2.8a69.4,69.4,0,0,1,1.7,10.1,86.8,86.8,0,0,1,.4,14.7c-.2,2.7-.4,5.5-.8,8.3a85.5,85.5,0,0,1-1.4,8.6,193.8,193.8,0,0,1-5.3,20.3c-.3-5-.4-10.2-.5-15.5s0-12.9.2-18.9.4-11.8.7-16.6c.2-2.4.3-4.7.5-6.6s.2-3.7.4-5.2.4-4.4.4-4.4l-1.1,4.3c-.4,1.4-.8,3-1.3,5s-.9,4-1.5,6.4c-1.1,4.8-2.2,10.3-3.4,16.3l-1.2,6.2c-2-24.5-3-46.7-3-46.7s-2.9,28-4.5,56.2l-.6,9.2a2,2,0,0,1-3.9.1c-.5-4.5-.9-9.1-1.3-13.7-.7-8.5-1.3-17.1-1.7-24.9l1.9-4.5c.9-2.4,1.5-3.7,1.5-3.7l-2.1,3.3-1.4,2.1c-.2-3.7-.3-7.2-.4-10.4-.2-5.2-.2-9.6-.3-12.7v-4.8s-.3,1.8-.7,4.8-1,7.3-1.6,12.5-1.4,11.8-2,18.7c-2,3.2-4.2,6.9-6.4,10.8a111.7,111.7,0,0,0-4.8-10.7c-.5-.9-.9-1.8-1.3-2.6l-1.2-2.3-2-3.6-1.9-3.1s.5,1.3,1.2,3.4.8,2.4,1.2,3.9.5,1.5.8,2.4.4,1.7.7,2.7,1.1,4.3,1.6,6.7-1.2,4.4-2.1,7.5c-1.8,6.4-4.5,14.8-7.5,23.1l-1.6,4.3c-.2-3.5-.3-7.2-.2-11s.5-9.3,1-13.6,1.3-8.5,2.1-12a46.8,46.8,0,0,1,1.1-4.7c.4-1.5.7-2.7,1-3.7l1-3.2-1.6,2.9c-.6.9-1.1,2-1.8,3.3l-2.2,4.4c-1.5,3.3-3.1,7.2-4.7,11.4s-3,8.9-4.2,13.5l-.6,2.6v-1.3a175.2,175.2,0,0,1,.2-17.8c.4-5.7.7-11,1.1-15.6a63.6,63.6,0,0,1,1.9-11.5,20.8,20.8,0,0,1,1-3.4,7,7,0,0,1,.4-1.1l-.6,1.1a30.9,30.9,0,0,0-1.5,3.1,79.8,79.8,0,0,0-3.8,11.2c-.5,2.2-1.1,4.6-1.7,7.1a97.8,97.8,0,0,0-2.8-13,76.7,76.7,0,0,0-3.7-9.9c-.5-1.2-1-2-1.2-2.7l-.5-.9.3,1c.1.7.4,1.6.7,2.8a83.4,83.4,0,0,1,1.8,10.1,99.6,99.6,0,0,1,.3,14.7c-.1,2.7-.4,5.5-.7,8.3s-.9,5.7-1.4,8.6a193.7,193.7,0,0,1-5.4,20.3c-.2-5-.4-10.2-.4-15.5s-.1-12.9.1-18.9.4-11.8.7-16.6c.2-2.4.3-4.7.5-6.6s.3-3.7.4-5.2.4-4.4.4-4.4l-1.1,4.3c-.4,1.4-.8,3-1.2,5s-1,4-1.5,6.4c-1.1,4.8-2.3,10.3-3.5,16.3s-2.2,12.4-3.2,18.8c-.4,2.5-.8,5.1-1.1,7.6-.9-3.7-1.7-7.4-2.3-11.1a115.9,115.9,0,0,1-2-15.4c1.1-2.9,2.2-5.7,3.1-8.2,1.6-4.1,3-7.4,4-9.8l1.5-3.7-2.1,3.3c-1.4,2.2-3.4,5.2-5.7,9l-1,1.7a116.5,116.5,0,0,1,1.1-16.4c.5-2.7.9-5.2,1.3-7.4l.3-1.6a8.3,8.3,0,0,0,.4-1.5c.2-.9.5-1.8.7-2.6.7-3.1,1.2-4.9,1.2-4.9l-1.9,4.7c-.3.7-.7,1.6-1,2.5l-.6,1.4a8.8,8.8,0,0,0-.5,1.5c-.8,2.2-1.6,4.6-2.4,7.3s-.8,2.8-1.1,4.2l-.9,3.3h0a5,5,0,0,0-.2,1.2,99.1,99.1,0,0,0-1.7,10c-.1.9-.2,1.9-.4,2.9s-.1,1.6-.2,2.4c-1.2-2.7-2.3-5.3-3.5-7.5l-1.3-2.6-1.2-2.3c-.7-1.4-1.4-2.6-2-3.6s-1.8-3.1-1.8-3.1l1.1,3.4,1.3,3.9c.2.7.4,1.5.7,2.4s.5,1.7.7,2.7l.9,3.6c-.1.6-1.2,4.7-2.9,10.6s-4.5,14.8-7.5,23.1c-.5,1.4-1,2.9-1.6,4.3-.2-3.5-.3-7.2-.2-11s.5-9.3,1-13.6,1.3-8.5,2.1-12c.4-1.7.8-3.3,1.1-4.7s.7-2.7,1-3.7l1-3.2-1.6,2.9-1.8,3.3c-.7,1.3-1.4,2.8-2.1,4.4-1.6,3.3-3.2,7.2-4.8,11.4s-2.9,8.9-4.2,13.5l-.6,2.6v-1.3a175.2,175.2,0,0,1,.2-17.8c.4-5.7.7-11,1.1-15.6a63.6,63.6,0,0,1,1.9-11.5,20.8,20.8,0,0,1,1-3.4,7,7,0,0,1,.4-1.1l-.6,1.1a30.9,30.9,0,0,0-1.5,3.1,69.6,69.6,0,0,0-3.7,11.2c-.6,2.2-1.2,4.6-1.8,7.1a97.8,97.8,0,0,0-2.8-13,76.7,76.7,0,0,0-3.7-9.9l-1.2-2.7-.5-.9.3,1a22.6,22.6,0,0,1,.7,2.8,83.4,83.4,0,0,1,1.8,10.1,99.6,99.6,0,0,1,.3,14.7c-.1,2.7-.4,5.5-.7,8.3s-.9,5.7-1.4,8.6a193.7,193.7,0,0,1-5.4,20.3c-.2-5-.4-10.2-.4-15.5s0-12.9.1-18.9.4-11.8.8-16.6c.1-2.4.3-4.7.4-6.6s.3-3.7.4-5.2.4-4.4.4-4.4l-1.1,4.3c-.3,1.4-.8,3-1.2,5s-1,4-1.5,6.4c-1.1,4.8-2.3,10.3-3.5,16.3-.3,2-.7,4.1-1.1,6.2-2-24.5-3.1-46.7-3.1-46.7s-1.9,47.2-5.7,55.9c-.8,1.7-2.3,3-3.9,2.1a.1.1,0,0,0-.1-.1c-3.2-4.5-2.1-27.5-2.5-36.7l1.1-2.5-1.1,1.7c-.1-2.4-.2-4.6-.2-6.7-.2-5.2-.3-9.6-.3-12.7s-.1-4.8-.1-4.8-.2,1.8-.7,4.8-1,7.3-1.6,12.5-1,8.8-1.5,13.8l-2.3,3.7c-1.7,2.8-3.6,5.9-5.6,9.4-1.3-3-2.5-5.7-3.8-8.1l-1.2-2.6-1.3-2.3c-.7-1.4-1.4-2.6-2-3.6s-1.8-3.1-1.8-3.1l1.1,3.4,1.3,3.9c.2.7.4,1.5.7,2.4s.5,1.7.7,2.7c1.1,3.8,2,8.3,2.9,13.2l-3.7,7.1c.2-2,.3-3.8.3-5.5.2-3.4.3-6.2.3-8.2s.1-3.1.1-3.1-1.1,4.3-2.9,10.7-4.5,14.8-7.5,23.1l-1.6,4.3c-.2-3.5-.3-7.2-.2-11a119.1,119.1,0,0,1,1-13.6,109.6,109.6,0,0,1,2.1-12,46.8,46.8,0,0,1,1.1-4.7c.4-1.5.7-2.7,1-3.7s.9-3.2.9-3.2l-1.6,2.9c-.5.9-1.1,2-1.7,3.3l-2.2,4.4c-1.5,3.3-3.1,7.2-4.7,11.4a133.1,133.1,0,0,0-4.2,13.5l-.6,2.6a6.2,6.2,0,0,0-.1-1.3c-.2-6,0-12.1.3-17.8s.7-11,1.1-15.6a75.6,75.6,0,0,1,1.8-11.5c.4-1.5.8-2.6,1-3.4l.5-1.1a3.3,3.3,0,0,0-.6,1.1,18,18,0,0,0-1.5,3.1,68.6,68.6,0,0,0-3.8,11.2c-.5,2.2-1.1,4.6-1.8,7.1a118,118,0,0,0-2.7-13,95.3,95.3,0,0,0-3.7-9.9c-.5-1.2-1-2-1.3-2.7l-.4-.9.3,1c.1.7.4,1.6.7,2.8a83.4,83.4,0,0,1,1.8,10.1,99.6,99.6,0,0,1,.3,14.7,80.2,80.2,0,0,1-.8,8.3,85.5,85.5,0,0,1-1.4,8.6,171.9,171.9,0,0,1-5.3,20.3c-.3-5-.4-10.2-.5-15.5s0-12.9.2-18.9.4-11.8.7-16.6c.2-2.4.3-4.7.5-6.6s.3-3.7.4-5.2.4-4.4.4-4.4l-1.1,4.3c-.4,1.4-.8,3-1.2,5l-1.6,6.4c-1.1,4.8-2.2,10.3-3.4,16.3s-2.2,12.4-3.2,18.8c-.4,2.5-.8,5.1-1.1,7.6q-1.4-5.5-2.4-11.1a115.6,115.6,0,0,1-1.9-15.4c1.1-2.9,2.1-5.7,3.1-8.2,1.6-4.1,3-7.4,4-9.8s1.5-3.7,1.5-3.7l-2.2,3.3c-1.3,2.2-3.3,5.2-5.6,9l-1,1.7a116.5,116.5,0,0,1,1.1-16.4c.4-2.7.9-5.2,1.3-7.4l.3-1.6c.1-.5.3-1,.4-1.5l.6-2.6,1.3-4.9-2,4.7-1,2.5-.6,1.4a8.8,8.8,0,0,1-.5,1.5l-2.4,7.3c-.3,1.3-.7,2.8-1.1,4.2s-.5,2.2-.8,3.3h0l-.3,1.2c-.5,3.2-1.3,6.5-1.6,10l-.4,2.9a19.4,19.4,0,0,0-.2,2.4c-1.2-2.7-2.4-5.3-3.5-7.5l-1.3-2.6-1.2-2.3-2-3.6-1.9-3.1s.5,1.3,1.2,3.4.8,2.4,1.2,3.9.5,1.5.8,2.4.4,1.7.7,2.7l.9,3.6c-.1.6-1.2,4.7-2.9,10.6s-4.5,14.8-7.5,23.1l-1.6,4.3c-.2-3.5-.3-7.2-.2-11a119.1,119.1,0,0,1,1-13.6c.6-4.4,1.3-8.5,2.1-12a46.8,46.8,0,0,1,1.1-4.7c.4-1.5.7-2.7,1-3.7l1-3.2-1.6,2.9a24.5,24.5,0,0,0-1.8,3.3c-.7,1.3-1.4,2.8-2.2,4.4-1.5,3.3-3.1,7.2-4.7,11.4s-3,8.9-4.2,13.5l-.6,2.6a6.2,6.2,0,0,0-.1-1.3c-.2-6,0-12.1.3-17.8s.7-11,1.1-15.6a75.6,75.6,0,0,1,1.8-11.5c.4-1.5.8-2.6,1-3.4l.5-1.1-.6,1.1a30.9,30.9,0,0,0-1.5,3.1,79.8,79.8,0,0,0-3.8,11.2c-.5,2.2-1.1,4.6-1.8,7.1a118,118,0,0,0-2.7-13,95.3,95.3,0,0,0-3.7-9.9c-.5-1.2-1-2-1.3-2.7l-.4-.9.3,1c.1.7.4,1.6.7,2.8a83.4,83.4,0,0,1,1.8,10.1,99.6,99.6,0,0,1,.3,14.7,80.2,80.2,0,0,1-.8,8.3,85.5,85.5,0,0,1-1.4,8.6,171.9,171.9,0,0,1-5.3,20.3c-.2-5-.4-10.2-.5-15.5s0-12.9.2-18.9.4-11.8.7-16.6c.2-2.4.3-4.7.5-6.6s.3-3.7.4-5.2.4-4.4.4-4.4l-1.1,4.3c-.4,1.4-.8,3-1.2,5s-1,4-1.6,6.4c-1.1,4.8-2.2,10.3-3.4,16.3-.4,2-.8,4.1-1.1,6.2-2.1-24.5-3.1-46.7-3.1-46.7s-2.9,28-4.5,56.2c-.8,11.8-1.3,23.6-1.7,33.3-1.4-10.2-3-23.9-4.1-37.7-.7-8.5-1.3-17.1-1.6-24.9l1.8-4.5,1.5-3.7-2.1,3.3-1.4,2.1c-.2-3.7-.3-7.2-.4-10.4-.1-5.2-.2-9.6-.3-12.7v-4.8s-.3,1.8-.7,4.8-1,7.3-1.6,12.5-1.4,11.8-2,18.7c-2,3.2-4.1,6.9-6.4,10.8a111.7,111.7,0,0,0-4.8-10.7c-.4-.9-.9-1.8-1.3-2.6l-1.2-2.3c-.7-1.4-1.4-2.6-2-3.6s-1.8-3.1-1.8-3.1l1.1,3.4q.6,1.7,1.2,3.9c.3.7.5,1.5.8,2.4s.4,1.7.7,2.7,1.1,4.3,1.6,6.7-1.2,4.4-2.1,7.5c-1.8,6.4-4.5,14.8-7.5,23.1-.5,1.4-1,2.9-1.6,4.3-.2-3.5-.3-7.2-.2-11s.5-9.3,1-13.6,1.3-8.5,2.1-12c.4-1.7.8-3.3,1.1-4.7s.7-2.7,1-3.7l1-3.2-1.6,2.9-1.8,3.3c-.7,1.3-1.4,2.8-2.1,4.4-1.6,3.3-3.2,7.2-4.8,11.4s-2.9,8.9-4.2,13.5l-.6,2.6v-1.3a175.2,175.2,0,0,1,.2-17.8c.4-5.7.8-11,1.1-15.6a63.6,63.6,0,0,1,1.9-11.5,20.8,20.8,0,0,1,1-3.4,8.2,8.2,0,0,0,.4-1.1l-.6,1.1a30.9,30.9,0,0,0-1.5,3.1,69.6,69.6,0,0,0-3.7,11.2c-.6,2.2-1.2,4.6-1.8,7.1a97.8,97.8,0,0,0-2.8-13,76.7,76.7,0,0,0-3.7-9.9l-1.2-2.7-.5-.9.3,1a22.6,22.6,0,0,1,.7,2.8,83.4,83.4,0,0,1,1.8,10.1,99.6,99.6,0,0,1,.3,14.7c-.1,2.7-.4,5.5-.7,8.3s-.9,5.7-1.4,8.6a193.7,193.7,0,0,1-5.4,20.3c-.2-5-.4-10.2-.4-15.5s0-12.9.1-18.9.4-11.8.8-16.6c.1-2.4.3-4.7.4-6.6s.3-3.7.4-5.2.4-4.4.4-4.4l-1.1,4.3c-.3,1.4-.7,3-1.2,5s-1,4-1.5,6.4c-1.1,4.8-2.3,10.3-3.4,16.3s-2.3,12.4-3.3,18.8c-.4,2.5-.7,5.1-1.1,7.6-.8-3.7-1.7-7.4-2.3-11.1a135.2,135.2,0,0,1-2-15.4l3.2-8.2c1.6-4.1,2.9-7.4,3.9-9.8l1.5-3.7-2.1,3.3c-1.4,2.2-3.3,5.2-5.6,9-.4.5-.7,1.1-1.1,1.7a116.5,116.5,0,0,1,1.1-16.4l1.4-7.4.3-1.6.3-1.5c.3-.9.5-1.8.7-2.6.8-3.1,1.2-4.9,1.2-4.9l-1.9,4.7c-.3.7-.7,1.6-1,2.5l-.6,1.4a8.8,8.8,0,0,0-.5,1.5c-.7,2.2-1.6,4.6-2.4,7.3s-.7,2.8-1.1,4.2l-.9,3.3h0c-.1.4-.1.8-.2,1.2-.6,3.2-1.3,6.5-1.7,10l-.3,2.9-.3,2.4c-1.2-2.7-2.3-5.3-3.5-7.5l-1.2-2.6-1.3-2.3c-.7-1.4-1.4-2.6-2-3.6l-1.8-3.1,1.1,3.4,1.3,3.9c.2.7.4,1.5.7,2.4s.5,1.7.7,2.7l.9,3.6c-.1.6-1.2,4.7-2.9,10.6s-4.5,14.8-7.5,23.1c-.5,1.4-1,2.9-1.6,4.3-.2-3.5-.3-7.2-.2-11s.5-9.3,1-13.6,1.3-8.5,2.1-12c.4-1.7.8-3.3,1.1-4.7s.7-2.7,1-3.7l1-3.2-1.6,2.9-1.8,3.3c-.6,1.3-1.4,2.8-2.1,4.4-1.6,3.3-3.2,7.2-4.8,11.4s-2.9,8.9-4.1,13.5a12.2,12.2,0,0,0-.6,2.6,5.3,5.3,0,0,1-.1-1.3,150,150,0,0,1,.3-17.8c.3-5.7.7-11,1-15.6a63.6,63.6,0,0,1,1.9-11.5,20.8,20.8,0,0,1,1-3.4,8.2,8.2,0,0,0,.4-1.1l-.6,1.1a30.9,30.9,0,0,0-1.5,3.1,81.3,81.3,0,0,0-3.7,11.2c-.6,2.2-1.2,4.6-1.8,7.1a97.8,97.8,0,0,0-2.8-13,76.7,76.7,0,0,0-3.7-9.9l-1.2-2.7-.5-.9.3,1a22.6,22.6,0,0,1,.7,2.8,56.6,56.6,0,0,1,1.8,10.1,87.5,87.5,0,0,1,.3,14.7c-.1,2.7-.4,5.5-.7,8.3s-.9,5.7-1.4,8.6a193.7,193.7,0,0,1-5.4,20.3c-.2-5-.4-10.2-.4-15.5s0-12.9.1-18.9.5-11.8.8-16.6c.1-2.4.3-4.7.4-6.6s.3-3.7.4-5.2.4-4.4.4-4.4l-1.1,4.3c-.3,1.4-.7,3-1.2,5s-1,4-1.5,6.4c-1.1,4.8-2.3,10.3-3.4,16.3l-1.2,6.2c-2-24.5-3.1-46.7-3.1-46.7s-2.8,28-4.5,56.2c-.1,2.7-.3,5.3-.4,8s-4,2.6-4.2.1l-1.2-12.5c-1.1-13.8-1.8-27.7-2.1-38.1-.2-5.2-.3-9.6-.3-12.7s-.1-4.8-.1-4.8-.2,1.8-.6,4.8-1,7.3-1.7,12.5c-1.2,10.3-2.6,24.2-3.6,38.1-.1,1.4-.2,2.7-.2,4.1-1.2-3.8-2.5-7.5-3.8-10.9a127.1,127.1,0,0,0-5.6-12.5l-1.2-2.6a12.7,12.7,0,0,1-1.2-2.3l-2.1-3.6-1.8-3.1s.4,1.3,1.2,3.4.7,2.4,1.2,3.9.5,1.5.7,2.4.5,1.7.7,2.7c1.1,3.7,2,8.1,2.9,12.8s1.4,9.9,1.8,15,.5,10.2.4,15,0,43,0,43h682s0-34.5.6-39.7a149.5,149.5,0,0,1,3.2-16.5c1.5-5.6,3.2-11.2,5-16.4s3.6-10,5.2-14.1,3-7.4,4-9.8,1.5-3.7,1.5-3.7ZM635.5,498.5c.1-2,.2-3.8.3-5.5.1-3.4.2-6.2.3-8.2s.1-2.6.1-3c.6,2.9,1.3,6,1.9,9.2l.3,1.9C637.4,494.7,636.4,496.6,635.5,498.5Zm62.1,0c.1-2,.2-3.8.3-5.5s.1-3.5.2-4.9a29.3,29.3,0,0,1,.5,2.9c.3,1.4.5,2.8.7,4.2A34.1,34.1,0,0,0,697.6,498.5Zm10.3-1.8-.3,4.1c-.5-1.7-1.1-3.5-1.7-5.1s1-2.9,1.4-4.3l1.2-3.3Zm64.5,1.8c.2-2,.3-3.8.3-5.5.2-3.4.3-6.2.3-8.2s.1-2.6.1-3c.7,2.9,1.3,6,1.9,9.2l.3,1.9Zm75-1.8-.3,4.1c-.9-3.1-1.9-6-3-8.9.1-.1.1-.3.2-.5,1.6-4.4,3.1-8.6,4.5-12.3C848.3,484.7,847.8,490.7,847.4,496.7Zm64.6,1.8c.1-2,.2-3.8.3-5.5.1-3.4.2-6.2.3-8.2v-3c.7,2.9,1.3,6,1.9,9.2a14.8,14.8,0,0,1,.3,1.9Zm62.1,0c.1-2,.2-3.8.3-5.5s.1-3.5.2-4.9c.2,1,.3,1.9.5,2.9s.5,2.8.7,4.2A34.1,34.1,0,0,0,974.1,498.5Zm10.3-1.8-.3,4.1c-.5-1.7-1.1-3.5-1.7-5.1s.9-2.9,1.4-4.3l1.2-3.3Zm64.5,1.8c.1-2,.2-3.8.3-5.5.2-3.4.3-6.2.3-8.2s.1-2.6.1-3c.7,2.9,1.3,6,1.9,9.2l.3,1.9C1050.8,494.7,1049.9,496.6,1048.9,498.5Zm72.7-6.6a85.5,85.5,0,0,1-1.4,8.6,221,221,0,0,1-8.1,28.7c.1-1.6.3-3.2.5-4.9a129.4,129.4,0,0,1,3.2-16.5c1.4-5.6,3.2-11.2,5-16.4l1.3-3.7C1122,489.1,1121.8,490.5,1121.6,491.9Zm61.2,6.6c.2-2,.3-3.8.3-5.5.2-3.4.3-6.2.4-8.2v-3c.7,2.9,1.3,6,1.9,9.2l.3,1.9Z"/><path class="cls-2" d="M782.1,518.8c0,.4,0,1.4-.1,3s-.1,4.8-.3,8.2c0,1.7-.1,3.5-.3,5.5l2.9-5.6L784,528C783.4,524.8,782.8,521.7,782.1,518.8Z"/><path class="cls-2" d="M853.1,528.9c1.1,2.9,2.1,5.8,3,8.9l.3-4.1c.4-6,.9-12,1.4-17.6-1.4,3.7-2.9,7.9-4.5,12.3C853.2,528.6,853.2,528.8,853.1,528.9Z"/><path class="cls-2" d="M714.9,532.7c.6,1.6,1.2,3.4,1.7,5.1l.3-4.1.6-8.6-1.2,3.3C715.9,529.8,715.4,531.2,714.9,532.7Z"/><path class="cls-2" d="M921.6,518.8v3c-.1,2-.2,4.8-.3,8.2-.1,1.7-.2,3.5-.3,5.5.9-1.9,1.9-3.8,2.8-5.6a14.8,14.8,0,0,0-.3-1.9C922.9,524.8,922.3,521.7,921.6,518.8Z"/><path class="cls-2" d="M645.2,518.8c0,.4-.1,1.4-.1,3s-.2,4.8-.3,8.2c-.1,1.7-.2,3.5-.3,5.5.9-1.9,1.9-3.8,2.9-5.6l-.3-1.9C646.5,524.8,645.8,521.7,645.2,518.8Z"/><path class="cls-2" d="M707.1,525.1c-.1,1.4-.1,3.1-.2,4.9s-.2,3.5-.3,5.5a34.1,34.1,0,0,1,1.7-3.3c-.2-1.4-.4-2.8-.7-4.2A29.3,29.3,0,0,0,707.1,525.1Z"/><path class="cls-2" d="M1124.8,544.8a129.4,129.4,0,0,0-3.2,16.5c-.2,1.7-.4,3.3-.5,4.9a221,221,0,0,0,8.1-28.7,85.5,85.5,0,0,0,1.4-8.6c.2-1.4.4-2.8.5-4.2l-1.3,3.7C1128,533.6,1126.2,539.2,1124.8,544.8Z"/><path class="cls-2" d="M1192.5,518.8v3c-.1,2-.2,4.8-.4,8.2,0,1.7-.1,3.5-.3,5.5l2.9-5.6-.3-1.9C1193.8,524.8,1193.2,521.7,1192.5,518.8Z"/><path class="cls-2" d="M983.6,525.1c-.1,1.4-.2,3.1-.2,4.9s-.2,3.5-.3,5.5a34.1,34.1,0,0,1,1.7-3.3c-.2-1.4-.4-2.8-.7-4.2S983.8,526.1,983.6,525.1Z"/><path class="cls-2" d="M991.4,532.7c.6,1.6,1.2,3.4,1.7,5.1l.3-4.1.6-8.6-1.2,3.3C992.3,529.8,991.9,531.2,991.4,532.7Z"/><path class="cls-2" d="M1058.6,518.8c0,.4,0,1.4-.1,3s-.1,4.8-.3,8.2c-.1,1.7-.2,3.5-.3,5.5,1-1.9,1.9-3.8,2.9-5.6l-.3-1.9C1059.9,524.8,1059.3,521.7,1058.6,518.8Z"/><path class="cls-2" d="M1272.2,504.1c-1.3,2.2-3.3,5.2-5.6,9s-4.9,8.1-7.7,13c-1.6,2.9-3.3,6.1-5,9.4.2-2,.3-3.8.3-5.5.2-3.4.3-6.2.4-8.2v-3.1s-1.1,4.3-2.9,10.7-4.5,14.8-7.5,23.1l-1.6,4.3c-.2-3.5-.3-7.2-.2-11a119.1,119.1,0,0,1,1-13.6c.6-4.4,1.3-8.5,2.1-12a46.8,46.8,0,0,1,1.1-4.7c.4-1.5.7-2.7,1-3.7l1-3.2-1.6,2.9a24.5,24.5,0,0,0-1.8,3.3c-.7,1.3-1.4,2.8-2.2,4.4-1.5,3.3-3.1,7.2-4.7,11.4s-3,8.9-4.2,13.5l-.6,2.6v-1.3a175.2,175.2,0,0,1,.2-17.8c.4-5.7.7-11,1.1-15.6a75.6,75.6,0,0,1,1.8-11.5c.4-1.5.8-2.6,1-3.4l.5-1.1-.6,1.1a30.9,30.9,0,0,0-1.5,3.1,79.8,79.8,0,0,0-3.8,11.2c-.5,2.2-1.1,4.6-1.8,7.1a98.6,98.6,0,0,0-2.7-13,76.7,76.7,0,0,0-3.7-9.9c-.5-1.2-1-2-1.3-2.7l-.4-.9.3,1c.1.7.4,1.6.7,2.8a83.4,83.4,0,0,1,1.8,10.1,99.6,99.6,0,0,1,.3,14.7c-.1,2.7-.4,5.5-.7,8.3s-.9,5.7-1.4,8.6a193.7,193.7,0,0,1-5.4,20.3c-.2-5-.4-10.2-.5-15.5s0-12.9.2-18.9.4-11.8.7-16.6c.2-2.4.3-4.7.5-6.6s.3-3.7.4-5.2.4-4.4.4-4.4l-1.1,4.3c-.4,1.4-.8,3-1.2,5s-1,4-1.6,6.4c-1.1,4.8-2.2,10.3-3.4,16.3s-2.2,12.4-3.2,18.8c-.4,2.5-.8,5.1-1.1,7.6q-1.4-5.6-2.4-11.1a115.6,115.6,0,0,1-1.9-15.4c1.1-2.9,2.1-5.7,3.1-8.2,1.6-4.1,3-7.4,4-9.8s1.5-3.7,1.5-3.7l-2.2,3.3c-1.3,2.2-3.3,5.2-5.6,9l-1,1.7a116.5,116.5,0,0,1,1.1-16.4c.4-2.7.9-5.2,1.3-7.4l.3-1.6c.1-.5.3-1,.4-1.5l.6-2.6,1.3-4.9-1.9,4.7c-.4.7-.7,1.6-1.1,2.5a12.1,12.1,0,0,1-.5,1.4l-.6,1.5c-.7,2.2-1.5,4.6-2.3,7.3s-.8,2.8-1.1,4.2l-.9,3.3h0a5,5,0,0,0-.2,1.2,99.1,99.1,0,0,0-1.7,10c-.1,1-.3,1.9-.4,2.9s-.1,1.6-.2,2.4c-1.2-2.7-2.4-5.3-3.5-7.5s-.9-1.8-1.3-2.6l-1.2-2.3-2-3.6c-1.2-1.9-1.8-3.1-1.8-3.1l1.1,3.4q.6,1.7,1.2,3.9c.3.7.5,1.5.8,2.4s.4,1.7.7,2.7.6,2.3.9,3.6-1.2,4.7-2.9,10.6-4.5,14.8-7.5,23.1l-1.6,4.3c-.2-3.5-.3-7.2-.2-11s.5-9.3,1-13.6,1.3-8.5,2.1-12a46.8,46.8,0,0,1,1.1-4.7c.4-1.5.7-2.7,1-3.7l1-3.2-1.6,2.9c-.6.9-1.1,2-1.8,3.3l-2.2,4.4c-1.5,3.3-3.1,7.2-4.7,11.4s-3,8.9-4.2,13.5l-.6,2.6v-1.3a175.2,175.2,0,0,1,.2-17.8c.1-1.9.3-3.7.4-5.5s2-5.4,2.9-7.8c1.6-4.1,3-7.4,4-9.8l1.5-3.7-2.2,3.3c-1.3,2.2-3.3,5.2-5.6,8.9a65.3,65.3,0,0,1,2-12.5c.3-1.5.7-2.6.9-3.4l.5-1.1-.6,1.1a30.9,30.9,0,0,0-1.5,3.1,79.8,79.8,0,0,0-3.8,11.2c-.5,2.2-1.1,4.7-1.8,7.2l-.6,2.7-2.8,4.8c-1.6,2.9-3.3,6.1-5,9.4.1-2,.2-3.8.3-5.5.2-3.4.3-6.2.3-8.2s.1-3.1.1-3.1-1.1,4.3-2.9,10.7-4.6,14.8-7.5,23.1c-.6,1.4-1.1,2.9-1.6,4.3-.2-3.5-.3-7.2-.2-11a119.1,119.1,0,0,1,1-13.6,109.6,109.6,0,0,1,2.1-12,46.8,46.8,0,0,1,1.1-4.7c.4-1.5.7-2.7,1-3.7l.9-3.2-1.6,2.9c-.5.9-1.1,2-1.7,3.3s-1.4,2.8-2.2,4.4c-1.5,3.3-3.1,7.2-4.7,11.4a133.1,133.1,0,0,0-4.2,13.5l-.6,2.6a6.2,6.2,0,0,0-.1-1.3c-.2-6,0-12.1.3-17.8s.7-11,1.1-15.6a75.6,75.6,0,0,1,1.8-11.5c.4-1.5.8-2.6,1-3.4l.5-1.1a3.3,3.3,0,0,0-.6,1.1,18,18,0,0,0-1.5,3.1,68.6,68.6,0,0,0-3.8,11.2c-.5,2.2-1.1,4.6-1.8,7.1-.2-1.9-.6-3.7-.9-5.4l3.4-8.6,1.6-3.7-2.2,3.3-3.5,5.6c-.4-1.4-.8-2.8-1.1-4.2a95.3,95.3,0,0,0-3.7-9.9c-.5-1.2-1-2-1.3-2.7l-.4-.9s.1.4.2,1,.5,1.6.8,2.8a83.4,83.4,0,0,1,1.8,10.1c.2,2.8.4,5.8.4,9.1-2,3.3-4.2,7-6.5,11.1s-3.3,6.1-5,9.4c.1-2,.2-3.8.3-5.5.2-3.4.3-6.2.3-8.2s.1-3.1.1-3.1-1.1,4.3-2.9,10.7-4.6,14.8-7.5,23.1c-.6,1.4-1.1,2.9-1.6,4.3-.2-3.5-.3-7.2-.3-11s.5-9.3,1.1-13.6a110.9,110.9,0,0,1,2-12c.4-1.7.8-3.3,1.2-4.7a37.2,37.2,0,0,1,1-3.7l.9-3.2-1.6,2.9c-.5.9-1.1,2-1.7,3.3s-1.5,2.8-2.2,4.4c-1.6,3.3-3.1,7.2-4.7,11.4a133.1,133.1,0,0,0-4.2,13.5l-.6,2.6c0-.4-.1-.8-.1-1.3-.2-6,0-12.1.3-17.8s.7-11,1.1-15.6a64.8,64.8,0,0,1,1.8-11.5c.4-1.5.8-2.6,1-3.4a8.2,8.2,0,0,0,.4-1.1l-.6,1.1c-.3.7-.9,1.7-1.5,3.1a81.3,81.3,0,0,0-3.7,11.2c-.6,2.2-1.1,4.6-1.8,7.1a97.8,97.8,0,0,0-2.8-13,78.9,78.9,0,0,0-3.6-9.9c-.5-1.2-1-2-1.3-2.7l-.4-.9s.1.4.2,1,.5,1.6.8,2.8a69.4,69.4,0,0,1,1.7,10.1,86.8,86.8,0,0,1,.4,14.7c-.2,2.7-.4,5.5-.8,8.3a85.5,85.5,0,0,1-1.4,8.6,193.8,193.8,0,0,1-5.3,20.3c-.3-5-.4-10.2-.5-15.5s0-12.9.2-18.9.4-11.8.7-16.6c.1-2.4.3-4.7.5-6.6s.2-3.7.4-5.2.4-4.4.4-4.4l-1.1,4.3c-.4,1.4-.8,3-1.3,5s-1,4-1.5,6.4c-1.1,4.8-2.2,10.3-3.4,16.3s-2.3,12.4-3.3,18.8c-.3,2.5-.7,5.1-1,7.6q-1.3-5.6-2.4-11.1a115.6,115.6,0,0,1-1.9-15.4c1.1-2.9,2.1-5.7,3.1-8.2,1.6-4.1,3-7.4,3.9-9.8l1.6-3.7-2.2,3.3c-1.3,2.2-3.3,5.2-5.6,9l-1.1,1.7a115.7,115.7,0,0,1,1.2-16.4c.4-2.7.9-5.2,1.3-7.4l.3-1.6a8.3,8.3,0,0,1,.4-1.5l.6-2.6,1.3-4.9-2,4.7c-.3.7-.6,1.6-1,2.5l-.6,1.4a8.8,8.8,0,0,1-.5,1.5c-.7,2.2-1.6,4.6-2.4,7.3s-.7,2.8-1.1,4.2-.5,2.2-.8,3.3h0l-.3,1.2a99.5,99.5,0,0,0-1.6,10,25.4,25.4,0,0,0-.4,2.9,19.4,19.4,0,0,0-.2,2.4c-1.2-2.7-2.4-5.3-3.5-7.5s-.9-1.8-1.3-2.6l-1.2-2.3c-.8-1.4-1.5-2.6-2-3.6l-1.9-3.1s.4,1.3,1.2,3.4.8,2.4,1.2,3.9.5,1.5.7,2.4.5,1.7.8,2.7.6,2.3.9,3.6-1.2,4.7-2.9,10.6-4.6,14.8-7.5,23.1c-.6,1.4-1.1,2.9-1.6,4.3-.2-3.5-.3-7.2-.3-11s.5-9.3,1.1-13.6,1.2-8.5,2-12c.4-1.7.8-3.3,1.2-4.7a37.2,37.2,0,0,1,1-3.7l.9-3.2-1.6,2.9c-.5.9-1.1,2-1.7,3.3s-1.4,2.8-2.2,4.4c-1.6,3.3-3.1,7.2-4.7,11.4a133.1,133.1,0,0,0-4.2,13.5l-.6,2.6c0-.4-.1-.8-.1-1.3-.2-6,0-12.1.3-17.8s.7-11,1.1-15.6a75.6,75.6,0,0,1,1.8-11.5c.4-1.5.8-2.6,1-3.4a8.2,8.2,0,0,0,.4-1.1l-.6,1.1c-.3.7-.9,1.7-1.5,3.1a81.3,81.3,0,0,0-3.7,11.2c-.5,2.2-1.1,4.6-1.8,7.1a97.8,97.8,0,0,0-2.8-13,78.9,78.9,0,0,0-3.6-9.9c-.5-1.2-1-2-1.3-2.7l-.4-.9s.1.4.2,1,.5,1.6.8,2.8a69.4,69.4,0,0,1,1.7,10.1,86.8,86.8,0,0,1,.4,14.7c-.2,2.7-.4,5.5-.8,8.3a85.5,85.5,0,0,1-1.4,8.6,193.8,193.8,0,0,1-5.3,20.3c-.3-5-.4-10.2-.5-15.5s0-12.9.2-18.9.4-11.8.7-16.6c.2-2.4.3-4.7.5-6.6s.2-3.7.4-5.2.4-4.4.4-4.4l-1.1,4.3c-.4,1.4-.8,3-1.3,5s-.9,4-1.5,6.4c-1.1,4.8-2.2,10.3-3.4,16.3l-1.2,6.2c-2-24.5-3-46.7-3-46.7s-2.9,28-4.5,56.2l-.6,9.2a2,2,0,0,1-3.9.1c-.5-4.5-.9-9.1-1.3-13.7-.7-8.5-1.3-17.1-1.7-24.9l1.9-4.5c.9-2.4,1.5-3.7,1.5-3.7l-2.1,3.3-1.4,2.1c-.2-3.7-.3-7.2-.4-10.4-.2-5.2-.2-9.6-.3-12.7v-4.8s-.3,1.8-.7,4.8-1,7.3-1.6,12.5-1.4,11.8-2,18.7c-2,3.2-4.2,6.9-6.4,10.8a111.7,111.7,0,0,0-4.8-10.7c-.5-.9-.9-1.8-1.3-2.6l-1.2-2.3-2-3.6-1.9-3.1s.5,1.3,1.2,3.4.8,2.4,1.2,3.9.5,1.5.8,2.4.4,1.7.7,2.7,1.1,4.3,1.6,6.7-1.2,4.4-2.1,7.5c-1.8,6.4-4.5,14.8-7.5,23.1l-1.6,4.3c-.2-3.5-.3-7.2-.2-11s.5-9.3,1-13.6,1.3-8.5,2.1-12a46.8,46.8,0,0,1,1.1-4.7c.4-1.5.7-2.7,1-3.7l1-3.2-1.6,2.9c-.6.9-1.1,2-1.8,3.3l-2.2,4.4c-1.5,3.3-3.1,7.2-4.7,11.4s-3,8.9-4.2,13.5l-.6,2.6v-1.3a175.2,175.2,0,0,1,.2-17.8c.4-5.7.7-11,1.1-15.6a63.6,63.6,0,0,1,1.9-11.5,20.8,20.8,0,0,1,1-3.4,7,7,0,0,1,.4-1.1l-.6,1.1a30.9,30.9,0,0,0-1.5,3.1,79.8,79.8,0,0,0-3.8,11.2c-.5,2.2-1.1,4.6-1.7,7.1a97.8,97.8,0,0,0-2.8-13,76.7,76.7,0,0,0-3.7-9.9c-.5-1.2-1-2-1.2-2.7l-.5-.9.3,1c.1.7.4,1.6.7,2.8a83.4,83.4,0,0,1,1.8,10.1,99.6,99.6,0,0,1,.3,14.7c-.1,2.7-.4,5.5-.7,8.3s-.9,5.7-1.4,8.6a193.7,193.7,0,0,1-5.4,20.3c-.2-5-.4-10.2-.4-15.5s-.1-12.9.1-18.9.4-11.8.7-16.6c.2-2.4.3-4.7.5-6.6s.3-3.7.4-5.2.4-4.4.4-4.4l-1.1,4.3c-.4,1.4-.8,3-1.2,5s-1,4-1.5,6.4c-1.1,4.8-2.3,10.3-3.5,16.3s-2.2,12.4-3.2,18.8c-.4,2.5-.8,5.1-1.1,7.6-.9-3.7-1.7-7.4-2.3-11.1a115.9,115.9,0,0,1-2-15.4c1.1-2.9,2.2-5.7,3.1-8.2,1.6-4.1,3-7.4,4-9.8l1.5-3.7-2.1,3.3c-1.4,2.2-3.4,5.2-5.7,9l-1,1.7a116.5,116.5,0,0,1,1.1-16.4c.5-2.7.9-5.2,1.3-7.4l.3-1.6a8.3,8.3,0,0,0,.4-1.5c.2-.9.5-1.8.7-2.6.7-3.1,1.2-4.9,1.2-4.9l-1.9,4.7c-.3.7-.7,1.6-1,2.5l-.6,1.4a8.8,8.8,0,0,0-.5,1.5c-.8,2.2-1.6,4.6-2.4,7.3s-.8,2.8-1.1,4.2l-.9,3.3h0a5,5,0,0,0-.2,1.2,99.1,99.1,0,0,0-1.7,10c-.1.9-.2,1.9-.4,2.9s-.1,1.6-.2,2.4c-1.2-2.7-2.3-5.3-3.5-7.5l-1.3-2.6-1.2-2.3c-.7-1.4-1.4-2.6-2-3.6s-1.8-3.1-1.8-3.1l1.1,3.4,1.3,3.9c.2.7.4,1.5.7,2.4s.5,1.7.7,2.7l.9,3.6c-.1.6-1.2,4.7-2.9,10.6s-4.5,14.8-7.5,23.1c-.5,1.4-1,2.9-1.6,4.3-.2-3.5-.3-7.2-.2-11s.5-9.3,1-13.6,1.3-8.5,2.1-12c.4-1.7.8-3.3,1.1-4.7s.7-2.7,1-3.7l1-3.2-1.6,2.9-1.8,3.3c-.7,1.3-1.4,2.8-2.1,4.4-1.6,3.3-3.2,7.2-4.8,11.4s-2.9,8.9-4.2,13.5l-.6,2.6v-1.3a175.2,175.2,0,0,1,.2-17.8c.4-5.7.7-11,1.1-15.6a63.6,63.6,0,0,1,1.9-11.5,20.8,20.8,0,0,1,1-3.4,7,7,0,0,1,.4-1.1l-.6,1.1a30.9,30.9,0,0,0-1.5,3.1,69.6,69.6,0,0,0-3.7,11.2c-.6,2.2-1.2,4.6-1.8,7.1a97.8,97.8,0,0,0-2.8-13,76.7,76.7,0,0,0-3.7-9.9l-1.2-2.7-.5-.9.3,1a22.6,22.6,0,0,1,.7,2.8,83.4,83.4,0,0,1,1.8,10.1,99.6,99.6,0,0,1,.3,14.7c-.1,2.7-.4,5.5-.7,8.3s-.9,5.7-1.4,8.6a193.7,193.7,0,0,1-5.4,20.3c-.2-5-.4-10.2-.4-15.5s0-12.9.1-18.9.4-11.8.8-16.6c.1-2.4.3-4.7.4-6.6s.3-3.7.4-5.2.4-4.4.4-4.4l-1.1,4.3c-.3,1.4-.8,3-1.2,5s-1,4-1.5,6.4c-1.1,4.8-2.3,10.3-3.5,16.3-.3,2-.7,4.1-1.1,6.2-2-24.5-3.1-46.7-3.1-46.7s-1.9,47.2-5.7,55.9c-.8,1.7-2.3,3-3.9,2.1a.1.1,0,0,0-.1-.1c-3.2-4.5-2.1-27.5-2.5-36.7l1.1-2.5-1.1,1.7c-.1-2.4-.2-4.6-.2-6.7-.2-5.2-.3-9.6-.3-12.7s-.1-4.8-.1-4.8-.2,1.8-.7,4.8-1,7.3-1.6,12.5-1,8.8-1.5,13.8l-2.3,3.7c-1.7,2.8-3.6,5.9-5.6,9.4-1.3-3-2.5-5.7-3.8-8.1l-1.2-2.6-1.3-2.3c-.7-1.4-1.4-2.6-2-3.6s-1.8-3.1-1.8-3.1l1.1,3.4,1.3,3.9c.2.7.4,1.5.7,2.4s.5,1.7.7,2.7c1.1,3.8,2,8.3,2.9,13.2l-3.7,7.1c.2-2,.3-3.8.3-5.5.2-3.4.3-6.2.3-8.2s.1-3.1.1-3.1-1.1,4.3-2.9,10.7-4.5,14.8-7.5,23.1l-1.6,4.3c-.2-3.5-.3-7.2-.2-11a119.1,119.1,0,0,1,1-13.6,109.6,109.6,0,0,1,2.1-12,46.8,46.8,0,0,1,1.1-4.7c.4-1.5.7-2.7,1-3.7s.9-3.2.9-3.2l-1.6,2.9c-.5.9-1.1,2-1.7,3.3l-2.2,4.4c-1.5,3.3-3.1,7.2-4.7,11.4a133.1,133.1,0,0,0-4.2,13.5l-.6,2.6a6.2,6.2,0,0,0-.1-1.3c-.2-6,0-12.1.3-17.8s.7-11,1.1-15.6a75.6,75.6,0,0,1,1.8-11.5c.4-1.5.8-2.6,1-3.4l.5-1.1a3.3,3.3,0,0,0-.6,1.1,18,18,0,0,0-1.5,3.1,68.6,68.6,0,0,0-3.8,11.2c-.5,2.2-1.1,4.6-1.8,7.1a118,118,0,0,0-2.7-13,95.3,95.3,0,0,0-3.7-9.9c-.5-1.2-1-2-1.3-2.7l-.4-.9.3,1c.1.7.4,1.6.7,2.8a83.4,83.4,0,0,1,1.8,10.1,99.6,99.6,0,0,1,.3,14.7,80.2,80.2,0,0,1-.8,8.3,85.5,85.5,0,0,1-1.4,8.6,171.9,171.9,0,0,1-5.3,20.3c-.3-5-.4-10.2-.5-15.5s0-12.9.2-18.9.4-11.8.7-16.6c.2-2.4.3-4.7.5-6.6s.3-3.7.4-5.2.4-4.4.4-4.4l-1.1,4.3c-.4,1.4-.8,3-1.2,5l-1.6,6.4c-1.1,4.8-2.2,10.3-3.4,16.3s-2.2,12.4-3.2,18.8c-.4,2.5-.8,5.1-1.1,7.6q-1.4-5.6-2.4-11.1a115.6,115.6,0,0,1-1.9-15.4c1.1-2.9,2.1-5.7,3.1-8.2,1.6-4.1,3-7.4,4-9.8s1.5-3.7,1.5-3.7l-2.2,3.3c-1.3,2.2-3.3,5.2-5.6,9l-1,1.7a116.5,116.5,0,0,1,1.1-16.4c.4-2.7.9-5.2,1.3-7.4l.3-1.6c.1-.5.3-1,.4-1.5l.6-2.6,1.3-4.9-2,4.7-1,2.5-.6,1.4a8.8,8.8,0,0,1-.5,1.5l-2.4,7.3c-.3,1.3-.7,2.8-1.1,4.2s-.5,2.2-.8,3.3h0l-.3,1.2c-.5,3.2-1.3,6.5-1.6,10l-.4,2.9a19.4,19.4,0,0,0-.2,2.4c-1.2-2.7-2.4-5.3-3.5-7.5l-1.3-2.6-1.2-2.3-2-3.6-1.9-3.1s.5,1.3,1.2,3.4.8,2.4,1.2,3.9.5,1.5.8,2.4.4,1.7.7,2.7l.9,3.6c-.1.6-1.2,4.7-2.9,10.6s-4.5,14.8-7.5,23.1l-1.6,4.3c-.2-3.5-.3-7.2-.2-11a119.1,119.1,0,0,1,1-13.6c.6-4.4,1.3-8.5,2.1-12a46.8,46.8,0,0,1,1.1-4.7c.4-1.5.7-2.7,1-3.7l1-3.2-1.6,2.9a24.5,24.5,0,0,0-1.8,3.3c-.7,1.3-1.4,2.8-2.2,4.4-1.5,3.3-3.1,7.2-4.7,11.4s-3,8.9-4.2,13.5l-.6,2.6a6.2,6.2,0,0,0-.1-1.3c-.2-6,0-12.1.3-17.8s.7-11,1.1-15.6a75.6,75.6,0,0,1,1.8-11.5c.4-1.5.8-2.6,1-3.4l.5-1.1-.6,1.1a30.9,30.9,0,0,0-1.5,3.1,79.8,79.8,0,0,0-3.8,11.2c-.5,2.2-1.1,4.6-1.8,7.1a118,118,0,0,0-2.7-13,95.3,95.3,0,0,0-3.7-9.9c-.5-1.2-1-2-1.3-2.7l-.4-.9.3,1c.1.7.4,1.6.7,2.8a83.4,83.4,0,0,1,1.8,10.1,99.6,99.6,0,0,1,.3,14.7,80.2,80.2,0,0,1-.8,8.3,85.5,85.5,0,0,1-1.4,8.6,171.9,171.9,0,0,1-5.3,20.3c-.2-5-.4-10.2-.5-15.5s0-12.9.2-18.9.4-11.8.7-16.6c.2-2.4.3-4.7.5-6.6s.3-3.7.4-5.2.4-4.4.4-4.4l-1.1,4.3c-.4,1.4-.8,3-1.2,5s-1,4-1.6,6.4c-1.1,4.8-2.2,10.3-3.4,16.3-.4,2-.8,4.1-1.1,6.2-2.1-24.5-3.1-46.7-3.1-46.7s-2.9,28-4.5,56.2c-.8,11.8-1.3,23.6-1.7,33.3-1.4-10.2-3-23.9-4.1-37.7-.7-8.5-1.3-17.1-1.6-24.9l1.8-4.5,1.5-3.7-2.1,3.3-1.4,2.1c-.2-3.7-.3-7.2-.4-10.4-.1-5.2-.2-9.6-.3-12.7v-4.8s-.3,1.8-.7,4.8-1,7.3-1.6,12.5-1.4,11.8-2,18.7c-2,3.2-4.1,6.9-6.4,10.8a111.7,111.7,0,0,0-4.8-10.7c-.4-.9-.9-1.8-1.3-2.6l-1.2-2.3c-.7-1.4-1.4-2.6-2-3.6s-1.8-3.1-1.8-3.1l1.1,3.4q.6,1.7,1.2,3.9c.3.7.5,1.5.8,2.4s.4,1.7.7,2.7,1.1,4.3,1.6,6.7-1.2,4.4-2.1,7.5c-1.8,6.4-4.5,14.8-7.5,23.1-.5,1.4-1,2.9-1.6,4.3-.2-3.5-.3-7.2-.2-11s.5-9.3,1-13.6,1.3-8.5,2.1-12c.4-1.7.8-3.3,1.1-4.7s.7-2.7,1-3.7l1-3.2-1.6,2.9-1.8,3.3c-.7,1.3-1.4,2.8-2.1,4.4-1.6,3.3-3.2,7.2-4.8,11.4s-2.9,8.9-4.2,13.5l-.6,2.6v-1.3a175.2,175.2,0,0,1,.2-17.8c.4-5.7.8-11,1.1-15.6a63.6,63.6,0,0,1,1.9-11.5,20.8,20.8,0,0,1,1-3.4,8.2,8.2,0,0,0,.4-1.1l-.6,1.1a30.9,30.9,0,0,0-1.5,3.1,69.6,69.6,0,0,0-3.7,11.2c-.6,2.2-1.2,4.6-1.8,7.1a97.8,97.8,0,0,0-2.8-13,76.7,76.7,0,0,0-3.7-9.9l-1.2-2.7-.5-.9.3,1a22.6,22.6,0,0,1,.7,2.8,83.4,83.4,0,0,1,1.8,10.1,99.6,99.6,0,0,1,.3,14.7c-.1,2.7-.4,5.5-.7,8.3s-.9,5.7-1.4,8.6a193.7,193.7,0,0,1-5.4,20.3c-.2-5-.4-10.2-.4-15.5s0-12.9.1-18.9.4-11.8.8-16.6c.1-2.4.3-4.7.4-6.6s.3-3.7.4-5.2.4-4.4.4-4.4l-1.1,4.3c-.3,1.4-.7,3-1.2,5s-1,4-1.5,6.4c-1.1,4.8-2.3,10.3-3.4,16.3s-2.3,12.4-3.3,18.8c-.4,2.5-.7,5.1-1.1,7.6-.8-3.7-1.7-7.4-2.3-11.1a135.2,135.2,0,0,1-2-15.4l3.2-8.2c1.6-4.1,2.9-7.4,3.9-9.8l1.5-3.7-2.1,3.3c-1.4,2.2-3.3,5.2-5.6,9-.4.5-.7,1.1-1.1,1.7a116.5,116.5,0,0,1,1.1-16.4l1.4-7.4.3-1.6.3-1.5c.3-.9.5-1.8.7-2.6.8-3.1,1.2-4.9,1.2-4.9l-1.9,4.7c-.3.7-.7,1.6-1,2.5l-.6,1.4a8.8,8.8,0,0,0-.5,1.5c-.7,2.2-1.6,4.6-2.4,7.3s-.7,2.8-1.1,4.2l-.9,3.3h0c-.1.4-.1.8-.2,1.2-.6,3.2-1.3,6.5-1.7,10l-.3,2.9-.3,2.4c-1.2-2.7-2.3-5.3-3.5-7.5l-1.2-2.6-1.3-2.3c-.7-1.4-1.4-2.6-2-3.6l-1.8-3.1,1.1,3.4,1.3,3.9c.2.7.4,1.5.7,2.4s.5,1.7.7,2.7l.9,3.6c-.1.6-1.2,4.7-2.9,10.6s-4.5,14.8-7.5,23.1c-.5,1.4-1,2.9-1.6,4.3-.2-3.5-.3-7.2-.2-11s.5-9.3,1-13.6,1.3-8.5,2.1-12c.4-1.7.8-3.3,1.1-4.7s.7-2.7,1-3.7l1-3.2-1.6,2.9-1.8,3.3c-.6,1.3-1.4,2.8-2.1,4.4-1.6,3.3-3.2,7.2-4.8,11.4s-2.9,8.9-4.1,13.5a12.2,12.2,0,0,0-.6,2.6,5.3,5.3,0,0,1-.1-1.3,150,150,0,0,1,.3-17.8c.3-5.7.7-11,1-15.6a63.6,63.6,0,0,1,1.9-11.5,20.8,20.8,0,0,1,1-3.4,8.2,8.2,0,0,0,.4-1.1l-.6,1.1a30.9,30.9,0,0,0-1.5,3.1,81.3,81.3,0,0,0-3.7,11.2c-.6,2.2-1.2,4.6-1.8,7.1a97.8,97.8,0,0,0-2.8-13,76.7,76.7,0,0,0-3.7-9.9l-1.2-2.7-.5-.9.3,1a22.6,22.6,0,0,1,.7,2.8,56.6,56.6,0,0,1,1.8,10.1,87.5,87.5,0,0,1,.3,14.7c-.1,2.7-.4,5.5-.7,8.3s-.9,5.7-1.4,8.6a193.7,193.7,0,0,1-5.4,20.3c-.2-5-.4-10.2-.4-15.5s0-12.9.1-18.9.5-11.8.8-16.6c.1-2.4.3-4.7.4-6.6s.3-3.7.4-5.2.4-4.4.4-4.4l-1.1,4.3c-.3,1.4-.7,3-1.2,5s-1,4-1.5,6.4c-1.1,4.8-2.3,10.3-3.4,16.3l-1.2,6.2c-2-24.5-3.1-46.7-3.1-46.7s-2.8,28-4.5,56.2c-.1,2.7-.3,5.3-.4,8s-4,2.6-4.2.1l-1.2-12.5c-1.1-13.8-1.8-27.7-2.1-38.1-.2-5.2-.3-9.6-.3-12.7s-.1-4.8-.1-4.8-.2,1.8-.6,4.8-1,7.3-1.7,12.5c-1.2,10.3-2.6,24.2-3.6,38.1-.1,1.4-.2,2.7-.2,4.1-1.2-3.8-2.5-7.5-3.8-10.9a127.1,127.1,0,0,0-5.6-12.5l-1.2-2.6a12.7,12.7,0,0,1-1.2-2.3l-2.1-3.6-1.8-3.1s.4,1.3,1.2,3.4.7,2.4,1.2,3.9.5,1.5.7,2.4.5,1.7.7,2.7c1.1,3.7,2,8.1,2.9,12.8s1.4,9.9,1.8,15,.5,10.2.4,15,0,43,0,43h682s0-34.5.6-39.7a149.5,149.5,0,0,1,3.2-16.5c1.5-5.6,3.2-11.2,5-16.4s3.6-10,5.2-14.1,3-7.4,4-9.8,1.5-3.7,1.5-3.7ZM644.5,535.5c.1-2,.2-3.8.3-5.5.1-3.4.2-6.2.3-8.2s.1-2.6.1-3c.6,2.9,1.3,6,1.9,9.2l.3,1.9C646.4,531.7,645.4,533.6,644.5,535.5Zm62.1,0c.1-2,.2-3.8.3-5.5s.1-3.5.2-4.9a29.3,29.3,0,0,1,.5,2.9c.3,1.4.5,2.8.7,4.2A34.1,34.1,0,0,0,706.6,535.5Zm10.3-1.8-.3,4.1c-.5-1.7-1.1-3.5-1.7-5.1s1-2.9,1.4-4.3l1.2-3.3Zm64.5,1.8c.2-2,.3-3.8.3-5.5.2-3.4.3-6.2.3-8.2s.1-2.6.1-3c.7,2.9,1.3,6,1.9,9.2l.3,1.9Zm75-1.8-.3,4.1c-.9-3.1-1.9-6-3-8.9.1-.1.1-.3.2-.5,1.6-4.4,3.1-8.6,4.5-12.3C857.3,521.7,856.8,527.7,856.4,533.7Zm64.6,1.8c.1-2,.2-3.8.3-5.5.1-3.4.2-6.2.3-8.2v-3c.7,2.9,1.3,6,1.9,9.2a14.8,14.8,0,0,1,.3,1.9C922.9,531.7,921.9,533.6,921,535.5Zm62.1,0c.1-2,.2-3.8.3-5.5s.1-3.5.2-4.9c.2,1,.3,1.9.5,2.9s.5,2.8.7,4.2A34.1,34.1,0,0,0,983.1,535.5Zm10.3-1.8-.3,4.1c-.5-1.7-1.1-3.5-1.7-5.1s.9-2.9,1.4-4.3l1.2-3.3Zm64.5,1.8c.1-2,.2-3.8.3-5.5.2-3.4.3-6.2.3-8.2s.1-2.6.1-3c.7,2.9,1.3,6,1.9,9.2l.3,1.9C1059.8,531.7,1058.9,533.6,1057.9,535.5Zm72.7-6.6a85.5,85.5,0,0,1-1.4,8.6,221,221,0,0,1-8.1,28.7c.1-1.6.3-3.2.5-4.9a129.4,129.4,0,0,1,3.2-16.5c1.4-5.6,3.2-11.2,5-16.4l1.3-3.7C1131,526.1,1130.8,527.5,1130.6,528.9Zm61.2,6.6c.2-2,.3-3.8.3-5.5.2-3.4.3-6.2.4-8.2v-3c.7,2.9,1.3,6,1.9,9.2l.3,1.9Z"/><path class="cls-1" d="M1332.2,482.8c0,.4-.1,1.4-.1,3s-.2,4.8-.3,8.2c-.1,1.7-.2,3.5-.3,5.5.9-1.9,1.9-3.8,2.9-5.6l-.3-1.9C1333.5,488.8,1332.8,485.7,1332.2,482.8Z"/><path class="cls-1" d="M1394.1,489.1c-.1,1.4-.1,3.1-.2,4.9s-.2,3.5-.3,5.5a35.9,35.9,0,0,1,1.7-3.4c-.2-1.4-.4-2.7-.7-4.1A29.3,29.3,0,0,0,1394.1,489.1Z"/><path class="cls-1" d="M1959.2,468.1c-1.3,2.2-3.3,5.2-5.6,9s-4.9,8.1-7.7,12.9l-5,9.5c.2-2,.3-3.8.3-5.5.2-3.4.3-6.2.4-8.2v-3.1s-1.1,4.3-2.9,10.7-4.5,14.8-7.5,23.1l-1.6,4.3c-.2-3.5-.3-7.2-.2-11a119.1,119.1,0,0,1,1-13.6c.6-4.4,1.3-8.5,2.1-12,.3-1.7.7-3.3,1.1-4.8l1-3.6c.6-2.1,1-3.2,1-3.2l-1.6,2.9a24.5,24.5,0,0,0-1.8,3.3c-.7,1.3-1.4,2.8-2.2,4.4-1.5,3.3-3.1,7.2-4.7,11.4s-3,8.9-4.2,13.5l-.6,2.6v-1.3a175.2,175.2,0,0,1,.2-17.8c.4-5.7.7-11,1.1-15.6a79.4,79.4,0,0,1,1.8-11.6c.4-1.4.8-2.5,1-3.3l.5-1.1-.6,1.1a30.9,30.9,0,0,0-1.5,3.1,79.8,79.8,0,0,0-3.8,11.2c-.5,2.2-1.1,4.6-1.8,7.1a98.6,98.6,0,0,0-2.7-13,76.7,76.7,0,0,0-3.7-9.9c-.5-1.2-1-2.1-1.3-2.7l-.4-.9.3,1c.1.6.4,1.6.7,2.8a83.4,83.4,0,0,1,1.8,10.1,99.6,99.6,0,0,1,.3,14.7c-.1,2.7-.4,5.5-.7,8.3s-.9,5.7-1.4,8.6a193.7,193.7,0,0,1-5.4,20.3c-.2-5-.4-10.3-.5-15.5s0-12.9.2-18.9.4-11.8.7-16.6c.2-2.5.3-4.7.5-6.7s.3-3.7.4-5.1.4-4.4.4-4.4l-1.1,4.3c-.4,1.4-.8,3-1.2,4.9l-1.6,6.5c-1.1,4.8-2.2,10.3-3.4,16.3s-2.2,12.4-3.2,18.8c-.4,2.5-.8,5-1.1,7.6q-1.4-5.5-2.4-11.1a115.6,115.6,0,0,1-1.9-15.4c1.1-2.9,2.1-5.7,3.1-8.2,1.6-4.1,3-7.5,4-9.8s1.5-3.8,1.5-3.8l-2.2,3.4c-1.3,2.2-3.3,5.2-5.6,9l-1,1.7a116.5,116.5,0,0,1,1.1-16.4c.4-2.7.9-5.2,1.3-7.4l.3-1.6c.1-.5.3-1,.4-1.5l.6-2.6,1.3-4.9-1.9,4.7c-.4.7-.7,1.6-1.1,2.5a12.1,12.1,0,0,1-.5,1.4l-.6,1.5c-.7,2.2-1.5,4.6-2.3,7.3s-.8,2.8-1.1,4.2l-.9,3.3h0a5,5,0,0,0-.2,1.2,94.5,94.5,0,0,0-1.7,10c-.1.9-.3,1.9-.4,2.9s-.1,1.6-.2,2.4l-3.5-7.6-1.3-2.5-1.2-2.3-2-3.6-1.8-3.1,1.1,3.4a37.5,37.5,0,0,1,1.2,3.9c.3.7.5,1.5.8,2.4s.4,1.7.7,2.6l.9,3.7c-.1.5-1.2,4.7-2.9,10.6s-4.5,14.8-7.5,23.1l-1.6,4.3c-.2-3.5-.3-7.2-.2-11s.5-9.3,1-13.6,1.3-8.5,2.1-12c.3-1.7.7-3.3,1.1-4.8l1-3.6,1-3.2-1.6,2.9c-.6.9-1.1,2-1.8,3.3l-2.2,4.4c-1.5,3.3-3.1,7.2-4.7,11.4s-3,8.9-4.2,13.5l-.6,2.6v-1.3a175.2,175.2,0,0,1,.2-17.8c.1-1.9.3-3.7.4-5.5s2-5.4,2.9-7.8c1.6-4.1,3-7.5,4-9.8l1.5-3.8-2.2,3.4c-1.3,2.2-3.3,5.2-5.6,8.9a66.5,66.5,0,0,1,2-12.6c.3-1.4.7-2.5.9-3.3l.5-1.1-.6,1.1a30.9,30.9,0,0,0-1.5,3.1,79.8,79.8,0,0,0-3.8,11.2c-.5,2.2-1.1,4.7-1.8,7.2l-.6,2.7-2.8,4.7-5,9.5c.1-2,.2-3.8.3-5.5.2-3.4.3-6.2.3-8.2s.1-3.1.1-3.1-1.1,4.3-2.9,10.7-4.6,14.8-7.5,23.1c-.6,1.4-1.1,2.9-1.6,4.3-.2-3.5-.3-7.2-.2-11a119.1,119.1,0,0,1,1-13.6,109.6,109.6,0,0,1,2.1-12c.3-1.7.7-3.3,1.1-4.8l1-3.6.9-3.2-1.6,2.9c-.5.9-1.1,2-1.7,3.3s-1.4,2.8-2.2,4.4c-1.5,3.3-3.1,7.2-4.7,11.4a133.1,133.1,0,0,0-4.2,13.5l-.6,2.6a5.7,5.7,0,0,0-.1-1.3c-.2-6,0-12.1.3-17.8s.7-11,1.1-15.6a79.4,79.4,0,0,1,1.8-11.6c.4-1.4.8-2.5,1-3.3l.5-1.1a3.3,3.3,0,0,0-.6,1.1,18,18,0,0,0-1.5,3.1,68.6,68.6,0,0,0-3.8,11.2c-.5,2.2-1.1,4.6-1.8,7.1-.2-1.9-.6-3.7-.9-5.4l3.4-8.6,1.6-3.8-2.2,3.4-3.5,5.6c-.4-1.4-.8-2.9-1.1-4.2a95.3,95.3,0,0,0-3.7-9.9c-.5-1.2-1-2.1-1.3-2.7l-.4-.9s.1.4.2,1,.5,1.6.8,2.8a83.4,83.4,0,0,1,1.8,10.1c.2,2.8.4,5.8.4,9.1-2,3.3-4.2,7-6.5,11s-3.3,6.2-5,9.5c.1-2,.2-3.8.3-5.5.2-3.4.3-6.2.3-8.2s.1-3.1.1-3.1-1.1,4.3-2.9,10.7-4.6,14.8-7.5,23.1c-.6,1.4-1.1,2.9-1.6,4.3-.2-3.5-.3-7.2-.3-11s.5-9.3,1.1-13.6a110.9,110.9,0,0,1,2-12q.6-2.6,1.2-4.8c.3-1.4.7-2.6,1-3.6l.9-3.2-1.6,2.9c-.5.9-1.1,2-1.7,3.3s-1.5,2.8-2.2,4.4c-1.6,3.3-3.1,7.2-4.7,11.4a133.1,133.1,0,0,0-4.2,13.5l-.6,2.6c0-.4-.1-.9-.1-1.3-.2-6,0-12.1.3-17.8s.7-11,1.1-15.6a67.7,67.7,0,0,1,1.8-11.6c.4-1.4.8-2.5,1-3.3a8.2,8.2,0,0,0,.4-1.1l-.6,1.1c-.3.7-.9,1.7-1.5,3.1a81.3,81.3,0,0,0-3.7,11.2c-.6,2.2-1.1,4.6-1.8,7.1a97.8,97.8,0,0,0-2.8-13,78.9,78.9,0,0,0-3.6-9.9c-.5-1.2-1-2.1-1.3-2.7l-.4-.9s.1.4.2,1,.5,1.6.8,2.8a69.4,69.4,0,0,1,1.7,10.1,86.8,86.8,0,0,1,.4,14.7c-.2,2.7-.4,5.5-.8,8.3s-.8,5.7-1.4,8.6a193.8,193.8,0,0,1-5.3,20.3c-.3-5-.4-10.3-.5-15.5s0-12.9.2-18.9.4-11.8.7-16.6c.1-2.5.3-4.7.5-6.7s.2-3.7.4-5.1.4-4.4.4-4.4l-1.1,4.3c-.4,1.4-.8,3-1.3,4.9s-1,4.1-1.5,6.5c-1.1,4.8-2.2,10.3-3.4,16.3s-2.3,12.4-3.3,18.8c-.3,2.5-.7,5-1,7.6q-1.3-5.5-2.4-11.1a115.6,115.6,0,0,1-1.9-15.4c1.1-2.9,2.1-5.7,3.1-8.2l3.9-9.8,1.6-3.8-2.2,3.4c-1.3,2.2-3.3,5.2-5.6,9l-1.1,1.7a115.7,115.7,0,0,1,1.2-16.4c.4-2.7.9-5.2,1.3-7.4l.3-1.6a8.3,8.3,0,0,1,.4-1.5l.6-2.6,1.3-4.9-2,4.7c-.3.7-.6,1.6-1,2.5l-.6,1.4a8.8,8.8,0,0,1-.5,1.5c-.7,2.2-1.6,4.6-2.4,7.3s-.7,2.8-1.1,4.2-.5,2.2-.8,3.3h0l-.3,1.2a95.1,95.1,0,0,0-1.6,10,25.4,25.4,0,0,0-.4,2.9,19.4,19.4,0,0,0-.2,2.4l-3.5-7.6c-.5-.8-.9-1.7-1.3-2.5l-1.2-2.3c-.8-1.4-1.5-2.6-2-3.6l-1.9-3.1,1.2,3.4a37.5,37.5,0,0,1,1.2,3.9c.2.7.5,1.5.7,2.4s.5,1.7.8,2.6l.9,3.7c-.2.5-1.2,4.7-2.9,10.6s-4.6,14.8-7.5,23.1c-.6,1.4-1.1,2.9-1.6,4.3-.2-3.5-.3-7.2-.3-11s.5-9.3,1.1-13.6,1.2-8.5,2-12q.6-2.6,1.2-4.8c.3-1.4.7-2.6,1-3.6l.9-3.2-1.6,2.9c-.5.9-1.1,2-1.7,3.3s-1.4,2.8-2.2,4.4c-1.6,3.3-3.1,7.2-4.7,11.4a133.1,133.1,0,0,0-4.2,13.5l-.6,2.6c0-.4-.1-.9-.1-1.3-.2-6,0-12.1.3-17.8s.7-11,1.1-15.6a79.4,79.4,0,0,1,1.8-11.6c.4-1.4.8-2.5,1-3.3a8.2,8.2,0,0,0,.4-1.1l-.6,1.1c-.3.7-.9,1.7-1.5,3.1a81.3,81.3,0,0,0-3.7,11.2c-.5,2.2-1.1,4.6-1.8,7.1a97.8,97.8,0,0,0-2.8-13,78.9,78.9,0,0,0-3.6-9.9c-.5-1.2-1-2.1-1.3-2.7l-.4-.9s.1.4.2,1,.5,1.6.8,2.8a69.4,69.4,0,0,1,1.7,10.1,86.8,86.8,0,0,1,.4,14.7c-.2,2.7-.4,5.5-.8,8.3s-.8,5.7-1.4,8.6a193.8,193.8,0,0,1-5.3,20.3c-.3-5-.4-10.3-.5-15.5s0-12.9.2-18.9.4-11.8.7-16.6c.2-2.5.3-4.7.5-6.7s.2-3.7.4-5.1.4-4.4.4-4.4l-1.1,4.3c-.4,1.4-.8,3-1.3,4.9s-.9,4.1-1.5,6.5c-1.1,4.8-2.2,10.3-3.4,16.3l-1.2,6.2c-2-24.5-3-46.7-3-46.7s-2.9,28-4.5,56.2l-.6,9.2a2,2,0,0,1-3.9.1c-.5-4.5-.9-9.1-1.3-13.7-.7-8.5-1.3-17.1-1.7-24.9l1.9-4.5c.9-2.4,1.5-3.8,1.5-3.8l-2.1,3.4-1.4,2.1c-.2-3.7-.3-7.2-.4-10.4-.2-5.3-.2-9.6-.3-12.7v-4.8s-.3,1.8-.7,4.8-1,7.3-1.6,12.5-1.4,11.8-2,18.7c-2,3.2-4.2,6.9-6.4,10.8-1.6-4-3.2-7.7-4.8-10.8-.5-.8-.9-1.7-1.3-2.5l-1.2-2.3-2-3.6-1.9-3.1s.5,1.2,1.2,3.4a37.5,37.5,0,0,1,1.2,3.9c.3.7.5,1.5.8,2.4s.4,1.7.7,2.6,1.1,4.4,1.6,6.8-1.2,4.4-2.1,7.5c-1.8,6.3-4.5,14.8-7.5,23.1l-1.6,4.3c-.2-3.5-.3-7.2-.2-11s.5-9.3,1-13.6,1.3-8.5,2.1-12c.3-1.7.7-3.3,1.1-4.8l1-3.6c.6-2.1,1-3.2,1-3.2l-1.6,2.9c-.6.9-1.1,2-1.8,3.3s-1.4,2.8-2.2,4.4c-1.5,3.3-3.1,7.2-4.7,11.4s-3,8.9-4.2,13.5l-.6,2.6v-1.3a175.2,175.2,0,0,1,.2-17.8c.4-5.7.7-11,1.1-15.6a66.5,66.5,0,0,1,1.9-11.6,22.5,22.5,0,0,1,1-3.3,7,7,0,0,1,.4-1.1l-.6,1.1a30.9,30.9,0,0,0-1.5,3.1,79.8,79.8,0,0,0-3.8,11.2c-.5,2.2-1.1,4.6-1.7,7.1a97.8,97.8,0,0,0-2.8-13,76.7,76.7,0,0,0-3.7-9.9c-.5-1.2-1-2.1-1.2-2.7l-.5-.9.3,1c.1.6.4,1.6.7,2.8a83.4,83.4,0,0,1,1.8,10.1,99.6,99.6,0,0,1,.3,14.7c-.1,2.7-.4,5.5-.7,8.3s-.9,5.7-1.4,8.6a193.7,193.7,0,0,1-5.4,20.3c-.2-5-.4-10.3-.4-15.5s-.1-12.9.1-18.9.4-11.8.7-16.6c.2-2.5.3-4.7.5-6.7s.3-3.7.4-5.1.4-4.4.4-4.4l-1.1,4.3c-.4,1.4-.8,3-1.2,4.9s-1,4.1-1.5,6.5c-1.1,4.8-2.3,10.3-3.5,16.3s-2.2,12.4-3.2,18.8c-.4,2.5-.8,5-1.1,7.6-.9-3.7-1.7-7.4-2.3-11.1a115.9,115.9,0,0,1-2-15.4c1.1-2.9,2.2-5.7,3.1-8.2,1.6-4.1,3-7.5,4-9.8s1.5-3.8,1.5-3.8l-2.1,3.4c-1.4,2.2-3.4,5.2-5.7,9l-1,1.7a116.5,116.5,0,0,1,1.1-16.4c.5-2.7.9-5.2,1.3-7.4l.3-1.6a8.3,8.3,0,0,0,.4-1.5c.2-.9.5-1.8.7-2.6.7-3.1,1.2-4.9,1.2-4.9l-1.9,4.7c-.3.7-.7,1.6-1,2.5l-.6,1.4a8.8,8.8,0,0,0-.5,1.5c-.8,2.2-1.6,4.6-2.4,7.3s-.8,2.8-1.1,4.2l-.9,3.3h0a5,5,0,0,0-.2,1.2,94.5,94.5,0,0,0-1.7,10c-.1.9-.2,1.9-.4,2.9s-.1,1.6-.2,2.4c-1.2-2.7-2.3-5.3-3.5-7.6l-1.3-2.5-1.2-2.3c-.7-1.4-1.4-2.6-2-3.6l-1.8-3.1,1.1,3.4c.4,1,.8,2.4,1.3,3.9s.4,1.5.7,2.4.5,1.7.7,2.6l.9,3.7c-.1.5-1.2,4.7-2.9,10.6s-4.5,14.8-7.5,23.1c-.5,1.4-1,2.9-1.6,4.3-.2-3.5-.3-7.2-.2-11s.5-9.3,1-13.6,1.3-8.5,2.1-12c.4-1.7.8-3.3,1.1-4.8l1-3.6,1-3.2-1.6,2.9-1.8,3.3c-.7,1.3-1.4,2.8-2.1,4.4-1.6,3.3-3.2,7.2-4.8,11.4s-2.9,8.9-4.2,13.5l-.6,2.6v-1.3a175.2,175.2,0,0,1,.2-17.8c.4-5.7.7-11,1.1-15.6a66.5,66.5,0,0,1,1.9-11.6,22.5,22.5,0,0,1,1-3.3,7,7,0,0,1,.4-1.1l-.6,1.1a30.9,30.9,0,0,0-1.5,3.1,69.6,69.6,0,0,0-3.7,11.2c-.6,2.2-1.2,4.6-1.8,7.1a97.8,97.8,0,0,0-2.8-13,76.7,76.7,0,0,0-3.7-9.9l-1.2-2.7-.5-.9.3,1a18.7,18.7,0,0,1,.7,2.8,83.4,83.4,0,0,1,1.8,10.1,99.6,99.6,0,0,1,.3,14.7c-.1,2.7-.4,5.5-.7,8.3s-.9,5.7-1.4,8.6a193.7,193.7,0,0,1-5.4,20.3c-.2-5-.4-10.3-.4-15.5s0-12.9.1-18.9.4-11.8.8-16.6c.1-2.5.3-4.7.4-6.7s.3-3.7.4-5.1.4-4.4.4-4.4l-1.1,4.3c-.3,1.4-.8,3-1.2,4.9s-1,4.1-1.5,6.5c-1.1,4.8-2.3,10.3-3.5,16.3-.3,2-.7,4.1-1.1,6.2-2-24.5-3.1-46.7-3.1-46.7s-1.9,47.2-5.7,55.9c-.8,1.7-2.3,3-3.9,2.1a.1.1,0,0,0-.1-.1c-3.2-4.5-2.1-27.5-2.5-36.7l1.1-2.6-1.1,1.8c-.1-2.4-.2-4.6-.2-6.7-.2-5.3-.3-9.6-.3-12.7s-.1-4.8-.1-4.8-.2,1.8-.7,4.8-1,7.3-1.6,12.5-1,8.8-1.5,13.8l-2.3,3.7c-1.7,2.8-3.6,5.9-5.6,9.4-1.3-3-2.5-5.7-3.8-8.2l-1.2-2.5-1.3-2.3c-.7-1.4-1.4-2.6-2-3.6l-1.8-3.1,1.1,3.4c.4,1,.8,2.4,1.3,3.9s.4,1.5.7,2.4.5,1.7.7,2.6c1.1,3.9,2,8.4,2.9,13.3-1.2,2.3-2.5,4.6-3.7,7.1.2-2,.3-3.8.3-5.5.2-3.4.3-6.2.3-8.2s.1-3.1.1-3.1-1.1,4.3-2.9,10.7-4.5,14.8-7.5,23.1l-1.6,4.3c-.2-3.5-.3-7.2-.2-11a119.1,119.1,0,0,1,1-13.6,109.6,109.6,0,0,1,2.1-12c.3-1.7.7-3.3,1.1-4.8l1-3.6.9-3.2-1.6,2.9c-.5.9-1.1,2-1.7,3.3s-1.4,2.8-2.2,4.4c-1.5,3.3-3.1,7.2-4.7,11.4a133.1,133.1,0,0,0-4.2,13.5l-.6,2.6a5.7,5.7,0,0,0-.1-1.3c-.2-6,0-12.1.3-17.8s.7-11,1.1-15.6a79.4,79.4,0,0,1,1.8-11.6c.4-1.4.8-2.5,1-3.3l.5-1.1a3.3,3.3,0,0,0-.6,1.1,18,18,0,0,0-1.5,3.1,68.6,68.6,0,0,0-3.8,11.2c-.5,2.2-1.1,4.6-1.8,7.1a118,118,0,0,0-2.7-13,95.3,95.3,0,0,0-3.7-9.9c-.5-1.2-1-2.1-1.3-2.7l-.4-.9.3,1c.1.6.4,1.6.7,2.8a83.4,83.4,0,0,1,1.8,10.1,99.6,99.6,0,0,1,.3,14.7,80.2,80.2,0,0,1-.8,8.3c-.3,2.8-.8,5.7-1.4,8.6a171.9,171.9,0,0,1-5.3,20.3c-.3-5-.4-10.3-.5-15.5s0-12.9.2-18.9.4-11.8.7-16.6c.2-2.5.3-4.7.5-6.7s.3-3.7.4-5.1.4-4.4.4-4.4l-1.1,4.3c-.4,1.4-.8,3-1.2,4.9l-1.6,6.5c-1.1,4.8-2.2,10.3-3.4,16.3s-2.2,12.4-3.2,18.8c-.4,2.5-.8,5-1.1,7.6q-1.3-5.5-2.4-11.1a115.6,115.6,0,0,1-1.9-15.4c1.1-2.9,2.1-5.7,3.1-8.2,1.6-4.1,3-7.5,4-9.8s1.5-3.8,1.5-3.8l-2.2,3.4c-1.3,2.2-3.3,5.2-5.6,9l-1,1.7a116.5,116.5,0,0,1,1.1-16.4c.4-2.7.9-5.2,1.3-7.4l.3-1.6c.1-.5.3-1,.4-1.5l.6-2.6,1.3-4.9-2,4.7c-.3.7-.6,1.6-1,2.5l-.6,1.4a8.8,8.8,0,0,1-.5,1.5l-2.4,7.3c-.3,1.3-.7,2.8-1.1,4.2s-.5,2.2-.8,3.3h0l-.3,1.2c-.5,3.1-1.3,6.5-1.6,10l-.4,2.9a19.4,19.4,0,0,0-.2,2.4l-3.5-7.6c-.5-.8-.9-1.7-1.3-2.5l-1.2-2.3-2-3.6-1.9-3.1s.5,1.2,1.2,3.4a37.5,37.5,0,0,1,1.2,3.9c.3.7.5,1.5.8,2.4s.4,1.7.7,2.6l.9,3.7c-.1.5-1.2,4.7-2.9,10.6s-4.5,14.8-7.5,23.1l-1.6,4.3c-.2-3.5-.3-7.2-.2-11a119.1,119.1,0,0,1,1-13.6c.6-4.4,1.3-8.5,2.1-12,.3-1.7.7-3.3,1.1-4.8l1-3.6c.6-2.1,1-3.2,1-3.2l-1.6,2.9a24.5,24.5,0,0,0-1.8,3.3c-.7,1.3-1.4,2.8-2.2,4.4-1.5,3.3-3.1,7.2-4.7,11.4s-3,8.9-4.2,13.5l-.6,2.6a5.7,5.7,0,0,0-.1-1.3c-.2-6,0-12.1.3-17.8s.7-11,1.1-15.6a79.4,79.4,0,0,1,1.8-11.6c.4-1.4.8-2.5,1-3.3l.5-1.1-.6,1.1a30.9,30.9,0,0,0-1.5,3.1,79.8,79.8,0,0,0-3.8,11.2c-.5,2.2-1.1,4.6-1.8,7.1a118,118,0,0,0-2.7-13,95.3,95.3,0,0,0-3.7-9.9c-.5-1.2-1-2.1-1.3-2.7l-.4-.9.3,1c.1.6.4,1.6.7,2.8a83.4,83.4,0,0,1,1.8,10.1,99.6,99.6,0,0,1,.3,14.7,80.2,80.2,0,0,1-.8,8.3c-.3,2.8-.8,5.7-1.4,8.6a171.9,171.9,0,0,1-5.3,20.3c-.2-5-.4-10.3-.5-15.5s0-12.9.2-18.9.4-11.8.7-16.6c.2-2.5.3-4.7.5-6.7s.3-3.7.4-5.1.4-4.4.4-4.4l-1.1,4.3c-.4,1.4-.8,3-1.2,4.9l-1.6,6.5c-1.1,4.8-2.2,10.3-3.4,16.3-.4,2-.8,4.1-1.1,6.2-2.1-24.5-3.1-46.7-3.1-46.7s-2.9,28-4.5,56.2c-.8,11.8-1.3,23.6-1.7,33.3-1.4-10.2-3-23.9-4.1-37.7-.7-8.5-1.3-17.1-1.6-24.9l1.8-4.5c1-2.4,1.5-3.8,1.5-3.8l-2.1,3.4-1.4,2.1c-.2-3.7-.3-7.2-.4-10.4-.1-5.3-.2-9.6-.3-12.7v-4.8s-.3,1.8-.7,4.8-1,7.3-1.6,12.5-1.4,11.8-2,18.7c-2,3.2-4.1,6.9-6.4,10.8-1.6-4-3.2-7.7-4.8-10.8l-1.3-2.5-1.2-2.3c-.7-1.4-1.4-2.6-2-3.6l-1.8-3.1,1.1,3.4a37.5,37.5,0,0,1,1.2,3.9c.3.7.5,1.5.8,2.4s.4,1.7.7,2.6,1.1,4.4,1.6,6.8-1.2,4.4-2.1,7.5c-1.8,6.3-4.5,14.8-7.5,23.1-.5,1.4-1,2.9-1.6,4.3-.2-3.5-.3-7.2-.2-11s.5-9.3,1-13.6,1.3-8.5,2.1-12c.4-1.7.8-3.3,1.1-4.8l1-3.6c.6-2.1,1-3.2,1-3.2l-1.6,2.9-1.8,3.3c-.7,1.3-1.4,2.8-2.1,4.4-1.6,3.3-3.2,7.2-4.8,11.4s-2.9,8.9-4.2,13.5l-.6,2.6v-1.3a175.2,175.2,0,0,1,.2-17.8c.4-5.7.8-11,1.1-15.6a66.5,66.5,0,0,1,1.9-11.6,22.5,22.5,0,0,1,1-3.3,8.2,8.2,0,0,0,.4-1.1l-.6,1.1a30.9,30.9,0,0,0-1.5,3.1,69.6,69.6,0,0,0-3.7,11.2c-.6,2.2-1.2,4.6-1.8,7.1a97.8,97.8,0,0,0-2.8-13,76.7,76.7,0,0,0-3.7-9.9l-1.2-2.7-.5-.9.3,1a18.7,18.7,0,0,1,.7,2.8,83.4,83.4,0,0,1,1.8,10.1,99.6,99.6,0,0,1,.3,14.7c-.1,2.7-.4,5.5-.7,8.3s-.9,5.7-1.4,8.6a193.7,193.7,0,0,1-5.4,20.3c-.2-5-.4-10.3-.4-15.5s0-12.9.1-18.9.4-11.8.8-16.6c.1-2.5.3-4.7.4-6.7s.3-3.7.4-5.1.4-4.4.4-4.4l-1.1,4.3c-.3,1.4-.7,3-1.2,4.9s-1,4.1-1.5,6.5c-1.1,4.8-2.3,10.3-3.4,16.3s-2.3,12.4-3.3,18.8c-.4,2.5-.7,5-1.1,7.6-.8-3.7-1.7-7.4-2.3-11.1a135.2,135.2,0,0,1-2-15.4l3.2-8.2c1.6-4.1,2.9-7.5,3.9-9.8l1.5-3.8-2.1,3.4c-1.4,2.2-3.3,5.2-5.6,9-.4.5-.7,1.1-1.1,1.7a116.5,116.5,0,0,1,1.1-16.4l1.4-7.4.3-1.6.3-1.5c.3-.9.5-1.8.7-2.6.8-3.1,1.2-4.9,1.2-4.9l-1.9,4.7c-.3.7-.7,1.6-1,2.5l-.6,1.4a8.8,8.8,0,0,0-.5,1.5c-.7,2.2-1.6,4.6-2.4,7.3s-.7,2.8-1.1,4.2l-.9,3.3h0c-.1.4-.1.8-.2,1.2-.6,3.1-1.3,6.5-1.7,10l-.3,2.9-.3,2.4c-1.2-2.7-2.3-5.3-3.5-7.6l-1.2-2.5-1.3-2.3c-.7-1.4-1.4-2.6-2-3.6l-1.8-3.1,1.1,3.4c.4,1,.8,2.4,1.3,3.9s.4,1.5.7,2.4.5,1.7.7,2.6l.9,3.7c-.1.5-1.2,4.7-2.9,10.6s-4.5,14.8-7.5,23.1c-.5,1.4-1,2.9-1.6,4.3-.2-3.5-.3-7.2-.2-11s.5-9.3,1-13.6,1.3-8.5,2.1-12c.4-1.7.8-3.3,1.1-4.8l1-3.6,1-3.2-1.6,2.9-1.8,3.3c-.6,1.3-1.4,2.8-2.1,4.4-1.6,3.3-3.2,7.2-4.8,11.4s-2.9,8.9-4.1,13.5a12.2,12.2,0,0,0-.6,2.6,5.7,5.7,0,0,1-.1-1.3,150,150,0,0,1,.3-17.8c.3-5.7.7-11,1-15.6a66.5,66.5,0,0,1,1.9-11.6,22.5,22.5,0,0,1,1-3.3,8.2,8.2,0,0,0,.4-1.1l-.6,1.1a30.9,30.9,0,0,0-1.5,3.1,81.3,81.3,0,0,0-3.7,11.2c-.6,2.2-1.2,4.6-1.8,7.1a97.8,97.8,0,0,0-2.8-13,76.7,76.7,0,0,0-3.7-9.9l-1.2-2.7-.5-.9.3,1a18.7,18.7,0,0,1,.7,2.8,56.6,56.6,0,0,1,1.8,10.1,87.5,87.5,0,0,1,.3,14.7c-.1,2.7-.4,5.5-.7,8.3s-.9,5.7-1.4,8.6a193.7,193.7,0,0,1-5.4,20.3c-.2-5-.4-10.3-.4-15.5s0-12.9.1-18.9.5-11.8.8-16.6c.1-2.5.3-4.7.4-6.7s.3-3.7.4-5.1.4-4.4.4-4.4l-1.1,4.3c-.3,1.4-.7,3-1.2,4.9s-1,4.1-1.5,6.5c-1.1,4.8-2.3,10.3-3.4,16.3l-1.2,6.2c-2-24.5-3.1-46.7-3.1-46.7s-2.8,28-4.5,56.2c-.1,2.7-.3,5.3-.4,8a2.1,2.1,0,0,1-4.2,0c-.4-4-.8-8.2-1.2-12.4-1.1-13.8-1.8-27.7-2.1-38.1-.2-5.3-.3-9.6-.3-12.7s-.1-4.8-.1-4.8-.2,1.8-.6,4.8-1,7.3-1.7,12.5c-1.2,10.3-2.6,24.2-3.6,38.1-.1,1.3-.2,2.7-.2,4.1-1.2-3.8-2.5-7.5-3.8-11s-3.7-8.9-5.6-12.5l-1.2-2.5a17.1,17.1,0,0,1-1.2-2.3l-2.1-3.6c-1.1-2-1.8-3.1-1.8-3.1l1.2,3.4c.3,1,.7,2.4,1.2,3.9s.5,1.5.7,2.4.5,1.7.7,2.6c1.1,3.8,2,8.2,2.9,12.9s1.4,9.9,1.8,15,.5,10.2.4,15,0,43,0,43h682s0-34.5.6-39.7a149.5,149.5,0,0,1,3.2-16.5c1.5-5.6,3.2-11.2,5-16.4s3.6-10,5.2-14.1,3-7.5,4-9.8,1.5-3.8,1.5-3.8Zm-627.7,31.4c.1-2,.2-3.8.3-5.5.1-3.4.2-6.2.3-8.2s.1-2.6.1-3c.6,2.9,1.3,6,1.9,9.2l.3,1.9C1333.4,495.7,1332.4,497.6,1331.5,499.5Zm62.1,0c.1-2,.2-3.8.3-5.5s.1-3.5.2-4.9a29.3,29.3,0,0,1,.5,2.9c.3,1.4.5,2.7.7,4.1A35.9,35.9,0,0,0,1393.6,499.5Zm10.3-1.8-.3,4.1c-.5-1.8-1.1-3.5-1.7-5.1s1-2.9,1.4-4.3l1.2-3.3Zm64.5,1.8c.2-2,.3-3.8.3-5.5.2-3.4.3-6.2.3-8.2s.1-2.6.1-3c.7,2.9,1.3,6,1.9,9.2l.3,1.9Zm75-1.8-.3,4.1c-.9-3.1-1.9-6-3-8.9.1-.1.1-.3.2-.5,1.6-4.4,3.1-8.7,4.5-12.4C1544.3,485.7,1543.8,491.7,1543.4,497.7Zm64.6,1.8c.1-2,.2-3.8.3-5.5.1-3.4.2-6.2.3-8.2v-3c.7,2.9,1.3,6,1.9,9.2a12.5,12.5,0,0,1,.3,1.9Zm62.1,0c.1-2,.2-3.8.3-5.5s.1-3.5.2-4.9c.2,1,.3,1.9.5,2.9s.5,2.7.7,4.1A35.9,35.9,0,0,0,1670.1,499.5Zm10.3-1.8-.3,4.1c-.5-1.8-1.1-3.5-1.7-5.1s.9-2.9,1.4-4.3l1.2-3.3Zm64.5,1.8c.1-2,.2-3.8.3-5.5.2-3.4.3-6.2.3-8.2s.1-2.6.1-3c.7,2.9,1.3,6,1.9,9.2l.3,1.9C1746.8,495.7,1745.9,497.6,1744.9,499.5Zm72.7-6.6c-.3,2.8-.8,5.7-1.4,8.6a221,221,0,0,1-8.1,28.7c.1-1.6.3-3.2.5-4.9a129.4,129.4,0,0,1,3.2-16.5c1.4-5.6,3.2-11.2,5-16.4l1.3-3.7C1818,490.1,1817.8,491.5,1817.6,492.9Zm61.2,6.6c.2-2,.3-3.8.3-5.5.2-3.4.3-6.2.4-8.2v-3c.7,2.9,1.3,6,1.9,9.2l.3,1.9Z"/><path class="cls-2" d="M1380.9,531.7c.6,1.6,1.2,3.3,1.7,5.1l.3-4.1.6-8.6-1.2,3.3C1381.9,528.8,1381.4,530.2,1380.9,531.7Z"/><path class="cls-2" d="M1311.2,517.8c0,.4-.1,1.4-.1,3s-.2,4.8-.3,8.2c-.1,1.7-.2,3.5-.3,5.5.9-1.9,1.9-3.8,2.9-5.6l-.3-1.9C1312.5,523.8,1311.8,520.7,1311.2,517.8Z"/><path class="cls-2" d="M1373.1,524.1c-.1,1.4-.1,3.1-.2,4.9s-.2,3.5-.3,5.5a35.9,35.9,0,0,1,1.7-3.4c-.2-1.4-.4-2.7-.7-4.1A29.3,29.3,0,0,0,1373.1,524.1Z"/><path class="cls-2" d="M1938.2,503.1c-1.3,2.2-3.3,5.2-5.6,9s-4.9,8.1-7.7,12.9l-5,9.5c.2-2,.3-3.8.3-5.5.2-3.4.3-6.2.4-8.2v-3.1s-1.1,4.3-2.9,10.7-4.5,14.8-7.5,23.1l-1.6,4.3c-.2-3.5-.3-7.2-.2-11a119.1,119.1,0,0,1,1-13.6c.6-4.4,1.3-8.5,2.1-12,.3-1.7.7-3.3,1.1-4.8l1-3.6c.6-2.1,1-3.2,1-3.2l-1.6,2.9a24.5,24.5,0,0,0-1.8,3.3c-.7,1.3-1.4,2.8-2.2,4.4-1.5,3.3-3.1,7.2-4.7,11.4s-3,8.9-4.2,13.5l-.6,2.6v-1.3a175.2,175.2,0,0,1,.2-17.8c.4-5.7.7-11,1.1-15.6a79.4,79.4,0,0,1,1.8-11.6c.4-1.4.8-2.5,1-3.3l.5-1.1-.6,1.1a30.9,30.9,0,0,0-1.5,3.1,79.8,79.8,0,0,0-3.8,11.2c-.5,2.2-1.1,4.6-1.8,7.1a98.6,98.6,0,0,0-2.7-13,76.7,76.7,0,0,0-3.7-9.9c-.5-1.2-1-2.1-1.3-2.7l-.4-.9.3,1c.1.6.4,1.6.7,2.8a83.4,83.4,0,0,1,1.8,10.1,99.6,99.6,0,0,1,.3,14.7c-.1,2.7-.4,5.5-.7,8.3s-.9,5.7-1.4,8.6a193.7,193.7,0,0,1-5.4,20.3c-.2-5-.4-10.3-.5-15.5s0-12.9.2-18.9.4-11.8.7-16.6c.2-2.5.3-4.7.5-6.7s.3-3.7.4-5.1.4-4.4.4-4.4l-1.1,4.3c-.4,1.4-.8,3-1.2,4.9l-1.6,6.5c-1.1,4.8-2.2,10.3-3.4,16.3s-2.2,12.4-3.2,18.8c-.4,2.5-.8,5-1.1,7.6q-1.4-5.6-2.4-11.1a115.6,115.6,0,0,1-1.9-15.4c1.1-2.9,2.1-5.7,3.1-8.2,1.6-4.1,3-7.5,4-9.8s1.5-3.8,1.5-3.8l-2.2,3.4c-1.3,2.2-3.3,5.2-5.6,9l-1,1.7a116.5,116.5,0,0,1,1.1-16.4c.4-2.7.9-5.2,1.3-7.4l.3-1.6c.1-.5.3-1,.4-1.5l.6-2.6,1.3-4.9-1.9,4.7c-.4.7-.7,1.6-1.1,2.5a12.1,12.1,0,0,1-.5,1.4l-.6,1.5c-.7,2.2-1.5,4.6-2.3,7.3s-.8,2.8-1.1,4.2l-.9,3.3h0a5,5,0,0,0-.2,1.2,94.5,94.5,0,0,0-1.7,10c-.1.9-.3,1.9-.4,2.9s-.1,1.6-.2,2.4l-3.5-7.6-1.3-2.5-1.2-2.3-2-3.6-1.8-3.1,1.1,3.4a37.5,37.5,0,0,1,1.2,3.9c.3.7.5,1.5.8,2.4s.4,1.7.7,2.6l.9,3.7c-.1.5-1.2,4.7-2.9,10.6s-4.5,14.8-7.5,23.1l-1.6,4.3c-.2-3.5-.3-7.2-.2-11s.5-9.3,1-13.6,1.3-8.5,2.1-12c.3-1.7.7-3.3,1.1-4.8l1-3.6,1-3.2-1.6,2.9c-.6.9-1.1,2-1.8,3.3l-2.2,4.4c-1.5,3.3-3.1,7.2-4.7,11.4s-3,8.9-4.2,13.5l-.6,2.6v-1.3a175.2,175.2,0,0,1,.2-17.8c.1-1.9.3-3.7.4-5.5s2-5.4,2.9-7.8c1.6-4.1,3-7.5,4-9.8l1.5-3.8-2.2,3.4c-1.3,2.2-3.3,5.2-5.6,8.9a66.5,66.5,0,0,1,2-12.6c.3-1.4.7-2.5.9-3.3l.5-1.1-.6,1.1a30.9,30.9,0,0,0-1.5,3.1,79.8,79.8,0,0,0-3.8,11.2c-.5,2.2-1.1,4.7-1.8,7.2l-.6,2.7-2.8,4.7-5,9.5c.1-2,.2-3.8.3-5.5.2-3.4.3-6.2.3-8.2s.1-3.1.1-3.1-1.1,4.3-2.9,10.7-4.6,14.8-7.5,23.1c-.6,1.4-1.1,2.9-1.6,4.3-.2-3.5-.3-7.2-.2-11a119.1,119.1,0,0,1,1-13.6,109.6,109.6,0,0,1,2.1-12c.3-1.7.7-3.3,1.1-4.8l1-3.6.9-3.2-1.6,2.9c-.5.9-1.1,2-1.7,3.3s-1.4,2.8-2.2,4.4c-1.5,3.3-3.1,7.2-4.7,11.4a133.1,133.1,0,0,0-4.2,13.5l-.6,2.6a5.7,5.7,0,0,0-.1-1.3c-.2-6,0-12.1.3-17.8s.7-11,1.1-15.6a79.4,79.4,0,0,1,1.8-11.6c.4-1.4.8-2.5,1-3.3l.5-1.1a3.3,3.3,0,0,0-.6,1.1,18,18,0,0,0-1.5,3.1,68.6,68.6,0,0,0-3.8,11.2c-.5,2.2-1.1,4.6-1.8,7.1-.2-1.9-.6-3.7-.9-5.4l3.4-8.6,1.6-3.8-2.2,3.4-3.5,5.6c-.4-1.4-.8-2.9-1.1-4.2a95.3,95.3,0,0,0-3.7-9.9c-.5-1.2-1-2.1-1.3-2.7l-.4-.9s.1.4.2,1,.5,1.6.8,2.8a83.4,83.4,0,0,1,1.8,10.1c.2,2.8.4,5.8.4,9.1-2,3.3-4.2,7-6.5,11s-3.3,6.2-5,9.5c.1-2,.2-3.8.3-5.5.2-3.4.3-6.2.3-8.2s.1-3.1.1-3.1-1.1,4.3-2.9,10.7-4.6,14.8-7.5,23.1c-.6,1.4-1.1,2.9-1.6,4.3-.2-3.5-.3-7.2-.3-11s.5-9.3,1.1-13.6a110.9,110.9,0,0,1,2-12q.6-2.6,1.2-4.8c.3-1.4.7-2.6,1-3.6l.9-3.2-1.6,2.9c-.5.9-1.1,2-1.7,3.3s-1.5,2.8-2.2,4.4c-1.6,3.3-3.1,7.2-4.7,11.4a133.1,133.1,0,0,0-4.2,13.5l-.6,2.6c0-.4-.1-.9-.1-1.3-.2-6,0-12.1.3-17.8s.7-11,1.1-15.6a67.7,67.7,0,0,1,1.8-11.6c.4-1.4.8-2.5,1-3.3a8.2,8.2,0,0,0,.4-1.1l-.6,1.1c-.3.7-.9,1.7-1.5,3.1a81.3,81.3,0,0,0-3.7,11.2c-.6,2.2-1.1,4.6-1.8,7.1a97.8,97.8,0,0,0-2.8-13,78.9,78.9,0,0,0-3.6-9.9c-.5-1.2-1-2.1-1.3-2.7l-.4-.9s.1.4.2,1,.5,1.6.8,2.8a69.4,69.4,0,0,1,1.7,10.1,86.8,86.8,0,0,1,.4,14.7c-.2,2.7-.4,5.5-.8,8.3s-.8,5.7-1.4,8.6a193.8,193.8,0,0,1-5.3,20.3c-.3-5-.4-10.3-.5-15.5s0-12.9.2-18.9.4-11.8.7-16.6c.1-2.5.3-4.7.5-6.7s.2-3.7.4-5.1.4-4.4.4-4.4l-1.1,4.3c-.4,1.4-.8,3-1.3,4.9s-1,4.1-1.5,6.5c-1.1,4.8-2.2,10.3-3.4,16.3s-2.3,12.4-3.3,18.8c-.3,2.5-.7,5-1,7.6q-1.3-5.6-2.4-11.1a115.6,115.6,0,0,1-1.9-15.4c1.1-2.9,2.1-5.7,3.1-8.2l3.9-9.8,1.6-3.8-2.2,3.4c-1.3,2.2-3.3,5.2-5.6,9l-1.1,1.7a115.7,115.7,0,0,1,1.2-16.4c.4-2.7.9-5.2,1.3-7.4l.3-1.6a8.3,8.3,0,0,1,.4-1.5l.6-2.6,1.3-4.9-2,4.7c-.3.7-.6,1.6-1,2.5l-.6,1.4a8.8,8.8,0,0,1-.5,1.5c-.7,2.2-1.6,4.6-2.4,7.3s-.7,2.8-1.1,4.2-.5,2.2-.8,3.3h0l-.3,1.2a95.1,95.1,0,0,0-1.6,10,25.4,25.4,0,0,0-.4,2.9,19.4,19.4,0,0,0-.2,2.4l-3.5-7.6c-.5-.8-.9-1.7-1.3-2.5l-1.2-2.3c-.8-1.4-1.5-2.6-2-3.6l-1.9-3.1,1.2,3.4a37.5,37.5,0,0,1,1.2,3.9c.2.7.5,1.5.7,2.4s.5,1.7.8,2.6l.9,3.7c-.2.5-1.2,4.7-2.9,10.6s-4.6,14.8-7.5,23.1c-.6,1.4-1.1,2.9-1.6,4.3-.2-3.5-.3-7.2-.3-11s.5-9.3,1.1-13.6,1.2-8.5,2-12q.6-2.6,1.2-4.8c.3-1.4.7-2.6,1-3.6l.9-3.2-1.6,2.9c-.5.9-1.1,2-1.7,3.3s-1.4,2.8-2.2,4.4c-1.6,3.3-3.1,7.2-4.7,11.4a133.1,133.1,0,0,0-4.2,13.5l-.6,2.6c0-.4-.1-.9-.1-1.3-.2-6,0-12.1.3-17.8s.7-11,1.1-15.6a79.4,79.4,0,0,1,1.8-11.6c.4-1.4.8-2.5,1-3.3a8.2,8.2,0,0,0,.4-1.1l-.6,1.1c-.3.7-.9,1.7-1.5,3.1a81.3,81.3,0,0,0-3.7,11.2c-.5,2.2-1.1,4.6-1.8,7.1a97.8,97.8,0,0,0-2.8-13,78.9,78.9,0,0,0-3.6-9.9c-.5-1.2-1-2.1-1.3-2.7l-.4-.9s.1.4.2,1,.5,1.6.8,2.8a69.4,69.4,0,0,1,1.7,10.1,86.8,86.8,0,0,1,.4,14.7c-.2,2.7-.4,5.5-.8,8.3s-.8,5.7-1.4,8.6a193.8,193.8,0,0,1-5.3,20.3c-.3-5-.4-10.3-.5-15.5s0-12.9.2-18.9.4-11.8.7-16.6c.2-2.5.3-4.7.5-6.7s.2-3.7.4-5.1.4-4.4.4-4.4l-1.1,4.3c-.4,1.4-.8,3-1.3,4.9s-.9,4.1-1.5,6.5c-1.1,4.8-2.2,10.3-3.4,16.3l-1.2,6.2c-2-24.5-3-46.7-3-46.7s-2.9,28-4.5,56.2l-.6,9.2a2,2,0,0,1-3.9.1c-.5-4.5-.9-9.1-1.3-13.7-.7-8.5-1.3-17.1-1.7-24.9l1.9-4.5c.9-2.4,1.5-3.8,1.5-3.8l-2.1,3.4-1.4,2.1c-.2-3.7-.3-7.2-.4-10.4-.2-5.3-.2-9.6-.3-12.7v-4.8s-.3,1.8-.7,4.8-1,7.3-1.6,12.5-1.4,11.8-2,18.7c-2,3.2-4.2,6.9-6.4,10.8-1.6-4-3.2-7.7-4.8-10.8-.5-.8-.9-1.7-1.3-2.5l-1.2-2.3-2-3.6-1.9-3.1s.5,1.2,1.2,3.4a37.5,37.5,0,0,1,1.2,3.9c.3.7.5,1.5.8,2.4s.4,1.7.7,2.6,1.1,4.4,1.6,6.8-1.2,4.4-2.1,7.5c-1.8,6.3-4.5,14.8-7.5,23.1l-1.6,4.3c-.2-3.5-.3-7.2-.2-11s.5-9.3,1-13.6,1.3-8.5,2.1-12c.3-1.7.7-3.3,1.1-4.8l1-3.6c.6-2.1,1-3.2,1-3.2l-1.6,2.9c-.6.9-1.1,2-1.8,3.3s-1.4,2.8-2.2,4.4c-1.5,3.3-3.1,7.2-4.7,11.4s-3,8.9-4.2,13.5l-.6,2.6v-1.3a175.2,175.2,0,0,1,.2-17.8c.4-5.7.7-11,1.1-15.6a66.5,66.5,0,0,1,1.9-11.6,22.5,22.5,0,0,1,1-3.3,7,7,0,0,1,.4-1.1l-.6,1.1a30.9,30.9,0,0,0-1.5,3.1,79.8,79.8,0,0,0-3.8,11.2c-.5,2.2-1.1,4.6-1.7,7.1a97.8,97.8,0,0,0-2.8-13,76.7,76.7,0,0,0-3.7-9.9c-.5-1.2-1-2.1-1.2-2.7l-.5-.9.3,1c.1.6.4,1.6.7,2.8a83.4,83.4,0,0,1,1.8,10.1,99.6,99.6,0,0,1,.3,14.7c-.1,2.7-.4,5.5-.7,8.3s-.9,5.7-1.4,8.6a193.7,193.7,0,0,1-5.4,20.3c-.2-5-.4-10.3-.4-15.5s-.1-12.9.1-18.9.4-11.8.7-16.6c.2-2.5.3-4.7.5-6.7s.3-3.7.4-5.1.4-4.4.4-4.4l-1.1,4.3c-.4,1.4-.8,3-1.2,4.9s-1,4.1-1.5,6.5c-1.1,4.8-2.3,10.3-3.5,16.3s-2.2,12.4-3.2,18.8c-.4,2.5-.8,5-1.1,7.6-.9-3.7-1.7-7.4-2.3-11.1a115.9,115.9,0,0,1-2-15.4c1.1-2.9,2.2-5.7,3.1-8.2,1.6-4.1,3-7.5,4-9.8s1.5-3.8,1.5-3.8l-2.1,3.4c-1.4,2.2-3.4,5.2-5.7,9l-1,1.7a116.5,116.5,0,0,1,1.1-16.4c.5-2.7.9-5.2,1.3-7.4l.3-1.6a8.3,8.3,0,0,0,.4-1.5c.2-.9.5-1.8.7-2.6.7-3.1,1.2-4.9,1.2-4.9l-1.9,4.7c-.3.7-.7,1.6-1,2.5l-.6,1.4a8.8,8.8,0,0,0-.5,1.5c-.8,2.2-1.6,4.6-2.4,7.3s-.8,2.8-1.1,4.2l-.9,3.3h0a5,5,0,0,0-.2,1.2,94.5,94.5,0,0,0-1.7,10c-.1.9-.2,1.9-.4,2.9s-.1,1.6-.2,2.4c-1.2-2.7-2.3-5.3-3.5-7.6l-1.3-2.5-1.2-2.3c-.7-1.4-1.4-2.6-2-3.6l-1.8-3.1,1.1,3.4c.4,1,.8,2.4,1.3,3.9s.4,1.5.7,2.4.5,1.7.7,2.6l.9,3.7c-.1.5-1.2,4.7-2.9,10.6s-4.5,14.8-7.5,23.1c-.5,1.4-1,2.9-1.6,4.3-.2-3.5-.3-7.2-.2-11s.5-9.3,1-13.6,1.3-8.5,2.1-12c.4-1.7.8-3.3,1.1-4.8l1-3.6,1-3.2-1.6,2.9-1.8,3.3c-.7,1.3-1.4,2.8-2.1,4.4-1.6,3.3-3.2,7.2-4.8,11.4s-2.9,8.9-4.2,13.5l-.6,2.6v-1.3a175.2,175.2,0,0,1,.2-17.8c.4-5.7.7-11,1.1-15.6a66.5,66.5,0,0,1,1.9-11.6,22.5,22.5,0,0,1,1-3.3,7,7,0,0,1,.4-1.1l-.6,1.1a30.9,30.9,0,0,0-1.5,3.1,69.6,69.6,0,0,0-3.7,11.2c-.6,2.2-1.2,4.6-1.8,7.1a97.8,97.8,0,0,0-2.8-13,76.7,76.7,0,0,0-3.7-9.9l-1.2-2.7-.5-.9.3,1a18.7,18.7,0,0,1,.7,2.8,83.4,83.4,0,0,1,1.8,10.1,99.6,99.6,0,0,1,.3,14.7c-.1,2.7-.4,5.5-.7,8.3s-.9,5.7-1.4,8.6a193.7,193.7,0,0,1-5.4,20.3c-.2-5-.4-10.3-.4-15.5s0-12.9.1-18.9.4-11.8.8-16.6c.1-2.5.3-4.7.4-6.7s.3-3.7.4-5.1.4-4.4.4-4.4l-1.1,4.3c-.3,1.4-.8,3-1.2,4.9s-1,4.1-1.5,6.5c-1.1,4.8-2.3,10.3-3.5,16.3-.3,2-.7,4.1-1.1,6.2-2-24.5-3.1-46.7-3.1-46.7s-1.9,47.2-5.7,55.9c-.8,1.7-2.3,3-3.9,2.1a.1.1,0,0,0-.1-.1c-3.2-4.5-2.1-27.5-2.5-36.7l1.1-2.6-1.1,1.8c-.1-2.4-.2-4.6-.2-6.7-.2-5.3-.3-9.6-.3-12.7s-.1-4.8-.1-4.8-.2,1.8-.7,4.8-1,7.3-1.6,12.5-1,8.8-1.5,13.8l-2.3,3.7c-1.7,2.8-3.6,5.9-5.6,9.4-1.3-3-2.5-5.7-3.8-8.2l-1.2-2.5-1.3-2.3c-.7-1.4-1.4-2.6-2-3.6l-1.8-3.1,1.1,3.4c.4,1,.8,2.4,1.3,3.9s.4,1.5.7,2.4.5,1.7.7,2.6c1.1,3.9,2,8.4,2.9,13.3-1.2,2.3-2.5,4.6-3.7,7.1.2-2,.3-3.8.3-5.5.2-3.4.3-6.2.3-8.2s.1-3.1.1-3.1-1.1,4.3-2.9,10.7-4.5,14.8-7.5,23.1l-1.6,4.3c-.2-3.5-.3-7.2-.2-11a119.1,119.1,0,0,1,1-13.6,109.6,109.6,0,0,1,2.1-12c.3-1.7.7-3.3,1.1-4.8l1-3.6.9-3.2-1.6,2.9c-.5.9-1.1,2-1.7,3.3s-1.4,2.8-2.2,4.4c-1.5,3.3-3.1,7.2-4.7,11.4a133.1,133.1,0,0,0-4.2,13.5l-.6,2.6a5.7,5.7,0,0,0-.1-1.3c-.2-6,0-12.1.3-17.8s.7-11,1.1-15.6a79.4,79.4,0,0,1,1.8-11.6c.4-1.4.8-2.5,1-3.3l.5-1.1a3.3,3.3,0,0,0-.6,1.1,18,18,0,0,0-1.5,3.1,68.6,68.6,0,0,0-3.8,11.2c-.5,2.2-1.1,4.6-1.8,7.1a118,118,0,0,0-2.7-13,95.3,95.3,0,0,0-3.7-9.9c-.5-1.2-1-2.1-1.3-2.7l-.4-.9.3,1c.1.6.4,1.6.7,2.8a83.4,83.4,0,0,1,1.8,10.1,99.6,99.6,0,0,1,.3,14.7,80.2,80.2,0,0,1-.8,8.3c-.3,2.8-.8,5.7-1.4,8.6a171.9,171.9,0,0,1-5.3,20.3c-.3-5-.4-10.3-.5-15.5s0-12.9.2-18.9.4-11.8.7-16.6c.2-2.5.3-4.7.5-6.7s.3-3.7.4-5.1.4-4.4.4-4.4l-1.1,4.3c-.4,1.4-.8,3-1.2,4.9l-1.6,6.5c-1.1,4.8-2.2,10.3-3.4,16.3s-2.2,12.4-3.2,18.8c-.4,2.5-.8,5-1.1,7.6q-1.3-5.6-2.4-11.1a115.6,115.6,0,0,1-1.9-15.4c1.1-2.9,2.1-5.7,3.1-8.2,1.6-4.1,3-7.5,4-9.8s1.5-3.8,1.5-3.8l-2.2,3.4c-1.3,2.2-3.3,5.2-5.6,9l-1,1.7a116.5,116.5,0,0,1,1.1-16.4c.4-2.7.9-5.2,1.3-7.4l.3-1.6c.1-.5.3-1,.4-1.5l.6-2.6,1.3-4.9-2,4.7c-.3.7-.6,1.6-1,2.5l-.6,1.4a8.8,8.8,0,0,1-.5,1.5l-2.4,7.3c-.3,1.3-.7,2.8-1.1,4.2s-.5,2.2-.8,3.3h0l-.3,1.2c-.5,3.1-1.3,6.5-1.6,10l-.4,2.9a19.4,19.4,0,0,0-.2,2.4l-3.5-7.6c-.5-.8-.9-1.7-1.3-2.5l-1.2-2.3-2-3.6-1.9-3.1s.5,1.2,1.2,3.4a37.5,37.5,0,0,1,1.2,3.9c.3.7.5,1.5.8,2.4s.4,1.7.7,2.6l.9,3.7c-.1.5-1.2,4.7-2.9,10.6s-4.5,14.8-7.5,23.1l-1.6,4.3c-.2-3.5-.3-7.2-.2-11a119.1,119.1,0,0,1,1-13.6c.6-4.4,1.3-8.5,2.1-12,.3-1.7.7-3.3,1.1-4.8l1-3.6c.6-2.1,1-3.2,1-3.2l-1.6,2.9a24.5,24.5,0,0,0-1.8,3.3c-.7,1.3-1.4,2.8-2.2,4.4-1.5,3.3-3.1,7.2-4.7,11.4s-3,8.9-4.2,13.5l-.6,2.6a5.7,5.7,0,0,0-.1-1.3c-.2-6,0-12.1.3-17.8s.7-11,1.1-15.6a79.4,79.4,0,0,1,1.8-11.6c.4-1.4.8-2.5,1-3.3l.5-1.1-.6,1.1a30.9,30.9,0,0,0-1.5,3.1,79.8,79.8,0,0,0-3.8,11.2c-.5,2.2-1.1,4.6-1.8,7.1a118,118,0,0,0-2.7-13,95.3,95.3,0,0,0-3.7-9.9c-.5-1.2-1-2.1-1.3-2.7l-.4-.9.3,1c.1.6.4,1.6.7,2.8a83.4,83.4,0,0,1,1.8,10.1,99.6,99.6,0,0,1,.3,14.7,80.2,80.2,0,0,1-.8,8.3c-.3,2.8-.8,5.7-1.4,8.6a171.9,171.9,0,0,1-5.3,20.3c-.2-5-.4-10.3-.5-15.5s0-12.9.2-18.9.4-11.8.7-16.6c.2-2.5.3-4.7.5-6.7s.3-3.7.4-5.1.4-4.4.4-4.4l-1.1,4.3c-.4,1.4-.8,3-1.2,4.9l-1.6,6.5c-1.1,4.8-2.2,10.3-3.4,16.3-.4,2-.8,4.1-1.1,6.2-2.1-24.5-3.1-46.7-3.1-46.7s-2.9,28-4.5,56.2c-.8,11.8-1.3,23.6-1.7,33.3-1.4-10.2-3-23.9-4.1-37.7-.7-8.5-1.3-17.1-1.6-24.9l1.8-4.5c1-2.4,1.5-3.8,1.5-3.8l-2.1,3.4-1.4,2.1c-.2-3.7-.3-7.2-.4-10.4-.1-5.3-.2-9.6-.3-12.7v-4.8s-.3,1.8-.7,4.8-1,7.3-1.6,12.5-1.4,11.8-2,18.7c-2,3.2-4.1,6.9-6.4,10.8-1.6-4-3.2-7.7-4.8-10.8l-1.3-2.5-1.2-2.3c-.7-1.4-1.4-2.6-2-3.6l-1.8-3.1,1.1,3.4a37.5,37.5,0,0,1,1.2,3.9c.3.7.5,1.5.8,2.4s.4,1.7.7,2.6,1.1,4.4,1.6,6.8-1.2,4.4-2.1,7.5c-1.8,6.3-4.5,14.8-7.5,23.1-.5,1.4-1,2.9-1.6,4.3-.2-3.5-.3-7.2-.2-11s.5-9.3,1-13.6,1.3-8.5,2.1-12c.4-1.7.8-3.3,1.1-4.8l1-3.6c.6-2.1,1-3.2,1-3.2l-1.6,2.9-1.8,3.3c-.7,1.3-1.4,2.8-2.1,4.4-1.6,3.3-3.2,7.2-4.8,11.4s-2.9,8.9-4.2,13.5l-.6,2.6v-1.3a175.2,175.2,0,0,1,.2-17.8c.4-5.7.8-11,1.1-15.6a66.5,66.5,0,0,1,1.9-11.6,22.5,22.5,0,0,1,1-3.3,8.2,8.2,0,0,0,.4-1.1l-.6,1.1a30.9,30.9,0,0,0-1.5,3.1,69.6,69.6,0,0,0-3.7,11.2c-.6,2.2-1.2,4.6-1.8,7.1a97.8,97.8,0,0,0-2.8-13,76.7,76.7,0,0,0-3.7-9.9l-1.2-2.7-.5-.9.3,1a18.7,18.7,0,0,1,.7,2.8,83.4,83.4,0,0,1,1.8,10.1,99.6,99.6,0,0,1,.3,14.7c-.1,2.7-.4,5.5-.7,8.3s-.9,5.7-1.4,8.6a193.7,193.7,0,0,1-5.4,20.3c-.2-5-.4-10.3-.4-15.5s0-12.9.1-18.9.4-11.8.8-16.6c.1-2.5.3-4.7.4-6.7s.3-3.7.4-5.1.4-4.4.4-4.4l-1.1,4.3c-.3,1.4-.7,3-1.2,4.9s-1,4.1-1.5,6.5c-1.1,4.8-2.3,10.3-3.4,16.3s-2.3,12.4-3.3,18.8c-.4,2.5-.7,5-1.1,7.6-.8-3.7-1.7-7.4-2.3-11.1a135.2,135.2,0,0,1-2-15.4l3.2-8.2c1.6-4.1,2.9-7.5,3.9-9.8l1.5-3.8-2.1,3.4c-1.4,2.2-3.3,5.2-5.6,9-.4.5-.7,1.1-1.1,1.7a116.5,116.5,0,0,1,1.1-16.4l1.4-7.4.3-1.6.3-1.5c.3-.9.5-1.8.7-2.6.8-3.1,1.2-4.9,1.2-4.9l-1.9,4.7c-.3.7-.7,1.6-1,2.5l-.6,1.4a8.8,8.8,0,0,0-.5,1.5c-.7,2.2-1.6,4.6-2.4,7.3s-.7,2.8-1.1,4.2l-.9,3.3h0c-.1.4-.1.8-.2,1.2-.6,3.1-1.3,6.5-1.7,10l-.3,2.9-.3,2.4c-1.2-2.7-2.3-5.3-3.5-7.6l-1.2-2.5-1.3-2.3c-.7-1.4-1.4-2.6-2-3.6l-1.8-3.1,1.1,3.4c.4,1,.8,2.4,1.3,3.9s.4,1.5.7,2.4.5,1.7.7,2.6l.9,3.7c-.1.5-1.2,4.7-2.9,10.6s-4.5,14.8-7.5,23.1c-.5,1.4-1,2.9-1.6,4.3-.2-3.5-.3-7.2-.2-11s.5-9.3,1-13.6,1.3-8.5,2.1-12c.4-1.7.8-3.3,1.1-4.8l1-3.6,1-3.2-1.6,2.9-1.8,3.3c-.6,1.3-1.4,2.8-2.1,4.4-1.6,3.3-3.2,7.2-4.8,11.4s-2.9,8.9-4.1,13.5a12.2,12.2,0,0,0-.6,2.6,5.7,5.7,0,0,1-.1-1.3,150,150,0,0,1,.3-17.8c.3-5.7.7-11,1-15.6a66.5,66.5,0,0,1,1.9-11.6,22.5,22.5,0,0,1,1-3.3,8.2,8.2,0,0,0,.4-1.1l-.6,1.1a30.9,30.9,0,0,0-1.5,3.1,81.3,81.3,0,0,0-3.7,11.2c-.6,2.2-1.2,4.6-1.8,7.1a97.8,97.8,0,0,0-2.8-13,76.7,76.7,0,0,0-3.7-9.9l-1.2-2.7-.5-.9.3,1a18.7,18.7,0,0,1,.7,2.8,56.6,56.6,0,0,1,1.8,10.1,87.5,87.5,0,0,1,.3,14.7c-.1,2.7-.4,5.5-.7,8.3s-.9,5.7-1.4,8.6a193.7,193.7,0,0,1-5.4,20.3c-.2-5-.4-10.3-.4-15.5s0-12.9.1-18.9.5-11.8.8-16.6c.1-2.5.3-4.7.4-6.7s.3-3.7.4-5.1.4-4.4.4-4.4l-1.1,4.3c-.3,1.4-.7,3-1.2,4.9s-1,4.1-1.5,6.5c-1.1,4.8-2.3,10.3-3.4,16.3l-1.2,6.2c-2-24.5-3.1-46.7-3.1-46.7s-2.8,28-4.5,56.2c-.1,2.7-.3,5.3-.4,8a2.1,2.1,0,0,1-4.2,0c-.4-4-.8-8.2-1.2-12.4-1.1-13.8-1.8-27.7-2.1-38.1-.2-5.3-.3-9.6-.3-12.7s-.1-4.8-.1-4.8-.2,1.8-.6,4.8-1,7.3-1.7,12.5c-1.2,10.3-2.6,24.2-3.6,38.1-.1,1.3-.2,2.7-.2,4.1-1.2-3.8-2.5-7.5-3.8-11s-3.7-8.9-5.6-12.5l-1.2-2.5a17.1,17.1,0,0,1-1.2-2.3l-2.1-3.6c-1.1-2-1.8-3.1-1.8-3.1l1.2,3.4c.3,1,.7,2.4,1.2,3.9s.5,1.5.7,2.4.5,1.7.7,2.6c1.1,3.8,2,8.2,2.9,12.9s1.4,9.9,1.8,15,.5,10.2.4,15,0,43,0,43h682s0-34.5.6-39.7a149.5,149.5,0,0,1,3.2-16.5c1.5-5.6,3.2-11.2,5-16.4s3.6-10,5.2-14.1,3-7.5,4-9.8,1.5-3.8,1.5-3.8Zm-627.7,31.4c.1-2,.2-3.8.3-5.5.1-3.4.2-6.2.3-8.2s.1-2.6.1-3c.6,2.9,1.3,6,1.9,9.2l.3,1.9C1312.4,530.7,1311.4,532.6,1310.5,534.5Zm62.1,0c.1-2,.2-3.8.3-5.5s.1-3.5.2-4.9a29.3,29.3,0,0,1,.5,2.9c.3,1.4.5,2.7.7,4.1A35.9,35.9,0,0,0,1372.6,534.5Zm10.3-1.8-.3,4.1c-.5-1.8-1.1-3.5-1.7-5.1s1-2.9,1.4-4.3l1.2-3.3Zm64.5,1.8c.2-2,.3-3.8.3-5.5.2-3.4.3-6.2.3-8.2s.1-2.6.1-3c.7,2.9,1.3,6,1.9,9.2l.3,1.9Zm75-1.8-.3,4.1c-.9-3.1-1.9-6-3-8.9.1-.1.1-.3.2-.5,1.6-4.4,3.1-8.7,4.5-12.4C1523.3,520.7,1522.8,526.7,1522.4,532.7Zm64.6,1.8c.1-2,.2-3.8.3-5.5.1-3.4.2-6.2.3-8.2v-3c.7,2.9,1.3,6,1.9,9.2a12.5,12.5,0,0,1,.3,1.9Zm62.1,0c.1-2,.2-3.8.3-5.5s.1-3.5.2-4.9c.2,1,.3,1.9.5,2.9s.5,2.7.7,4.1A35.9,35.9,0,0,0,1649.1,534.5Zm10.3-1.8-.3,4.1c-.5-1.8-1.1-3.5-1.7-5.1s.9-2.9,1.4-4.3l1.2-3.3Zm64.5,1.8c.1-2,.2-3.8.3-5.5.2-3.4.3-6.2.3-8.2s.1-2.6.1-3c.7,2.9,1.3,6,1.9,9.2l.3,1.9C1725.8,530.7,1724.9,532.6,1723.9,534.5Zm72.7-6.6c-.3,2.8-.8,5.7-1.4,8.6a221,221,0,0,1-8.1,28.7c.1-1.6.3-3.2.5-4.9a129.4,129.4,0,0,1,3.2-16.5c1.4-5.6,3.2-11.2,5-16.4l1.3-3.7C1797,525.1,1796.8,526.5,1796.6,527.9Zm61.2,6.6c.2-2,.3-3.8.3-5.5.2-3.4.3-6.2.4-8.2v-3c.7,2.9,1.3,6,1.9,9.2l.3,1.9Z"/></svg>